solid OpenSCAD_Model
  facet normal -1 0 0
    outer loop
      vertex -15 -15 -62
      vertex -15 15 2
      vertex -15 15 -62
    endloop
  endfacet
  facet normal -1 -0 0
    outer loop
      vertex -15 15 2
      vertex -15 -15 -62
      vertex -15 -15 2
    endloop
  endfacet
  facet normal 0 0 1
    outer loop
      vertex 15 15 2
      vertex 12.5 0 2
      vertex 15 -15 2
    endloop
  endfacet
  facet normal 0 0 1
    outer loop
      vertex 15 15 2
      vertex 12.2268 2.5989 2
      vertex 12.5 0 2
    endloop
  endfacet
  facet normal 0 0 1
    outer loop
      vertex 15 15 2
      vertex 11.4193 5.08421 2
      vertex 12.2268 2.5989 2
    endloop
  endfacet
  facet normal 0 0 1
    outer loop
      vertex 15 15 2
      vertex 10.1127 7.34731 2
      vertex 11.4193 5.08421 2
    endloop
  endfacet
  facet normal 0 0 1
    outer loop
      vertex 15 15 2
      vertex 8.36413 9.28931 2
      vertex 10.1127 7.34731 2
    endloop
  endfacet
  facet normal 0 0 1
    outer loop
      vertex 15 15 2
      vertex 6.25 10.8253 2
      vertex 8.36413 9.28931 2
    endloop
  endfacet
  facet normal 0 0 1
    outer loop
      vertex 15 15 2
      vertex 3.86271 11.8882 2
      vertex 6.25 10.8253 2
    endloop
  endfacet
  facet normal 0 0 1
    outer loop
      vertex 15 15 2
      vertex 1.30661 12.4315 2
      vertex 3.86271 11.8882 2
    endloop
  endfacet
  facet normal 0 0 1
    outer loop
      vertex 15 15 2
      vertex -1.30661 12.4315 2
      vertex 1.30661 12.4315 2
    endloop
  endfacet
  facet normal 0 0 1
    outer loop
      vertex -12.2268 2.5989 2
      vertex -15 15 2
      vertex -12.5 0 2
    endloop
  endfacet
  facet normal 0 0 1
    outer loop
      vertex -11.4193 5.08421 2
      vertex -15 15 2
      vertex -12.2268 2.5989 2
    endloop
  endfacet
  facet normal 0 0 1
    outer loop
      vertex -10.1127 7.34731 2
      vertex -15 15 2
      vertex -11.4193 5.08421 2
    endloop
  endfacet
  facet normal 0 0 1
    outer loop
      vertex -8.36413 9.28931 2
      vertex -15 15 2
      vertex -10.1127 7.34731 2
    endloop
  endfacet
  facet normal 0 0 1
    outer loop
      vertex -6.25 10.8253 2
      vertex -15 15 2
      vertex -8.36413 9.28931 2
    endloop
  endfacet
  facet normal 0 0 1
    outer loop
      vertex -3.86271 11.8882 2
      vertex -15 15 2
      vertex -6.25 10.8253 2
    endloop
  endfacet
  facet normal 0 0 1
    outer loop
      vertex -1.30661 12.4315 2
      vertex -15 15 2
      vertex -3.86271 11.8882 2
    endloop
  endfacet
  facet normal -0 0 1
    outer loop
      vertex -15 15 2
      vertex -1.30661 12.4315 2
      vertex 15 15 2
    endloop
  endfacet
  facet normal -0 0 1
    outer loop
      vertex 12.2268 -2.5989 2
      vertex 15 -15 2
      vertex 12.5 0 2
    endloop
  endfacet
  facet normal -0 0 1
    outer loop
      vertex 11.4193 -5.08421 2
      vertex 15 -15 2
      vertex 12.2268 -2.5989 2
    endloop
  endfacet
  facet normal -0 0 1
    outer loop
      vertex 10.1127 -7.34731 2
      vertex 15 -15 2
      vertex 11.4193 -5.08421 2
    endloop
  endfacet
  facet normal -0 0 1
    outer loop
      vertex 8.36413 -9.28931 2
      vertex 15 -15 2
      vertex 10.1127 -7.34731 2
    endloop
  endfacet
  facet normal -0 0 1
    outer loop
      vertex 6.25 -10.8253 2
      vertex 15 -15 2
      vertex 8.36413 -9.28931 2
    endloop
  endfacet
  facet normal -0 0 1
    outer loop
      vertex 3.86271 -11.8882 2
      vertex 15 -15 2
      vertex 6.25 -10.8253 2
    endloop
  endfacet
  facet normal -0 0 1
    outer loop
      vertex 1.30661 -12.4315 2
      vertex 15 -15 2
      vertex 3.86271 -11.8882 2
    endloop
  endfacet
  facet normal -0 0 1
    outer loop
      vertex -1.30661 -12.4315 2
      vertex 15 -15 2
      vertex 1.30661 -12.4315 2
    endloop
  endfacet
  facet normal 0 0 1
    outer loop
      vertex -15 -15 2
      vertex -12.5 0 2
      vertex -15 15 2
    endloop
  endfacet
  facet normal 0 0 1
    outer loop
      vertex -1.30661 -12.4315 2
      vertex -15 -15 2
      vertex 15 -15 2
    endloop
  endfacet
  facet normal 0 0 1
    outer loop
      vertex -3.86271 -11.8882 2
      vertex -15 -15 2
      vertex -1.30661 -12.4315 2
    endloop
  endfacet
  facet normal 0 0 1
    outer loop
      vertex -6.25 -10.8253 2
      vertex -15 -15 2
      vertex -3.86271 -11.8882 2
    endloop
  endfacet
  facet normal 0 0 1
    outer loop
      vertex -8.36413 -9.28931 2
      vertex -15 -15 2
      vertex -6.25 -10.8253 2
    endloop
  endfacet
  facet normal 0 0 1
    outer loop
      vertex -10.1127 -7.34731 2
      vertex -15 -15 2
      vertex -8.36413 -9.28931 2
    endloop
  endfacet
  facet normal 0 0 1
    outer loop
      vertex -11.4193 -5.08421 2
      vertex -15 -15 2
      vertex -10.1127 -7.34731 2
    endloop
  endfacet
  facet normal 0 0 1
    outer loop
      vertex -12.2268 -2.5989 2
      vertex -15 -15 2
      vertex -11.4193 -5.08421 2
    endloop
  endfacet
  facet normal 0 0 1
    outer loop
      vertex -12.5 0 2
      vertex -15 -15 2
      vertex -12.2268 -2.5989 2
    endloop
  endfacet
  facet normal 1 -0 0
    outer loop
      vertex 15 -15 2
      vertex 15 15 -62
      vertex 15 15 2
    endloop
  endfacet
  facet normal 1 0 0
    outer loop
      vertex 15 15 -62
      vertex 15 -15 2
      vertex 15 -15 -62
    endloop
  endfacet
  facet normal 0 1 -0
    outer loop
      vertex 15 15 -62
      vertex -15 15 2
      vertex 15 15 2
    endloop
  endfacet
  facet normal 0 1 0
    outer loop
      vertex -15 15 2
      vertex 15 15 -62
      vertex -15 15 -62
    endloop
  endfacet
  facet normal 0 0 -1
    outer loop
      vertex 15 -15 -62
      vertex 14 -14 -62
      vertex 15 15 -62
    endloop
  endfacet
  facet normal 0 0 -1
    outer loop
      vertex 15 -15 -62
      vertex -14 -14 -62
      vertex 14 -14 -62
    endloop
  endfacet
  facet normal -0 0 -1
    outer loop
      vertex -14 -14 -62
      vertex -15 -15 -62
      vertex -14 14 -62
    endloop
  endfacet
  facet normal 0 0 -1
    outer loop
      vertex -15 -15 -62
      vertex -14 -14 -62
      vertex 15 -15 -62
    endloop
  endfacet
  facet normal 0 0 -1
    outer loop
      vertex 14 14 -62
      vertex 15 15 -62
      vertex 14 -14 -62
    endloop
  endfacet
  facet normal 0 0 -1
    outer loop
      vertex -14 14 -62
      vertex 15 15 -62
      vertex 14 14 -62
    endloop
  endfacet
  facet normal 0 0 -1
    outer loop
      vertex -14 14 -62
      vertex -15 15 -62
      vertex 15 15 -62
    endloop
  endfacet
  facet normal 0 0 -1
    outer loop
      vertex -15 15 -62
      vertex -14 14 -62
      vertex -15 -15 -62
    endloop
  endfacet
  facet normal 0 -1 0
    outer loop
      vertex -15 -15 -62
      vertex 15 -15 2
      vertex -15 -15 2
    endloop
  endfacet
  facet normal 0 -1 -0
    outer loop
      vertex 15 -15 2
      vertex -15 -15 -62
      vertex 15 -15 -62
    endloop
  endfacet
  facet normal 1 -0 0
    outer loop
      vertex -14 -14 -1
      vertex -14 14 -62
      vertex -14 14 -1
    endloop
  endfacet
  facet normal 1 0 0
    outer loop
      vertex -14 14 -62
      vertex -14 -14 -1
      vertex -14 -14 -62
    endloop
  endfacet
  facet normal 0 0 -1
    outer loop
      vertex 14 -14 -1
      vertex 10.5 -2.5 -1
      vertex 14 14 -1
    endloop
  endfacet
  facet normal 0 0 -1
    outer loop
      vertex 7.16484 -5.44657 -1
      vertex 10.5 -2.5 -1
      vertex 14 -14 -1
    endloop
  endfacet
  facet normal -0 0 -1
    outer loop
      vertex 10.5 -2.5 -1
      vertex 8.16818 -3.779 -1
      vertex 8.59912 -2.5 -1
    endloop
  endfacet
  facet normal 0 0 -1
    outer loop
      vertex 10.5 -2.5 -1
      vertex 7.16484 -5.44657 -1
      vertex 8.16818 -3.779 -1
    endloop
  endfacet
  facet normal 0 0 -1
    outer loop
      vertex 14 -14 -1
      vertex 5.82648 -6.85946 -1
      vertex 7.16484 -5.44657 -1
    endloop
  endfacet
  facet normal 0 0 -1
    outer loop
      vertex 14 -14 -1
      vertex 4.21568 -7.95161 -1
      vertex 5.82648 -6.85946 -1
    endloop
  endfacet
  facet normal 0 0 -1
    outer loop
      vertex 14 -14 -1
      vertex 2.40775 -8.67195 -1
      vertex 4.21568 -7.95161 -1
    endloop
  endfacet
  facet normal 0 0 -1
    outer loop
      vertex 14 -14 -1
      vertex 0.487249 -8.9868 -1
      vertex 2.40775 -8.67195 -1
    endloop
  endfacet
  facet normal 0 0 -1
    outer loop
      vertex -14 -14 -1
      vertex 0.487249 -8.9868 -1
      vertex 14 -14 -1
    endloop
  endfacet
  facet normal -0 0 -1
    outer loop
      vertex 0.487249 -8.9868 -1
      vertex -14 -14 -1
      vertex -1.45604 -8.88144 -1
    endloop
  endfacet
  facet normal -0 0 -1
    outer loop
      vertex -8.94724 -0.973071 -1
      vertex -14 -14 -1
      vertex -8.94724 0.973071 -1
    endloop
  endfacet
  facet normal -0 0 -1
    outer loop
      vertex -8.52888 -2.87371 -1
      vertex -14 -14 -1
      vertex -8.94724 -0.973071 -1
    endloop
  endfacet
  facet normal -0 0 -1
    outer loop
      vertex -7.71171 -4.63998 -1
      vertex -14 -14 -1
      vertex -8.52888 -2.87371 -1
    endloop
  endfacet
  facet normal -0 0 -1
    outer loop
      vertex -6.53396 -6.18929 -1
      vertex -14 -14 -1
      vertex -7.71171 -4.63998 -1
    endloop
  endfacet
  facet normal -0 0 -1
    outer loop
      vertex -5.05068 -7.4492 -1
      vertex -14 -14 -1
      vertex -6.53396 -6.18929 -1
    endloop
  endfacet
  facet normal -0 0 -1
    outer loop
      vertex -3.33124 -8.36079 -1
      vertex -14 -14 -1
      vertex -5.05068 -7.4492 -1
    endloop
  endfacet
  facet normal -0 0 -1
    outer loop
      vertex -1.45604 -8.88144 -1
      vertex -14 -14 -1
      vertex -3.33124 -8.36079 -1
    endloop
  endfacet
  facet normal 0 0 -1
    outer loop
      vertex 10.5 2.5 -1
      vertex 14 14 -1
      vertex 10.5 -2.5 -1
    endloop
  endfacet
  facet normal 0 0 -1
    outer loop
      vertex 8.16818 3.779 -1
      vertex 10.5 2.5 -1
      vertex 8.59912 2.5 -1
    endloop
  endfacet
  facet normal 0 0 -1
    outer loop
      vertex 7.16484 5.44657 -1
      vertex 10.5 2.5 -1
      vertex 8.16818 3.779 -1
    endloop
  endfacet
  facet normal 0 0 -1
    outer loop
      vertex 10.5 2.5 -1
      vertex 7.16484 5.44657 -1
      vertex 14 14 -1
    endloop
  endfacet
  facet normal 0 0 -1
    outer loop
      vertex 5.82648 6.85946 -1
      vertex 14 14 -1
      vertex 7.16484 5.44657 -1
    endloop
  endfacet
  facet normal 0 0 -1
    outer loop
      vertex 4.21568 7.95161 -1
      vertex 14 14 -1
      vertex 5.82648 6.85946 -1
    endloop
  endfacet
  facet normal 0 0 -1
    outer loop
      vertex 2.40775 8.67195 -1
      vertex 14 14 -1
      vertex 4.21568 7.95161 -1
    endloop
  endfacet
  facet normal 0 0 -1
    outer loop
      vertex 0.487249 8.9868 -1
      vertex 14 14 -1
      vertex 2.40775 8.67195 -1
    endloop
  endfacet
  facet normal 0 0 -1
    outer loop
      vertex -14 14 -1
      vertex 0.487249 8.9868 -1
      vertex -1.45604 8.88144 -1
    endloop
  endfacet
  facet normal 0 0 -1
    outer loop
      vertex -14 14 -1
      vertex -1.45604 8.88144 -1
      vertex -3.33124 8.36079 -1
    endloop
  endfacet
  facet normal 0 0 -1
    outer loop
      vertex -14 14 -1
      vertex -8.94724 0.973071 -1
      vertex -14 -14 -1
    endloop
  endfacet
  facet normal 0 0 -1
    outer loop
      vertex 0.487249 8.9868 -1
      vertex -14 14 -1
      vertex 14 14 -1
    endloop
  endfacet
  facet normal 0 0 -1
    outer loop
      vertex -5.05068 7.4492 -1
      vertex -14 14 -1
      vertex -3.33124 8.36079 -1
    endloop
  endfacet
  facet normal 0 0 -1
    outer loop
      vertex -6.53396 6.18929 -1
      vertex -14 14 -1
      vertex -5.05068 7.4492 -1
    endloop
  endfacet
  facet normal 0 0 -1
    outer loop
      vertex -7.71171 4.63998 -1
      vertex -14 14 -1
      vertex -6.53396 6.18929 -1
    endloop
  endfacet
  facet normal 0 0 -1
    outer loop
      vertex -8.52888 2.87371 -1
      vertex -14 14 -1
      vertex -7.71171 4.63998 -1
    endloop
  endfacet
  facet normal 0 0 -1
    outer loop
      vertex -8.94724 0.973071 -1
      vertex -14 14 -1
      vertex -8.52888 2.87371 -1
    endloop
  endfacet
  facet normal -1 0 0
    outer loop
      vertex 14 -14 -62
      vertex 14 14 -1
      vertex 14 14 -62
    endloop
  endfacet
  facet normal -1 -0 0
    outer loop
      vertex 14 14 -1
      vertex 14 -14 -62
      vertex 14 -14 -1
    endloop
  endfacet
  facet normal 0 -1 0
    outer loop
      vertex -14 14 -62
      vertex 14 14 -1
      vertex -14 14 -1
    endloop
  endfacet
  facet normal 0 -1 -0
    outer loop
      vertex 14 14 -1
      vertex -14 14 -62
      vertex 14 14 -62
    endloop
  endfacet
  facet normal 0 1 -0
    outer loop
      vertex 14 -14 -62
      vertex -14 -14 -1
      vertex 14 -14 -1
    endloop
  endfacet
  facet normal 0 1 0
    outer loop
      vertex -14 -14 -1
      vertex 14 -14 -62
      vertex -14 -14 -62
    endloop
  endfacet
  facet normal 1 -0 0
    outer loop
      vertex -8.94724 -0.973071 32
      vertex -8.94724 0.973071 -1
      vertex -8.94724 0.973071 32
    endloop
  endfacet
  facet normal 1 0 0
    outer loop
      vertex -8.94724 0.973071 -1
      vertex -8.94724 -0.973071 32
      vertex -8.94724 -0.973071 -1
    endloop
  endfacet
  facet normal 0.0541389 -0.998533 0
    outer loop
      vertex -1.45604 8.88144 -1
      vertex 0.487249 8.9868 32
      vertex -1.45604 8.88144 32
    endloop
  endfacet
  facet normal 0.0541389 -0.998533 0
    outer loop
      vertex 0.487249 8.9868 32
      vertex -1.45604 8.88144 -1
      vertex 0.487249 8.9868 -1
    endloop
  endfacet
  facet normal -0.161782 0.986827 0
    outer loop
      vertex 2.40775 -8.67195 -1
      vertex 0.487249 -8.9868 32
      vertex 2.40775 -8.67195 32
    endloop
  endfacet
  facet normal -0.161782 0.986827 0
    outer loop
      vertex 0.487249 -8.9868 32
      vertex 2.40775 -8.67195 -1
      vertex 0.487249 -8.9868 -1
    endloop
  endfacet
  facet normal -0.725996 -0.687699 0
    outer loop
      vertex 7.16484 5.44657 -1
      vertex 5.82648 6.85946 32
      vertex 5.82648 6.85946 -1
    endloop
  endfacet
  facet normal -0.725996 -0.687699 0
    outer loop
      vertex 5.82648 6.85946 32
      vertex 7.16484 5.44657 -1
      vertex 7.16484 5.44657 32
    endloop
  endfacet
  facet normal -0.947653 -0.319301 -0
    outer loop
      vertex 8.59912 2.5 25.5
      vertex 8.16818 3.779 -1
      vertex 8.59912 2.5 -1
    endloop
  endfacet
  facet normal -0.947653 -0.319301 0
    outer loop
      vertex 8.16818 3.779 -1
      vertex 8.59912 2.5 25.5
      vertex 8.16818 3.779 32
    endloop
  endfacet
  facet normal -0.947653 -0.319301 -0
    outer loop
      vertex 8.78958 1.93473 32
      vertex 8.59912 2.5 25.5
      vertex 8.78958 1.93473 25.5
    endloop
  endfacet
  facet normal -0.947653 -0.319301 -1.62283e-08
    outer loop
      vertex 8.59912 2.5 25.5
      vertex 8.78958 1.93473 32
      vertex 8.16818 3.779 32
    endloop
  endfacet
  facet normal 0.647386 -0.762162 0
    outer loop
      vertex -6.53396 6.18929 -1
      vertex -5.05068 7.4492 32
      vertex -6.53396 6.18929 32
    endloop
  endfacet
  facet normal 0.647386 -0.762162 0
    outer loop
      vertex -5.05068 7.4492 32
      vertex -6.53396 6.18929 -1
      vertex -5.05068 7.4492 -1
    endloop
  endfacet
  facet normal 0.267528 -0.96355 0
    outer loop
      vertex -3.33124 8.36079 -1
      vertex -1.45604 8.88144 32
      vertex -3.33124 8.36079 32
    endloop
  endfacet
  facet normal 0.267528 -0.96355 0
    outer loop
      vertex -1.45604 8.88144 32
      vertex -3.33124 8.36079 -1
      vertex -1.45604 8.88144 -1
    endloop
  endfacet
  facet normal -0.856857 0.515554 0
    outer loop
      vertex 7.16484 -5.44657 -1
      vertex 8.16818 -3.779 32
      vertex 8.16818 -3.779 -1
    endloop
  endfacet
  facet normal -0.856857 0.515554 0
    outer loop
      vertex 8.16818 -3.779 32
      vertex 7.16484 -5.44657 -1
      vertex 7.16484 -5.44657 32
    endloop
  endfacet
  facet normal -0.856857 -0.515554 0
    outer loop
      vertex 8.16818 3.779 -1
      vertex 7.16484 5.44657 32
      vertex 7.16484 5.44657 -1
    endloop
  endfacet
  facet normal -0.856857 -0.515554 0
    outer loop
      vertex 7.16484 5.44657 32
      vertex 8.16818 3.779 -1
      vertex 8.16818 3.779 32
    endloop
  endfacet
  facet normal -0.370138 -0.928977 0
    outer loop
      vertex 2.40775 8.67195 -1
      vertex 4.21568 7.95161 32
      vertex 2.40775 8.67195 32
    endloop
  endfacet
  facet normal -0.370138 -0.928977 -0
    outer loop
      vertex 4.21568 7.95161 32
      vertex 2.40775 8.67195 -1
      vertex 4.21568 7.95161 -1
    endloop
  endfacet
  facet normal -0.161782 -0.986827 0
    outer loop
      vertex 0.487249 8.9868 -1
      vertex 2.40775 8.67195 32
      vertex 0.487249 8.9868 32
    endloop
  endfacet
  facet normal -0.161782 -0.986827 -0
    outer loop
      vertex 2.40775 8.67195 32
      vertex 0.487249 8.9868 -1
      vertex 2.40775 8.67195 -1
    endloop
  endfacet
  facet normal -0.561187 -0.827689 0
    outer loop
      vertex 4.21568 7.95161 -1
      vertex 5.82648 6.85946 32
      vertex 4.21568 7.95161 32
    endloop
  endfacet
  facet normal -0.561187 -0.827689 -0
    outer loop
      vertex 5.82648 6.85946 32
      vertex 4.21568 7.95161 -1
      vertex 5.82648 6.85946 -1
    endloop
  endfacet
  facet normal 0.907575 -0.419889 0
    outer loop
      vertex -8.52888 2.87371 32
      vertex -7.71171 4.63998 -1
      vertex -7.71171 4.63998 32
    endloop
  endfacet
  facet normal 0.907575 -0.419889 0
    outer loop
      vertex -7.71171 4.63998 -1
      vertex -8.52888 2.87371 32
      vertex -8.52888 2.87371 -1
    endloop
  endfacet
  facet normal 0.796093 -0.605174 0
    outer loop
      vertex -7.71171 4.63998 32
      vertex -6.53396 6.18929 -1
      vertex -6.53396 6.18929 32
    endloop
  endfacet
  facet normal 0.796093 -0.605174 0
    outer loop
      vertex -6.53396 6.18929 -1
      vertex -7.71171 4.63998 32
      vertex -7.71171 4.63998 -1
    endloop
  endfacet
  facet normal 0.976621 -0.21497 0
    outer loop
      vertex -8.94724 0.973071 32
      vertex -8.52888 2.87371 -1
      vertex -8.52888 2.87371 32
    endloop
  endfacet
  facet normal 0.976621 -0.21497 0
    outer loop
      vertex -8.52888 2.87371 -1
      vertex -8.94724 0.973071 32
      vertex -8.94724 0.973071 -1
    endloop
  endfacet
  facet normal 0.468408 -0.883512 0
    outer loop
      vertex -5.05068 7.4492 -1
      vertex -3.33124 8.36079 32
      vertex -5.05068 7.4492 32
    endloop
  endfacet
  facet normal 0.468408 -0.883512 0
    outer loop
      vertex -3.33124 8.36079 32
      vertex -5.05068 7.4492 -1
      vertex -3.33124 8.36079 -1
    endloop
  endfacet
  facet normal -0.947653 0.319301 0
    outer loop
      vertex 8.59912 -2.5 -1
      vertex 8.16818 -3.779 -1
      vertex 8.59912 -2.5 25.5
    endloop
  endfacet
  facet normal -0.947653 0.319301 0
    outer loop
      vertex 8.59912 -2.5 25.5
      vertex 8.78958 -1.93473 32
      vertex 8.78958 -1.93473 25.5
    endloop
  endfacet
  facet normal -0.947653 0.319301 -1.62283e-08
    outer loop
      vertex 8.59912 -2.5 25.5
      vertex 8.16818 -3.779 32
      vertex 8.78958 -1.93473 32
    endloop
  endfacet
  facet normal -0.947653 0.319301 0
    outer loop
      vertex 8.16818 -3.779 32
      vertex 8.59912 -2.5 25.5
      vertex 8.16818 -3.779 -1
    endloop
  endfacet
  facet normal 0.796093 0.605174 0
    outer loop
      vertex -6.53396 -6.18929 32
      vertex -7.71171 -4.63998 -1
      vertex -7.71171 -4.63998 32
    endloop
  endfacet
  facet normal 0.796093 0.605174 0
    outer loop
      vertex -7.71171 -4.63998 -1
      vertex -6.53396 -6.18929 32
      vertex -6.53396 -6.18929 -1
    endloop
  endfacet
  facet normal -0.725996 0.687699 0
    outer loop
      vertex 5.82648 -6.85946 -1
      vertex 7.16484 -5.44657 32
      vertex 7.16484 -5.44657 -1
    endloop
  endfacet
  facet normal -0.725996 0.687699 0
    outer loop
      vertex 7.16484 -5.44657 32
      vertex 5.82648 -6.85946 -1
      vertex 5.82648 -6.85946 32
    endloop
  endfacet
  facet normal 0.468408 0.883512 -0
    outer loop
      vertex -3.33124 -8.36079 -1
      vertex -5.05068 -7.4492 32
      vertex -3.33124 -8.36079 32
    endloop
  endfacet
  facet normal 0.468408 0.883512 0
    outer loop
      vertex -5.05068 -7.4492 32
      vertex -3.33124 -8.36079 -1
      vertex -5.05068 -7.4492 -1
    endloop
  endfacet
  facet normal 0.267528 0.96355 -0
    outer loop
      vertex -1.45604 -8.88144 -1
      vertex -3.33124 -8.36079 32
      vertex -1.45604 -8.88144 32
    endloop
  endfacet
  facet normal 0.267528 0.96355 0
    outer loop
      vertex -3.33124 -8.36079 32
      vertex -1.45604 -8.88144 -1
      vertex -3.33124 -8.36079 -1
    endloop
  endfacet
  facet normal 0.0541389 0.998533 -0
    outer loop
      vertex 0.487249 -8.9868 -1
      vertex -1.45604 -8.88144 32
      vertex 0.487249 -8.9868 32
    endloop
  endfacet
  facet normal 0.0541389 0.998533 0
    outer loop
      vertex -1.45604 -8.88144 32
      vertex 0.487249 -8.9868 -1
      vertex -1.45604 -8.88144 -1
    endloop
  endfacet
  facet normal 0.647386 0.762162 -0
    outer loop
      vertex -5.05068 -7.4492 -1
      vertex -6.53396 -6.18929 32
      vertex -5.05068 -7.4492 32
    endloop
  endfacet
  facet normal 0.647386 0.762162 0
    outer loop
      vertex -6.53396 -6.18929 32
      vertex -5.05068 -7.4492 -1
      vertex -6.53396 -6.18929 -1
    endloop
  endfacet
  facet normal 0.907575 0.419889 0
    outer loop
      vertex -7.71171 -4.63998 32
      vertex -8.52888 -2.87371 -1
      vertex -8.52888 -2.87371 32
    endloop
  endfacet
  facet normal 0.907575 0.419889 0
    outer loop
      vertex -8.52888 -2.87371 -1
      vertex -7.71171 -4.63998 32
      vertex -7.71171 -4.63998 -1
    endloop
  endfacet
  facet normal 0.976621 0.21497 0
    outer loop
      vertex -8.52888 -2.87371 32
      vertex -8.94724 -0.973071 -1
      vertex -8.94724 -0.973071 32
    endloop
  endfacet
  facet normal 0.976621 0.21497 0
    outer loop
      vertex -8.94724 -0.973071 -1
      vertex -8.52888 -2.87371 32
      vertex -8.52888 -2.87371 -1
    endloop
  endfacet
  facet normal -0.561187 0.827689 0
    outer loop
      vertex 5.82648 -6.85946 -1
      vertex 4.21568 -7.95161 32
      vertex 5.82648 -6.85946 32
    endloop
  endfacet
  facet normal -0.561187 0.827689 0
    outer loop
      vertex 4.21568 -7.95161 32
      vertex 5.82648 -6.85946 -1
      vertex 4.21568 -7.95161 -1
    endloop
  endfacet
  facet normal -0.370138 0.928977 0
    outer loop
      vertex 4.21568 -7.95161 -1
      vertex 2.40775 -8.67195 32
      vertex 4.21568 -7.95161 32
    endloop
  endfacet
  facet normal -0.370138 0.928977 0
    outer loop
      vertex 2.40775 -8.67195 32
      vertex 4.21568 -7.95161 -1
      vertex 2.40775 -8.67195 -1
    endloop
  endfacet
  facet normal -1 0 0
    outer loop
      vertex 10.5 -2.5 -1
      vertex 10.5 2.5 25.5
      vertex 10.5 2.5 -1
    endloop
  endfacet
  facet normal -1 -0 0
    outer loop
      vertex 10.5 2.5 25.5
      vertex 10.5 -2.5 -1
      vertex 10.5 -2.5 25.5
    endloop
  endfacet
  facet normal 0 1 -0
    outer loop
      vertex 10.5 -2.5 -1
      vertex 8.59912 -2.5 25.5
      vertex 10.5 -2.5 25.5
    endloop
  endfacet
  facet normal 0 1 0
    outer loop
      vertex 8.59912 -2.5 25.5
      vertex 10.5 -2.5 -1
      vertex 8.59912 -2.5 -1
    endloop
  endfacet
  facet normal 0 -1 0
    outer loop
      vertex 8.59912 2.5 -1
      vertex 10.5 2.5 25.5
      vertex 8.59912 2.5 25.5
    endloop
  endfacet
  facet normal 0 -1 -0
    outer loop
      vertex 10.5 2.5 25.5
      vertex 8.59912 2.5 -1
      vertex 10.5 2.5 -1
    endloop
  endfacet
  facet normal 0.994522 0.104529 0
    outer loop
      vertex 12.5 0 40
      vertex 12.2268 2.5989 2
      vertex 12.2268 2.5989 40
    endloop
  endfacet
  facet normal 0.994522 0.104529 0
    outer loop
      vertex 12.2268 2.5989 2
      vertex 12.5 0 40
      vertex 12.5 0 2
    endloop
  endfacet
  facet normal -0.994522 0.104529 0
    outer loop
      vertex -12.5 0 2
      vertex -12.2268 2.5989 40
      vertex -12.2268 2.5989 2
    endloop
  endfacet
  facet normal -0.994522 0.104529 0
    outer loop
      vertex -12.2268 2.5989 40
      vertex -12.5 0 2
      vertex -12.5 0 40
    endloop
  endfacet
  facet normal 0 1 -0
    outer loop
      vertex 1.30661 12.4315 2
      vertex -1.30661 12.4315 40
      vertex 1.30661 12.4315 40
    endloop
  endfacet
  facet normal 0 1 0
    outer loop
      vertex -1.30661 12.4315 40
      vertex 1.30661 12.4315 2
      vertex -1.30661 12.4315 2
    endloop
  endfacet
  facet normal 0 -1 0
    outer loop
      vertex -1.30661 -12.4315 2
      vertex 1.30661 -12.4315 40
      vertex -1.30661 -12.4315 40
    endloop
  endfacet
  facet normal 0 -1 -0
    outer loop
      vertex 1.30661 -12.4315 40
      vertex -1.30661 -12.4315 2
      vertex 1.30661 -12.4315 2
    endloop
  endfacet
  facet normal 0.587786 0.809017 -0
    outer loop
      vertex 8.36413 9.28931 2
      vertex 6.25 10.8253 40
      vertex 8.36413 9.28931 40
    endloop
  endfacet
  facet normal 0.587786 0.809017 0
    outer loop
      vertex 6.25 10.8253 40
      vertex 8.36413 9.28931 2
      vertex 6.25 10.8253 2
    endloop
  endfacet
  facet normal -0.743145 0.669131 0
    outer loop
      vertex -10.1127 7.34731 2
      vertex -8.36413 9.28931 40
      vertex -8.36413 9.28931 2
    endloop
  endfacet
  facet normal -0.743145 0.669131 0
    outer loop
      vertex -8.36413 9.28931 40
      vertex -10.1127 7.34731 2
      vertex -10.1127 7.34731 40
    endloop
  endfacet
  facet normal -0.866025 0.5 0
    outer loop
      vertex -11.4193 5.08421 2
      vertex -10.1127 7.34731 40
      vertex -10.1127 7.34731 2
    endloop
  endfacet
  facet normal -0.866025 0.5 0
    outer loop
      vertex -10.1127 7.34731 40
      vertex -11.4193 5.08421 2
      vertex -11.4193 5.08421 40
    endloop
  endfacet
  facet normal -0.406736 0.913546 0
    outer loop
      vertex -3.86271 11.8882 2
      vertex -6.25 10.8253 40
      vertex -3.86271 11.8882 40
    endloop
  endfacet
  facet normal -0.406736 0.913546 0
    outer loop
      vertex -6.25 10.8253 40
      vertex -3.86271 11.8882 2
      vertex -6.25 10.8253 2
    endloop
  endfacet
  facet normal 0.866025 -0.5 0
    outer loop
      vertex 10.1127 -7.34731 40
      vertex 11.4193 -5.08421 2
      vertex 11.4193 -5.08421 40
    endloop
  endfacet
  facet normal 0.866025 -0.5 0
    outer loop
      vertex 11.4193 -5.08421 2
      vertex 10.1127 -7.34731 40
      vertex 10.1127 -7.34731 2
    endloop
  endfacet
  facet normal 0.866025 0.5 0
    outer loop
      vertex 11.4193 5.08421 40
      vertex 10.1127 7.34731 2
      vertex 10.1127 7.34731 40
    endloop
  endfacet
  facet normal 0.866025 0.5 0
    outer loop
      vertex 10.1127 7.34731 2
      vertex 11.4193 5.08421 40
      vertex 11.4193 5.08421 2
    endloop
  endfacet
  facet normal 0.951057 0.309017 0
    outer loop
      vertex 12.2268 2.5989 40
      vertex 11.4193 5.08421 2
      vertex 11.4193 5.08421 40
    endloop
  endfacet
  facet normal 0.951057 0.309017 0
    outer loop
      vertex 11.4193 5.08421 2
      vertex 12.2268 2.5989 40
      vertex 12.2268 2.5989 2
    endloop
  endfacet
  facet normal 0.743145 0.669131 0
    outer loop
      vertex 10.1127 7.34731 40
      vertex 8.36413 9.28931 2
      vertex 8.36413 9.28931 40
    endloop
  endfacet
  facet normal 0.743145 0.669131 0
    outer loop
      vertex 8.36413 9.28931 2
      vertex 10.1127 7.34731 40
      vertex 10.1127 7.34731 2
    endloop
  endfacet
  facet normal 0.207912 0.978148 -0
    outer loop
      vertex 3.86271 11.8882 2
      vertex 1.30661 12.4315 40
      vertex 3.86271 11.8882 40
    endloop
  endfacet
  facet normal 0.207912 0.978148 0
    outer loop
      vertex 1.30661 12.4315 40
      vertex 3.86271 11.8882 2
      vertex 1.30661 12.4315 2
    endloop
  endfacet
  facet normal 0.406736 0.913546 -0
    outer loop
      vertex 6.25 10.8253 2
      vertex 3.86271 11.8882 40
      vertex 6.25 10.8253 40
    endloop
  endfacet
  facet normal 0.406736 0.913546 0
    outer loop
      vertex 3.86271 11.8882 40
      vertex 6.25 10.8253 2
      vertex 3.86271 11.8882 2
    endloop
  endfacet
  facet normal -0.951057 0.309017 0
    outer loop
      vertex -12.2268 2.5989 2
      vertex -11.4193 5.08421 40
      vertex -11.4193 5.08421 2
    endloop
  endfacet
  facet normal -0.951057 0.309017 0
    outer loop
      vertex -11.4193 5.08421 40
      vertex -12.2268 2.5989 2
      vertex -12.2268 2.5989 40
    endloop
  endfacet
  facet normal 0 0 1
    outer loop
      vertex 11.15 0 40
      vertex 12.5 0 40
      vertex 12.2268 2.5989 40
    endloop
  endfacet
  facet normal 0 0 1
    outer loop
      vertex 10.9063 2.31821 40
      vertex 12.2268 2.5989 40
      vertex 11.4193 5.08421 40
    endloop
  endfacet
  facet normal 0 0 1
    outer loop
      vertex 12.5 0 40
      vertex 11.15 0 40
      vertex 12.2268 -2.5989 40
    endloop
  endfacet
  facet normal -0 0 1
    outer loop
      vertex 10.9063 -2.31821 40
      vertex 12.2268 -2.5989 40
      vertex 11.15 0 40
    endloop
  endfacet
  facet normal 0 0 1
    outer loop
      vertex 12.2268 2.5989 40
      vertex 10.9063 2.31821 40
      vertex 11.15 0 40
    endloop
  endfacet
  facet normal 0 0 1
    outer loop
      vertex 11.4193 5.08421 40
      vertex 10.186 4.53511 40
      vertex 10.9063 2.31821 40
    endloop
  endfacet
  facet normal 0 0 1
    outer loop
      vertex 10.1127 7.34731 40
      vertex 10.186 4.53511 40
      vertex 11.4193 5.08421 40
    endloop
  endfacet
  facet normal 0 0 1
    outer loop
      vertex 10.1127 7.34731 40
      vertex 9.02054 6.55381 40
      vertex 10.186 4.53511 40
    endloop
  endfacet
  facet normal 0 0 1
    outer loop
      vertex 8.36413 9.28931 40
      vertex 9.02054 6.55381 40
      vertex 10.1127 7.34731 40
    endloop
  endfacet
  facet normal 0 0 1
    outer loop
      vertex 8.36413 9.28931 40
      vertex 7.46081 8.28606 40
      vertex 9.02054 6.55381 40
    endloop
  endfacet
  facet normal 0 0 1
    outer loop
      vertex 6.25 10.8253 40
      vertex 7.46081 8.28606 40
      vertex 8.36413 9.28931 40
    endloop
  endfacet
  facet normal 0 0 1
    outer loop
      vertex 6.25 10.8253 40
      vertex 5.575 9.65618 40
      vertex 7.46081 8.28606 40
    endloop
  endfacet
  facet normal 0 0 1
    outer loop
      vertex 3.86271 11.8882 40
      vertex 5.575 9.65618 40
      vertex 6.25 10.8253 40
    endloop
  endfacet
  facet normal 0 0 1
    outer loop
      vertex 3.86271 11.8882 40
      vertex 3.44554 10.6043 40
      vertex 5.575 9.65618 40
    endloop
  endfacet
  facet normal 0 0 1
    outer loop
      vertex 1.30661 12.4315 40
      vertex 3.44554 10.6043 40
      vertex 3.86271 11.8882 40
    endloop
  endfacet
  facet normal 0 0 1
    outer loop
      vertex 1.30661 12.4315 40
      vertex 1.16549 11.0889 40
      vertex 3.44554 10.6043 40
    endloop
  endfacet
  facet normal 0 0 1
    outer loop
      vertex 1.30661 12.4315 40
      vertex -1.16549 11.0889 40
      vertex 1.16549 11.0889 40
    endloop
  endfacet
  facet normal -0 0 1
    outer loop
      vertex -1.30661 12.4315 40
      vertex -1.16549 11.0889 40
      vertex 1.30661 12.4315 40
    endloop
  endfacet
  facet normal 0 0 1
    outer loop
      vertex -1.30661 12.4315 40
      vertex -3.44554 10.6043 40
      vertex -1.16549 11.0889 40
    endloop
  endfacet
  facet normal -0 0 1
    outer loop
      vertex -3.86271 11.8882 40
      vertex -3.44554 10.6043 40
      vertex -1.30661 12.4315 40
    endloop
  endfacet
  facet normal 0 0 1
    outer loop
      vertex -3.86271 11.8882 40
      vertex -5.575 9.65618 40
      vertex -3.44554 10.6043 40
    endloop
  endfacet
  facet normal -0 0 1
    outer loop
      vertex -6.25 10.8253 40
      vertex -5.575 9.65618 40
      vertex -3.86271 11.8882 40
    endloop
  endfacet
  facet normal 0 0 1
    outer loop
      vertex -6.25 10.8253 40
      vertex -7.46081 8.28606 40
      vertex -5.575 9.65618 40
    endloop
  endfacet
  facet normal -0 0 1
    outer loop
      vertex -8.36413 9.28931 40
      vertex -7.46081 8.28606 40
      vertex -6.25 10.8253 40
    endloop
  endfacet
  facet normal 0 0 1
    outer loop
      vertex -8.36413 9.28931 40
      vertex -9.02054 6.55381 40
      vertex -7.46081 8.28606 40
    endloop
  endfacet
  facet normal -0 0 1
    outer loop
      vertex -10.1127 7.34731 40
      vertex -9.02054 6.55381 40
      vertex -8.36413 9.28931 40
    endloop
  endfacet
  facet normal 0 0 1
    outer loop
      vertex -10.1127 7.34731 40
      vertex -10.186 4.53511 40
      vertex -9.02054 6.55381 40
    endloop
  endfacet
  facet normal -0 0 1
    outer loop
      vertex -11.4193 5.08421 40
      vertex -10.186 4.53511 40
      vertex -10.1127 7.34731 40
    endloop
  endfacet
  facet normal -0 0 1
    outer loop
      vertex -12.2268 2.5989 40
      vertex -10.9063 2.31821 40
      vertex -11.4193 5.08421 40
    endloop
  endfacet
  facet normal 0 0 1
    outer loop
      vertex -10.186 4.53511 40
      vertex -11.4193 5.08421 40
      vertex -10.9063 2.31821 40
    endloop
  endfacet
  facet normal 0 0 1
    outer loop
      vertex 12.2268 -2.5989 40
      vertex 10.9063 -2.31821 40
      vertex 11.4193 -5.08421 40
    endloop
  endfacet
  facet normal -0 0 1
    outer loop
      vertex 10.186 -4.53511 40
      vertex 11.4193 -5.08421 40
      vertex 10.9063 -2.31821 40
    endloop
  endfacet
  facet normal 0 0 1
    outer loop
      vertex 10.186 -4.53511 40
      vertex 10.1127 -7.34731 40
      vertex 11.4193 -5.08421 40
    endloop
  endfacet
  facet normal -0 0 1
    outer loop
      vertex 9.02054 -6.55381 40
      vertex 10.1127 -7.34731 40
      vertex 10.186 -4.53511 40
    endloop
  endfacet
  facet normal 0 0 1
    outer loop
      vertex 9.02054 -6.55381 40
      vertex 8.36413 -9.28931 40
      vertex 10.1127 -7.34731 40
    endloop
  endfacet
  facet normal -0 0 1
    outer loop
      vertex 7.46081 -8.28606 40
      vertex 8.36413 -9.28931 40
      vertex 9.02054 -6.55381 40
    endloop
  endfacet
  facet normal 0 0 1
    outer loop
      vertex 7.46081 -8.28606 40
      vertex 6.25 -10.8253 40
      vertex 8.36413 -9.28931 40
    endloop
  endfacet
  facet normal -0 0 1
    outer loop
      vertex 5.575 -9.65618 40
      vertex 6.25 -10.8253 40
      vertex 7.46081 -8.28606 40
    endloop
  endfacet
  facet normal 0 0 1
    outer loop
      vertex 5.575 -9.65618 40
      vertex 3.86271 -11.8882 40
      vertex 6.25 -10.8253 40
    endloop
  endfacet
  facet normal -0 0 1
    outer loop
      vertex 3.44554 -10.6043 40
      vertex 3.86271 -11.8882 40
      vertex 5.575 -9.65618 40
    endloop
  endfacet
  facet normal 0 0 1
    outer loop
      vertex 3.44554 -10.6043 40
      vertex 1.30661 -12.4315 40
      vertex 3.86271 -11.8882 40
    endloop
  endfacet
  facet normal -0 0 1
    outer loop
      vertex 1.16549 -11.0889 40
      vertex 1.30661 -12.4315 40
      vertex 3.44554 -10.6043 40
    endloop
  endfacet
  facet normal -0 0 1
    outer loop
      vertex -1.16549 -11.0889 40
      vertex 1.30661 -12.4315 40
      vertex 1.16549 -11.0889 40
    endloop
  endfacet
  facet normal 0 0 1
    outer loop
      vertex -1.16549 -11.0889 40
      vertex -1.30661 -12.4315 40
      vertex 1.30661 -12.4315 40
    endloop
  endfacet
  facet normal 0 0 1
    outer loop
      vertex -3.44554 -10.6043 40
      vertex -1.30661 -12.4315 40
      vertex -1.16549 -11.0889 40
    endloop
  endfacet
  facet normal 0 0 1
    outer loop
      vertex -3.44554 -10.6043 40
      vertex -3.86271 -11.8882 40
      vertex -1.30661 -12.4315 40
    endloop
  endfacet
  facet normal 0 0 1
    outer loop
      vertex -5.575 -9.65618 40
      vertex -3.86271 -11.8882 40
      vertex -3.44554 -10.6043 40
    endloop
  endfacet
  facet normal 0 0 1
    outer loop
      vertex -5.575 -9.65618 40
      vertex -6.25 -10.8253 40
      vertex -3.86271 -11.8882 40
    endloop
  endfacet
  facet normal 0 0 1
    outer loop
      vertex -7.46081 -8.28606 40
      vertex -6.25 -10.8253 40
      vertex -5.575 -9.65618 40
    endloop
  endfacet
  facet normal 0 0 1
    outer loop
      vertex -7.46081 -8.28606 40
      vertex -8.36413 -9.28931 40
      vertex -6.25 -10.8253 40
    endloop
  endfacet
  facet normal 0 0 1
    outer loop
      vertex -9.02054 -6.55381 40
      vertex -8.36413 -9.28931 40
      vertex -7.46081 -8.28606 40
    endloop
  endfacet
  facet normal 0 0 1
    outer loop
      vertex -9.02054 -6.55381 40
      vertex -10.1127 -7.34731 40
      vertex -8.36413 -9.28931 40
    endloop
  endfacet
  facet normal 0 0 1
    outer loop
      vertex -10.186 -4.53511 40
      vertex -10.1127 -7.34731 40
      vertex -9.02054 -6.55381 40
    endloop
  endfacet
  facet normal 0 0 1
    outer loop
      vertex -11.4193 -5.08421 40
      vertex -10.186 -4.53511 40
      vertex -10.9063 -2.31821 40
    endloop
  endfacet
  facet normal 0 0 1
    outer loop
      vertex -10.186 -4.53511 40
      vertex -11.4193 -5.08421 40
      vertex -10.1127 -7.34731 40
    endloop
  endfacet
  facet normal 0 0 1
    outer loop
      vertex -12.2268 -2.5989 40
      vertex -10.9063 -2.31821 40
      vertex -11.15 0 40
    endloop
  endfacet
  facet normal 0 0 1
    outer loop
      vertex -10.9063 2.31821 40
      vertex -12.2268 2.5989 40
      vertex -11.15 0 40
    endloop
  endfacet
  facet normal 0 0 1
    outer loop
      vertex -12.5 0 40
      vertex -11.15 0 40
      vertex -12.2268 2.5989 40
    endloop
  endfacet
  facet normal 0 0 1
    outer loop
      vertex -10.9063 -2.31821 40
      vertex -12.2268 -2.5989 40
      vertex -11.4193 -5.08421 40
    endloop
  endfacet
  facet normal 0 0 1
    outer loop
      vertex -11.15 0 40
      vertex -12.5 0 40
      vertex -12.2268 -2.5989 40
    endloop
  endfacet
  facet normal -0.587785 0.809017 0
    outer loop
      vertex -6.25 10.8253 2
      vertex -8.36413 9.28931 40
      vertex -6.25 10.8253 40
    endloop
  endfacet
  facet normal -0.587785 0.809017 0
    outer loop
      vertex -8.36413 9.28931 40
      vertex -6.25 10.8253 2
      vertex -8.36413 9.28931 2
    endloop
  endfacet
  facet normal -0.207912 0.978148 0
    outer loop
      vertex -1.30661 12.4315 2
      vertex -3.86271 11.8882 40
      vertex -1.30661 12.4315 40
    endloop
  endfacet
  facet normal -0.207912 0.978148 0
    outer loop
      vertex -3.86271 11.8882 40
      vertex -1.30661 12.4315 2
      vertex -3.86271 11.8882 2
    endloop
  endfacet
  facet normal 0.951057 -0.309017 0
    outer loop
      vertex 11.4193 -5.08421 40
      vertex 12.2268 -2.5989 2
      vertex 12.2268 -2.5989 40
    endloop
  endfacet
  facet normal 0.951057 -0.309017 0
    outer loop
      vertex 12.2268 -2.5989 2
      vertex 11.4193 -5.08421 40
      vertex 11.4193 -5.08421 2
    endloop
  endfacet
  facet normal 0.994522 -0.104529 0
    outer loop
      vertex 12.2268 -2.5989 40
      vertex 12.5 0 2
      vertex 12.5 0 40
    endloop
  endfacet
  facet normal 0.994522 -0.104529 0
    outer loop
      vertex 12.5 0 2
      vertex 12.2268 -2.5989 40
      vertex 12.2268 -2.5989 2
    endloop
  endfacet
  facet normal -0.866025 -0.5 0
    outer loop
      vertex -10.1127 -7.34731 2
      vertex -11.4193 -5.08421 40
      vertex -11.4193 -5.08421 2
    endloop
  endfacet
  facet normal -0.866025 -0.5 0
    outer loop
      vertex -11.4193 -5.08421 40
      vertex -10.1127 -7.34731 2
      vertex -10.1127 -7.34731 40
    endloop
  endfacet
  facet normal -0.994522 -0.104529 0
    outer loop
      vertex -12.2268 -2.5989 2
      vertex -12.5 0 40
      vertex -12.5 0 2
    endloop
  endfacet
  facet normal -0.994522 -0.104529 0
    outer loop
      vertex -12.5 0 40
      vertex -12.2268 -2.5989 2
      vertex -12.2268 -2.5989 40
    endloop
  endfacet
  facet normal 0.207912 -0.978148 0
    outer loop
      vertex 1.30661 -12.4315 2
      vertex 3.86271 -11.8882 40
      vertex 1.30661 -12.4315 40
    endloop
  endfacet
  facet normal 0.207912 -0.978148 0
    outer loop
      vertex 3.86271 -11.8882 40
      vertex 1.30661 -12.4315 2
      vertex 3.86271 -11.8882 2
    endloop
  endfacet
  facet normal 0.587786 -0.809017 0
    outer loop
      vertex 6.25 -10.8253 2
      vertex 8.36413 -9.28931 40
      vertex 6.25 -10.8253 40
    endloop
  endfacet
  facet normal 0.587786 -0.809017 0
    outer loop
      vertex 8.36413 -9.28931 40
      vertex 6.25 -10.8253 2
      vertex 8.36413 -9.28931 2
    endloop
  endfacet
  facet normal -0.207912 -0.978148 0
    outer loop
      vertex -3.86271 -11.8882 2
      vertex -1.30661 -12.4315 40
      vertex -3.86271 -11.8882 40
    endloop
  endfacet
  facet normal -0.207912 -0.978148 -0
    outer loop
      vertex -1.30661 -12.4315 40
      vertex -3.86271 -11.8882 2
      vertex -1.30661 -12.4315 2
    endloop
  endfacet
  facet normal -0.743145 -0.669131 0
    outer loop
      vertex -8.36413 -9.28931 2
      vertex -10.1127 -7.34731 40
      vertex -10.1127 -7.34731 2
    endloop
  endfacet
  facet normal -0.743145 -0.669131 0
    outer loop
      vertex -10.1127 -7.34731 40
      vertex -8.36413 -9.28931 2
      vertex -8.36413 -9.28931 40
    endloop
  endfacet
  facet normal -0.951057 -0.309017 0
    outer loop
      vertex -11.4193 -5.08421 2
      vertex -12.2268 -2.5989 40
      vertex -12.2268 -2.5989 2
    endloop
  endfacet
  facet normal -0.951057 -0.309017 0
    outer loop
      vertex -12.2268 -2.5989 40
      vertex -11.4193 -5.08421 2
      vertex -11.4193 -5.08421 40
    endloop
  endfacet
  facet normal 0.406736 -0.913546 0
    outer loop
      vertex 3.86271 -11.8882 2
      vertex 6.25 -10.8253 40
      vertex 3.86271 -11.8882 40
    endloop
  endfacet
  facet normal 0.406736 -0.913546 0
    outer loop
      vertex 6.25 -10.8253 40
      vertex 3.86271 -11.8882 2
      vertex 6.25 -10.8253 2
    endloop
  endfacet
  facet normal 0.743145 -0.669131 0
    outer loop
      vertex 8.36413 -9.28931 40
      vertex 10.1127 -7.34731 2
      vertex 10.1127 -7.34731 40
    endloop
  endfacet
  facet normal 0.743145 -0.669131 0
    outer loop
      vertex 10.1127 -7.34731 2
      vertex 8.36413 -9.28931 40
      vertex 8.36413 -9.28931 2
    endloop
  endfacet
  facet normal -0.406736 -0.913546 0
    outer loop
      vertex -6.25 -10.8253 2
      vertex -3.86271 -11.8882 40
      vertex -6.25 -10.8253 40
    endloop
  endfacet
  facet normal -0.406736 -0.913546 -0
    outer loop
      vertex -3.86271 -11.8882 40
      vertex -6.25 -10.8253 2
      vertex -3.86271 -11.8882 2
    endloop
  endfacet
  facet normal -0.587786 -0.809017 0
    outer loop
      vertex -8.36413 -9.28931 2
      vertex -6.25 -10.8253 40
      vertex -8.36413 -9.28931 40
    endloop
  endfacet
  facet normal -0.587786 -0.809017 -0
    outer loop
      vertex -6.25 -10.8253 40
      vertex -8.36413 -9.28931 2
      vertex -6.25 -10.8253 2
    endloop
  endfacet
  facet normal -0.994522 -0.104529 0
    outer loop
      vertex 11.15 0 32
      vertex 10.9063 2.31821 40
      vertex 10.9063 2.31821 32
    endloop
  endfacet
  facet normal -0.994522 -0.104529 0
    outer loop
      vertex 10.9063 2.31821 40
      vertex 11.15 0 32
      vertex 11.15 0 40
    endloop
  endfacet
  facet normal 0.994522 -0.104529 0
    outer loop
      vertex -11.15 0 40
      vertex -10.9063 2.31821 32
      vertex -10.9063 2.31821 40
    endloop
  endfacet
  facet normal 0.994522 -0.104529 0
    outer loop
      vertex -10.9063 2.31821 32
      vertex -11.15 0 40
      vertex -11.15 0 32
    endloop
  endfacet
  facet normal 0 -1 0
    outer loop
      vertex -1.16549 11.0889 32
      vertex 1.16549 11.0889 40
      vertex -1.16549 11.0889 40
    endloop
  endfacet
  facet normal 0 -1 -0
    outer loop
      vertex 1.16549 11.0889 40
      vertex -1.16549 11.0889 32
      vertex 1.16549 11.0889 32
    endloop
  endfacet
  facet normal 0 1 -0
    outer loop
      vertex 1.16549 -11.0889 32
      vertex -1.16549 -11.0889 40
      vertex 1.16549 -11.0889 40
    endloop
  endfacet
  facet normal 0 1 0
    outer loop
      vertex -1.16549 -11.0889 40
      vertex 1.16549 -11.0889 32
      vertex -1.16549 -11.0889 32
    endloop
  endfacet
  facet normal -0.587785 -0.809017 0
    outer loop
      vertex 5.575 9.65618 32
      vertex 7.46081 8.28606 40
      vertex 5.575 9.65618 40
    endloop
  endfacet
  facet normal -0.587785 -0.809017 -0
    outer loop
      vertex 7.46081 8.28606 40
      vertex 5.575 9.65618 32
      vertex 7.46081 8.28606 32
    endloop
  endfacet
  facet normal 0.743145 -0.669131 0
    outer loop
      vertex -9.02054 6.55381 40
      vertex -7.46081 8.28606 32
      vertex -7.46081 8.28606 40
    endloop
  endfacet
  facet normal 0.743145 -0.669131 0
    outer loop
      vertex -7.46081 8.28606 32
      vertex -9.02054 6.55381 40
      vertex -9.02054 6.55381 32
    endloop
  endfacet
  facet normal 0.866025 -0.5 0
    outer loop
      vertex -10.186 4.53511 40
      vertex -9.02054 6.55381 32
      vertex -9.02054 6.55381 40
    endloop
  endfacet
  facet normal 0.866025 -0.5 0
    outer loop
      vertex -9.02054 6.55381 32
      vertex -10.186 4.53511 40
      vertex -10.186 4.53511 32
    endloop
  endfacet
  facet normal 0.406736 -0.913546 0
    outer loop
      vertex -5.575 9.65618 32
      vertex -3.44554 10.6043 40
      vertex -5.575 9.65618 40
    endloop
  endfacet
  facet normal 0.406736 -0.913546 0
    outer loop
      vertex -3.44554 10.6043 40
      vertex -5.575 9.65618 32
      vertex -3.44554 10.6043 32
    endloop
  endfacet
  facet normal -0.866025 -0.5 0
    outer loop
      vertex 10.186 4.53511 32
      vertex 9.02054 6.55381 40
      vertex 9.02054 6.55381 32
    endloop
  endfacet
  facet normal -0.866025 -0.5 0
    outer loop
      vertex 9.02054 6.55381 40
      vertex 10.186 4.53511 32
      vertex 10.186 4.53511 40
    endloop
  endfacet
  facet normal -0.951057 -0.309017 0
    outer loop
      vertex 10.9063 2.31821 32
      vertex 10.186 4.53511 40
      vertex 10.186 4.53511 32
    endloop
  endfacet
  facet normal -0.951057 -0.309017 0
    outer loop
      vertex 10.186 4.53511 40
      vertex 10.9063 2.31821 32
      vertex 10.9063 2.31821 40
    endloop
  endfacet
  facet normal -0.743145 -0.669131 0
    outer loop
      vertex 9.02054 6.55381 32
      vertex 7.46081 8.28606 40
      vertex 7.46081 8.28606 32
    endloop
  endfacet
  facet normal -0.743145 -0.669131 0
    outer loop
      vertex 7.46081 8.28606 40
      vertex 9.02054 6.55381 32
      vertex 9.02054 6.55381 40
    endloop
  endfacet
  facet normal -0.207912 -0.978148 0
    outer loop
      vertex 1.16549 11.0889 32
      vertex 3.44554 10.6043 40
      vertex 1.16549 11.0889 40
    endloop
  endfacet
  facet normal -0.207912 -0.978148 -0
    outer loop
      vertex 3.44554 10.6043 40
      vertex 1.16549 11.0889 32
      vertex 3.44554 10.6043 32
    endloop
  endfacet
  facet normal -0.406736 -0.913546 0
    outer loop
      vertex 3.44554 10.6043 32
      vertex 5.575 9.65618 40
      vertex 3.44554 10.6043 40
    endloop
  endfacet
  facet normal -0.406736 -0.913546 -0
    outer loop
      vertex 5.575 9.65618 40
      vertex 3.44554 10.6043 32
      vertex 5.575 9.65618 32
    endloop
  endfacet
  facet normal 0.951057 -0.309017 0
    outer loop
      vertex -10.9063 2.31821 40
      vertex -10.186 4.53511 32
      vertex -10.186 4.53511 40
    endloop
  endfacet
  facet normal 0.951057 -0.309017 0
    outer loop
      vertex -10.186 4.53511 32
      vertex -10.9063 2.31821 40
      vertex -10.9063 2.31821 32
    endloop
  endfacet
  facet normal 0.587785 -0.809017 0
    outer loop
      vertex -7.46081 8.28606 32
      vertex -5.575 9.65618 40
      vertex -7.46081 8.28606 40
    endloop
  endfacet
  facet normal 0.587785 -0.809017 0
    outer loop
      vertex -5.575 9.65618 40
      vertex -7.46081 8.28606 32
      vertex -5.575 9.65618 32
    endloop
  endfacet
  facet normal 0.207912 -0.978148 0
    outer loop
      vertex -3.44554 10.6043 32
      vertex -1.16549 11.0889 40
      vertex -3.44554 10.6043 40
    endloop
  endfacet
  facet normal 0.207912 -0.978148 0
    outer loop
      vertex -1.16549 11.0889 40
      vertex -3.44554 10.6043 32
      vertex -1.16549 11.0889 32
    endloop
  endfacet
  facet normal -0.994522 0.104529 0
    outer loop
      vertex 10.9063 -2.31821 32
      vertex 11.15 0 40
      vertex 11.15 0 32
    endloop
  endfacet
  facet normal -0.994522 0.104529 0
    outer loop
      vertex 11.15 0 40
      vertex 10.9063 -2.31821 32
      vertex 10.9063 -2.31821 40
    endloop
  endfacet
  facet normal 0 0 1
    outer loop
      vertex 9 0 32
      vertex 11.15 0 32
      vertex 10.9063 2.31821 32
    endloop
  endfacet
  facet normal 0 0 1
    outer loop
      vertex 8.78958 1.93473 32
      vertex 10.9063 2.31821 32
      vertex 10.186 4.53511 32
    endloop
  endfacet
  facet normal 0 0 1
    outer loop
      vertex 11.15 0 32
      vertex 9 0 32
      vertex 10.9063 -2.31821 32
    endloop
  endfacet
  facet normal 0 0 1
    outer loop
      vertex 8.16818 3.779 32
      vertex 10.186 4.53511 32
      vertex 9.02054 6.55381 32
    endloop
  endfacet
  facet normal -0 0 1
    outer loop
      vertex 8.78958 -1.93473 32
      vertex 10.9063 -2.31821 32
      vertex 9 0 32
    endloop
  endfacet
  facet normal 0 0 1
    outer loop
      vertex 10.9063 -2.31821 32
      vertex 8.78958 -1.93473 32
      vertex 10.186 -4.53511 32
    endloop
  endfacet
  facet normal 0 0 1
    outer loop
      vertex 10.9063 2.31821 32
      vertex 8.78958 1.93473 32
      vertex 9 0 32
    endloop
  endfacet
  facet normal 0 0 1
    outer loop
      vertex 10.186 4.53511 32
      vertex 8.16818 3.779 32
      vertex 8.78958 1.93473 32
    endloop
  endfacet
  facet normal 0 0 1
    outer loop
      vertex 7.16484 5.44657 32
      vertex 9.02054 6.55381 32
      vertex 7.46081 8.28606 32
    endloop
  endfacet
  facet normal 0 0 1
    outer loop
      vertex 9.02054 6.55381 32
      vertex 7.16484 5.44657 32
      vertex 8.16818 3.779 32
    endloop
  endfacet
  facet normal 0 0 1
    outer loop
      vertex 7.46081 8.28606 32
      vertex 5.82648 6.85946 32
      vertex 7.16484 5.44657 32
    endloop
  endfacet
  facet normal 0 0 1
    outer loop
      vertex 5.575 9.65618 32
      vertex 5.82648 6.85946 32
      vertex 7.46081 8.28606 32
    endloop
  endfacet
  facet normal 0 0 1
    outer loop
      vertex 5.575 9.65618 32
      vertex 4.21568 7.95161 32
      vertex 5.82648 6.85946 32
    endloop
  endfacet
  facet normal 0 0 1
    outer loop
      vertex 3.44554 10.6043 32
      vertex 4.21568 7.95161 32
      vertex 5.575 9.65618 32
    endloop
  endfacet
  facet normal 0 0 1
    outer loop
      vertex 3.44554 10.6043 32
      vertex 2.40775 8.67195 32
      vertex 4.21568 7.95161 32
    endloop
  endfacet
  facet normal 0 0 1
    outer loop
      vertex 1.16549 11.0889 32
      vertex 2.40775 8.67195 32
      vertex 3.44554 10.6043 32
    endloop
  endfacet
  facet normal 0 0 1
    outer loop
      vertex 1.16549 11.0889 32
      vertex 0.487249 8.9868 32
      vertex 2.40775 8.67195 32
    endloop
  endfacet
  facet normal -0 0 1
    outer loop
      vertex -1.16549 11.0889 32
      vertex 0.487249 8.9868 32
      vertex 1.16549 11.0889 32
    endloop
  endfacet
  facet normal 0 0 1
    outer loop
      vertex -1.16549 11.0889 32
      vertex -1.45604 8.88144 32
      vertex 0.487249 8.9868 32
    endloop
  endfacet
  facet normal -0 0 1
    outer loop
      vertex -3.44554 10.6043 32
      vertex -1.45604 8.88144 32
      vertex -1.16549 11.0889 32
    endloop
  endfacet
  facet normal 0 0 1
    outer loop
      vertex -1.45604 8.88144 32
      vertex -3.44554 10.6043 32
      vertex -3.33124 8.36079 32
    endloop
  endfacet
  facet normal -0 0 1
    outer loop
      vertex -5.575 9.65618 32
      vertex -3.33124 8.36079 32
      vertex -3.44554 10.6043 32
    endloop
  endfacet
  facet normal 0 0 1
    outer loop
      vertex -3.33124 8.36079 32
      vertex -5.575 9.65618 32
      vertex -5.05068 7.4492 32
    endloop
  endfacet
  facet normal -0 0 1
    outer loop
      vertex -7.46081 8.28606 32
      vertex -5.05068 7.4492 32
      vertex -5.575 9.65618 32
    endloop
  endfacet
  facet normal 0 0 1
    outer loop
      vertex -5.05068 7.4492 32
      vertex -7.46081 8.28606 32
      vertex -6.53396 6.18929 32
    endloop
  endfacet
  facet normal -0 0 1
    outer loop
      vertex -9.02054 6.55381 32
      vertex -6.53396 6.18929 32
      vertex -7.46081 8.28606 32
    endloop
  endfacet
  facet normal 0 0 1
    outer loop
      vertex -6.53396 6.18929 32
      vertex -9.02054 6.55381 32
      vertex -7.71171 4.63998 32
    endloop
  endfacet
  facet normal 0 0 1
    outer loop
      vertex -10.186 4.53511 32
      vertex -7.71171 4.63998 32
      vertex -9.02054 6.55381 32
    endloop
  endfacet
  facet normal 0 0 1
    outer loop
      vertex -10.9063 2.31821 32
      vertex -8.52888 2.87371 32
      vertex -10.186 4.53511 32
    endloop
  endfacet
  facet normal 0 0 1
    outer loop
      vertex -7.71171 4.63998 32
      vertex -10.186 4.53511 32
      vertex -8.52888 2.87371 32
    endloop
  endfacet
  facet normal -0 0 1
    outer loop
      vertex 8.16818 -3.779 32
      vertex 10.186 -4.53511 32
      vertex 8.78958 -1.93473 32
    endloop
  endfacet
  facet normal 0 0 1
    outer loop
      vertex 10.186 -4.53511 32
      vertex 8.16818 -3.779 32
      vertex 9.02054 -6.55381 32
    endloop
  endfacet
  facet normal -0 0 1
    outer loop
      vertex 7.16484 -5.44657 32
      vertex 9.02054 -6.55381 32
      vertex 8.16818 -3.779 32
    endloop
  endfacet
  facet normal 0 0 1
    outer loop
      vertex 9.02054 -6.55381 32
      vertex 7.16484 -5.44657 32
      vertex 7.46081 -8.28606 32
    endloop
  endfacet
  facet normal -0 0 1
    outer loop
      vertex 5.82648 -6.85946 32
      vertex 7.46081 -8.28606 32
      vertex 7.16484 -5.44657 32
    endloop
  endfacet
  facet normal 0 0 1
    outer loop
      vertex 5.82648 -6.85946 32
      vertex 5.575 -9.65618 32
      vertex 7.46081 -8.28606 32
    endloop
  endfacet
  facet normal -0 0 1
    outer loop
      vertex 4.21568 -7.95161 32
      vertex 5.575 -9.65618 32
      vertex 5.82648 -6.85946 32
    endloop
  endfacet
  facet normal 0 0 1
    outer loop
      vertex 4.21568 -7.95161 32
      vertex 3.44554 -10.6043 32
      vertex 5.575 -9.65618 32
    endloop
  endfacet
  facet normal -0 0 1
    outer loop
      vertex 2.40775 -8.67195 32
      vertex 3.44554 -10.6043 32
      vertex 4.21568 -7.95161 32
    endloop
  endfacet
  facet normal 0 0 1
    outer loop
      vertex 2.40775 -8.67195 32
      vertex 1.16549 -11.0889 32
      vertex 3.44554 -10.6043 32
    endloop
  endfacet
  facet normal -0 0 1
    outer loop
      vertex 0.487249 -8.9868 32
      vertex 1.16549 -11.0889 32
      vertex 2.40775 -8.67195 32
    endloop
  endfacet
  facet normal 0 0 1
    outer loop
      vertex 0.487249 -8.9868 32
      vertex -1.16549 -11.0889 32
      vertex 1.16549 -11.0889 32
    endloop
  endfacet
  facet normal 0 0 1
    outer loop
      vertex -1.45604 -8.88144 32
      vertex -1.16549 -11.0889 32
      vertex 0.487249 -8.9868 32
    endloop
  endfacet
  facet normal 0 0 1
    outer loop
      vertex -3.44554 -10.6043 32
      vertex -1.45604 -8.88144 32
      vertex -3.33124 -8.36079 32
    endloop
  endfacet
  facet normal 0 0 1
    outer loop
      vertex -1.45604 -8.88144 32
      vertex -3.44554 -10.6043 32
      vertex -1.16549 -11.0889 32
    endloop
  endfacet
  facet normal 0 0 1
    outer loop
      vertex -5.575 -9.65618 32
      vertex -3.33124 -8.36079 32
      vertex -5.05068 -7.4492 32
    endloop
  endfacet
  facet normal 0 0 1
    outer loop
      vertex -3.33124 -8.36079 32
      vertex -5.575 -9.65618 32
      vertex -3.44554 -10.6043 32
    endloop
  endfacet
  facet normal 0 0 1
    outer loop
      vertex -7.46081 -8.28606 32
      vertex -5.05068 -7.4492 32
      vertex -6.53396 -6.18929 32
    endloop
  endfacet
  facet normal 0 0 1
    outer loop
      vertex -5.05068 -7.4492 32
      vertex -7.46081 -8.28606 32
      vertex -5.575 -9.65618 32
    endloop
  endfacet
  facet normal 0 0 1
    outer loop
      vertex -9.02054 -6.55381 32
      vertex -6.53396 -6.18929 32
      vertex -7.71171 -4.63998 32
    endloop
  endfacet
  facet normal -0 0 1
    outer loop
      vertex -10.186 -4.53511 32
      vertex -7.71171 -4.63998 32
      vertex -8.52888 -2.87371 32
    endloop
  endfacet
  facet normal -0 0 1
    outer loop
      vertex -10.9063 -2.31821 32
      vertex -8.52888 -2.87371 32
      vertex -8.94724 -0.973071 32
    endloop
  endfacet
  facet normal 0 0 1
    outer loop
      vertex -6.53396 -6.18929 32
      vertex -9.02054 -6.55381 32
      vertex -7.46081 -8.28606 32
    endloop
  endfacet
  facet normal 0 0 1
    outer loop
      vertex -8.52888 2.87371 32
      vertex -10.9063 2.31821 32
      vertex -8.94724 0.973071 32
    endloop
  endfacet
  facet normal 0 0 1
    outer loop
      vertex -11.15 0 32
      vertex -8.94724 0.973071 32
      vertex -10.9063 2.31821 32
    endloop
  endfacet
  facet normal 0 0 1
    outer loop
      vertex -7.71171 -4.63998 32
      vertex -10.186 -4.53511 32
      vertex -9.02054 -6.55381 32
    endloop
  endfacet
  facet normal 0 0 1
    outer loop
      vertex -8.94724 0.973071 32
      vertex -11.15 0 32
      vertex -8.94724 -0.973071 32
    endloop
  endfacet
  facet normal 0 0 1
    outer loop
      vertex -8.52888 -2.87371 32
      vertex -10.9063 -2.31821 32
      vertex -10.186 -4.53511 32
    endloop
  endfacet
  facet normal 0 0 1
    outer loop
      vertex -8.94724 -0.973071 32
      vertex -11.15 0 32
      vertex -10.9063 -2.31821 32
    endloop
  endfacet
  facet normal -0.743145 0.669131 0
    outer loop
      vertex 7.46081 -8.28606 32
      vertex 9.02054 -6.55381 40
      vertex 9.02054 -6.55381 32
    endloop
  endfacet
  facet normal -0.743145 0.669131 0
    outer loop
      vertex 9.02054 -6.55381 40
      vertex 7.46081 -8.28606 32
      vertex 7.46081 -8.28606 40
    endloop
  endfacet
  facet normal -0.951057 0.309017 0
    outer loop
      vertex 10.186 -4.53511 32
      vertex 10.9063 -2.31821 40
      vertex 10.9063 -2.31821 32
    endloop
  endfacet
  facet normal -0.951057 0.309017 0
    outer loop
      vertex 10.9063 -2.31821 40
      vertex 10.186 -4.53511 32
      vertex 10.186 -4.53511 40
    endloop
  endfacet
  facet normal -0.866025 0.5 0
    outer loop
      vertex 9.02054 -6.55381 32
      vertex 10.186 -4.53511 40
      vertex 10.186 -4.53511 32
    endloop
  endfacet
  facet normal -0.866025 0.5 0
    outer loop
      vertex 10.186 -4.53511 40
      vertex 9.02054 -6.55381 32
      vertex 9.02054 -6.55381 40
    endloop
  endfacet
  facet normal 0.866025 0.5 0
    outer loop
      vertex -9.02054 -6.55381 40
      vertex -10.186 -4.53511 32
      vertex -10.186 -4.53511 40
    endloop
  endfacet
  facet normal 0.866025 0.5 0
    outer loop
      vertex -10.186 -4.53511 32
      vertex -9.02054 -6.55381 40
      vertex -9.02054 -6.55381 32
    endloop
  endfacet
  facet normal -0.587785 0.809017 0
    outer loop
      vertex 7.46081 -8.28606 32
      vertex 5.575 -9.65618 40
      vertex 7.46081 -8.28606 40
    endloop
  endfacet
  facet normal -0.587785 0.809017 0
    outer loop
      vertex 5.575 -9.65618 40
      vertex 7.46081 -8.28606 32
      vertex 5.575 -9.65618 32
    endloop
  endfacet
  facet normal 0.207912 0.978148 -0
    outer loop
      vertex -1.16549 -11.0889 32
      vertex -3.44554 -10.6043 40
      vertex -1.16549 -11.0889 40
    endloop
  endfacet
  facet normal 0.207912 0.978148 0
    outer loop
      vertex -3.44554 -10.6043 40
      vertex -1.16549 -11.0889 32
      vertex -3.44554 -10.6043 32
    endloop
  endfacet
  facet normal 0.406736 0.913546 -0
    outer loop
      vertex -3.44554 -10.6043 32
      vertex -5.575 -9.65618 40
      vertex -3.44554 -10.6043 40
    endloop
  endfacet
  facet normal 0.406736 0.913546 0
    outer loop
      vertex -5.575 -9.65618 40
      vertex -3.44554 -10.6043 32
      vertex -5.575 -9.65618 32
    endloop
  endfacet
  facet normal 0.743145 0.669131 0
    outer loop
      vertex -7.46081 -8.28606 40
      vertex -9.02054 -6.55381 32
      vertex -9.02054 -6.55381 40
    endloop
  endfacet
  facet normal 0.743145 0.669131 0
    outer loop
      vertex -9.02054 -6.55381 32
      vertex -7.46081 -8.28606 40
      vertex -7.46081 -8.28606 32
    endloop
  endfacet
  facet normal 0.951057 0.309017 0
    outer loop
      vertex -10.186 -4.53511 40
      vertex -10.9063 -2.31821 32
      vertex -10.9063 -2.31821 40
    endloop
  endfacet
  facet normal 0.951057 0.309017 0
    outer loop
      vertex -10.9063 -2.31821 32
      vertex -10.186 -4.53511 40
      vertex -10.186 -4.53511 32
    endloop
  endfacet
  facet normal 0.994522 0.104529 0
    outer loop
      vertex -10.9063 -2.31821 40
      vertex -11.15 0 32
      vertex -11.15 0 40
    endloop
  endfacet
  facet normal 0.994522 0.104529 0
    outer loop
      vertex -11.15 0 32
      vertex -10.9063 -2.31821 40
      vertex -10.9063 -2.31821 32
    endloop
  endfacet
  facet normal -0.406736 0.913546 0
    outer loop
      vertex 5.575 -9.65618 32
      vertex 3.44554 -10.6043 40
      vertex 5.575 -9.65618 40
    endloop
  endfacet
  facet normal -0.406736 0.913546 0
    outer loop
      vertex 3.44554 -10.6043 40
      vertex 5.575 -9.65618 32
      vertex 3.44554 -10.6043 32
    endloop
  endfacet
  facet normal -0.207912 0.978148 0
    outer loop
      vertex 3.44554 -10.6043 32
      vertex 1.16549 -11.0889 40
      vertex 3.44554 -10.6043 40
    endloop
  endfacet
  facet normal -0.207912 0.978148 0
    outer loop
      vertex 1.16549 -11.0889 40
      vertex 3.44554 -10.6043 32
      vertex 1.16549 -11.0889 32
    endloop
  endfacet
  facet normal 0.587785 0.809017 -0
    outer loop
      vertex -5.575 -9.65618 32
      vertex -7.46081 -8.28606 40
      vertex -5.575 -9.65618 40
    endloop
  endfacet
  facet normal 0.587785 0.809017 0
    outer loop
      vertex -7.46081 -8.28606 40
      vertex -5.575 -9.65618 32
      vertex -7.46081 -8.28606 32
    endloop
  endfacet
  facet normal -0.994138 -0.108119 0
    outer loop
      vertex 9 0 25.5
      vertex 8.78958 1.93473 32
      vertex 8.78958 1.93473 25.5
    endloop
  endfacet
  facet normal -0.994138 -0.108119 0
    outer loop
      vertex 8.78958 1.93473 32
      vertex 9 0 25.5
      vertex 9 0 32
    endloop
  endfacet
  facet normal -0.994138 0.108119 0
    outer loop
      vertex 8.78958 -1.93473 25.5
      vertex 9 0 32
      vertex 9 0 25.5
    endloop
  endfacet
  facet normal -0.994138 0.108119 0
    outer loop
      vertex 9 0 32
      vertex 8.78958 -1.93473 25.5
      vertex 8.78958 -1.93473 32
    endloop
  endfacet
  facet normal 0 0 -1
    outer loop
      vertex 10.5 -2.5 25.5
      vertex 9 0 25.5
      vertex 10.5 2.5 25.5
    endloop
  endfacet
  facet normal 0 0 -1
    outer loop
      vertex 10.5 -2.5 25.5
      vertex 8.78958 -1.93473 25.5
      vertex 9 0 25.5
    endloop
  endfacet
  facet normal 0 -0 -1
    outer loop
      vertex 8.78958 -1.93473 25.5
      vertex 10.5 -2.5 25.5
      vertex 8.59912 -2.5 25.5
    endloop
  endfacet
  facet normal 0 0 -1
    outer loop
      vertex 8.78958 1.93473 25.5
      vertex 10.5 2.5 25.5
      vertex 9 0 25.5
    endloop
  endfacet
  facet normal -0 0 -1
    outer loop
      vertex 10.5 2.5 25.5
      vertex 8.78958 1.93473 25.5
      vertex 8.59912 2.5 25.5
    endloop
  endfacet
endsolid OpenSCAD_Model
