solid OpenSCAD_Model
  facet normal 0.994522 0.104529 0
    outer loop
      vertex 12 0 80
      vertex 11.7378 2.49494 0
      vertex 11.7378 2.49494 80
    endloop
  endfacet
  facet normal 0.994522 0.104529 0
    outer loop
      vertex 11.7378 2.49494 0
      vertex 12 0 80
      vertex 12 0 0
    endloop
  endfacet
  facet normal -0.994522 0.104529 0
    outer loop
      vertex -12 0 0
      vertex -11.7378 2.49494 80
      vertex -11.7378 2.49494 0
    endloop
  endfacet
  facet normal -0.994522 0.104529 0
    outer loop
      vertex -11.7378 2.49494 80
      vertex -12 0 0
      vertex -12 0 80
    endloop
  endfacet
  facet normal 0 1 -0
    outer loop
      vertex 1.25434 11.9343 0
      vertex -1.25434 11.9343 80
      vertex 1.25434 11.9343 80
    endloop
  endfacet
  facet normal 0 1 0
    outer loop
      vertex -1.25434 11.9343 80
      vertex 1.25434 11.9343 0
      vertex -1.25434 11.9343 0
    endloop
  endfacet
  facet normal 0 -1 0
    outer loop
      vertex -1.25434 -11.9343 0
      vertex 1.25434 -11.9343 80
      vertex -1.25434 -11.9343 80
    endloop
  endfacet
  facet normal 0 -1 -0
    outer loop
      vertex 1.25434 -11.9343 80
      vertex -1.25434 -11.9343 0
      vertex 1.25434 -11.9343 0
    endloop
  endfacet
  facet normal 0.587785 0.809017 -0
    outer loop
      vertex 8.02957 8.91774 0
      vertex 6 10.3923 80
      vertex 8.02957 8.91774 80
    endloop
  endfacet
  facet normal 0.587785 0.809017 0
    outer loop
      vertex 6 10.3923 80
      vertex 8.02957 8.91774 0
      vertex 6 10.3923 0
    endloop
  endfacet
  facet normal 0.406737 0.913545 -0
    outer loop
      vertex 6 10.3923 0
      vertex 3.7082 11.4127 80
      vertex 6 10.3923 80
    endloop
  endfacet
  facet normal 0.406737 0.913545 0
    outer loop
      vertex 3.7082 11.4127 80
      vertex 6 10.3923 0
      vertex 3.7082 11.4127 0
    endloop
  endfacet
  facet normal -0.743145 0.669131 0
    outer loop
      vertex -9.7082 7.05342 0
      vertex -8.02957 8.91774 80
      vertex -8.02957 8.91774 0
    endloop
  endfacet
  facet normal -0.743145 0.669131 0
    outer loop
      vertex -8.02957 8.91774 80
      vertex -9.7082 7.05342 0
      vertex -9.7082 7.05342 80
    endloop
  endfacet
  facet normal -0.866025 0.5 0
    outer loop
      vertex -10.9625 4.88084 0
      vertex -9.7082 7.05342 80
      vertex -9.7082 7.05342 0
    endloop
  endfacet
  facet normal -0.866025 0.5 0
    outer loop
      vertex -9.7082 7.05342 80
      vertex -10.9625 4.88084 0
      vertex -10.9625 4.88084 80
    endloop
  endfacet
  facet normal -0.406737 0.913545 0
    outer loop
      vertex -3.7082 11.4127 0
      vertex -6 10.3923 80
      vertex -3.7082 11.4127 80
    endloop
  endfacet
  facet normal -0.406737 0.913545 0
    outer loop
      vertex -6 10.3923 80
      vertex -3.7082 11.4127 0
      vertex -6 10.3923 0
    endloop
  endfacet
  facet normal 0.866025 -0.5 0
    outer loop
      vertex 9.7082 -7.05342 80
      vertex 10.9625 -4.88084 0
      vertex 10.9625 -4.88084 80
    endloop
  endfacet
  facet normal 0.866025 -0.5 0
    outer loop
      vertex 10.9625 -4.88084 0
      vertex 9.7082 -7.05342 80
      vertex 9.7082 -7.05342 0
    endloop
  endfacet
  facet normal 0.866025 0.5 0
    outer loop
      vertex 10.9625 4.88084 80
      vertex 9.7082 7.05342 0
      vertex 9.7082 7.05342 80
    endloop
  endfacet
  facet normal 0.866025 0.5 0
    outer loop
      vertex 9.7082 7.05342 0
      vertex 10.9625 4.88084 80
      vertex 10.9625 4.88084 0
    endloop
  endfacet
  facet normal 0.951057 0.309017 0
    outer loop
      vertex 11.7378 2.49494 80
      vertex 10.9625 4.88084 0
      vertex 10.9625 4.88084 80
    endloop
  endfacet
  facet normal 0.951057 0.309017 0
    outer loop
      vertex 10.9625 4.88084 0
      vertex 11.7378 2.49494 80
      vertex 11.7378 2.49494 0
    endloop
  endfacet
  facet normal 0.743145 0.669131 0
    outer loop
      vertex 9.7082 7.05342 80
      vertex 8.02957 8.91774 0
      vertex 8.02957 8.91774 80
    endloop
  endfacet
  facet normal 0.743145 0.669131 0
    outer loop
      vertex 8.02957 8.91774 0
      vertex 9.7082 7.05342 80
      vertex 9.7082 7.05342 0
    endloop
  endfacet
  facet normal 0.207912 0.978148 -0
    outer loop
      vertex 3.7082 11.4127 0
      vertex 1.25434 11.9343 80
      vertex 3.7082 11.4127 80
    endloop
  endfacet
  facet normal 0.207912 0.978148 0
    outer loop
      vertex 1.25434 11.9343 80
      vertex 3.7082 11.4127 0
      vertex 1.25434 11.9343 0
    endloop
  endfacet
  facet normal -0.951057 0.309017 0
    outer loop
      vertex -11.7378 2.49494 0
      vertex -10.9625 4.88084 80
      vertex -10.9625 4.88084 0
    endloop
  endfacet
  facet normal -0.951057 0.309017 0
    outer loop
      vertex -10.9625 4.88084 80
      vertex -11.7378 2.49494 0
      vertex -11.7378 2.49494 80
    endloop
  endfacet
  facet normal 0 0 1
    outer loop
      vertex 11 0 80
      vertex 12 0 80
      vertex 11.7378 2.49494 80
    endloop
  endfacet
  facet normal 0 0 1
    outer loop
      vertex 12 0 80
      vertex 11 0 80
      vertex 11.7378 -2.49494 80
    endloop
  endfacet
  facet normal 0 0 1
    outer loop
      vertex 10.7596 2.28703 80
      vertex 11.7378 2.49494 80
      vertex 10.9625 4.88084 80
    endloop
  endfacet
  facet normal 0 0 1
    outer loop
      vertex 11.7378 2.49494 80
      vertex 10.7596 2.28703 80
      vertex 11 0 80
    endloop
  endfacet
  facet normal 0 0 1
    outer loop
      vertex 10.9625 4.88084 80
      vertex 10.049 4.4741 80
      vertex 10.7596 2.28703 80
    endloop
  endfacet
  facet normal 0 0 1
    outer loop
      vertex 9.7082 7.05342 80
      vertex 10.049 4.4741 80
      vertex 10.9625 4.88084 80
    endloop
  endfacet
  facet normal 0 0 1
    outer loop
      vertex 9.7082 7.05342 80
      vertex 8.89919 6.46564 80
      vertex 10.049 4.4741 80
    endloop
  endfacet
  facet normal 0 0 1
    outer loop
      vertex 8.02957 8.91774 80
      vertex 8.89919 6.46564 80
      vertex 9.7082 7.05342 80
    endloop
  endfacet
  facet normal 0 0 1
    outer loop
      vertex 8.02957 8.91774 80
      vertex 7.36044 8.17459 80
      vertex 8.89919 6.46564 80
    endloop
  endfacet
  facet normal 0 0 1
    outer loop
      vertex 6 10.3923 80
      vertex 7.36044 8.17459 80
      vertex 8.02957 8.91774 80
    endloop
  endfacet
  facet normal 0 0 1
    outer loop
      vertex 6 10.3923 80
      vertex 5.5 9.52628 80
      vertex 7.36044 8.17459 80
    endloop
  endfacet
  facet normal 0 0 1
    outer loop
      vertex 3.7082 11.4127 80
      vertex 5.5 9.52628 80
      vertex 6 10.3923 80
    endloop
  endfacet
  facet normal 0 0 1
    outer loop
      vertex 3.7082 11.4127 80
      vertex 3.39919 10.4616 80
      vertex 5.5 9.52628 80
    endloop
  endfacet
  facet normal 0 0 1
    outer loop
      vertex 1.25434 11.9343 80
      vertex 3.39919 10.4616 80
      vertex 3.7082 11.4127 80
    endloop
  endfacet
  facet normal 0 0 1
    outer loop
      vertex 1.25434 11.9343 80
      vertex 1.14981 10.9397 80
      vertex 3.39919 10.4616 80
    endloop
  endfacet
  facet normal 0 0 1
    outer loop
      vertex 1.25434 11.9343 80
      vertex -1.14981 10.9397 80
      vertex 1.14981 10.9397 80
    endloop
  endfacet
  facet normal -0 0 1
    outer loop
      vertex -1.25434 11.9343 80
      vertex -1.14981 10.9397 80
      vertex 1.25434 11.9343 80
    endloop
  endfacet
  facet normal 0 0 1
    outer loop
      vertex -1.25434 11.9343 80
      vertex -3.39919 10.4616 80
      vertex -1.14981 10.9397 80
    endloop
  endfacet
  facet normal -0 0 1
    outer loop
      vertex -3.7082 11.4127 80
      vertex -3.39919 10.4616 80
      vertex -1.25434 11.9343 80
    endloop
  endfacet
  facet normal 0 0 1
    outer loop
      vertex -3.7082 11.4127 80
      vertex -5.5 9.52628 80
      vertex -3.39919 10.4616 80
    endloop
  endfacet
  facet normal -0 0 1
    outer loop
      vertex -6 10.3923 80
      vertex -5.5 9.52628 80
      vertex -3.7082 11.4127 80
    endloop
  endfacet
  facet normal 0 0 1
    outer loop
      vertex -6 10.3923 80
      vertex -7.36044 8.17459 80
      vertex -5.5 9.52628 80
    endloop
  endfacet
  facet normal -0 0 1
    outer loop
      vertex -8.02957 8.91774 80
      vertex -7.36044 8.17459 80
      vertex -6 10.3923 80
    endloop
  endfacet
  facet normal 0 0 1
    outer loop
      vertex -8.02957 8.91774 80
      vertex -8.89919 6.46564 80
      vertex -7.36044 8.17459 80
    endloop
  endfacet
  facet normal -0 0 1
    outer loop
      vertex -9.7082 7.05342 80
      vertex -8.89919 6.46564 80
      vertex -8.02957 8.91774 80
    endloop
  endfacet
  facet normal 0 0 1
    outer loop
      vertex -9.7082 7.05342 80
      vertex -10.049 4.4741 80
      vertex -8.89919 6.46564 80
    endloop
  endfacet
  facet normal -0 0 1
    outer loop
      vertex -10.9625 4.88084 80
      vertex -10.049 4.4741 80
      vertex -9.7082 7.05342 80
    endloop
  endfacet
  facet normal 0 0 1
    outer loop
      vertex -10.049 4.4741 80
      vertex -10.9625 4.88084 80
      vertex -10.7596 2.28703 80
    endloop
  endfacet
  facet normal -0 0 1
    outer loop
      vertex -11.7378 2.49494 80
      vertex -10.7596 2.28703 80
      vertex -10.9625 4.88084 80
    endloop
  endfacet
  facet normal 0 0 1
    outer loop
      vertex -10.7596 2.28703 80
      vertex -11.7378 2.49494 80
      vertex -11 0 80
    endloop
  endfacet
  facet normal -0 0 1
    outer loop
      vertex 10.7596 -2.28703 80
      vertex 11.7378 -2.49494 80
      vertex 11 0 80
    endloop
  endfacet
  facet normal 0 0 1
    outer loop
      vertex 11.7378 -2.49494 80
      vertex 10.7596 -2.28703 80
      vertex 10.9625 -4.88084 80
    endloop
  endfacet
  facet normal -0 0 1
    outer loop
      vertex 10.049 -4.4741 80
      vertex 10.9625 -4.88084 80
      vertex 10.7596 -2.28703 80
    endloop
  endfacet
  facet normal 0 0 1
    outer loop
      vertex 10.049 -4.4741 80
      vertex 9.7082 -7.05342 80
      vertex 10.9625 -4.88084 80
    endloop
  endfacet
  facet normal -0 0 1
    outer loop
      vertex 8.89919 -6.46564 80
      vertex 9.7082 -7.05342 80
      vertex 10.049 -4.4741 80
    endloop
  endfacet
  facet normal 0 0 1
    outer loop
      vertex 8.89919 -6.46564 80
      vertex 8.02957 -8.91774 80
      vertex 9.7082 -7.05342 80
    endloop
  endfacet
  facet normal -0 0 1
    outer loop
      vertex 7.36044 -8.17459 80
      vertex 8.02957 -8.91774 80
      vertex 8.89919 -6.46564 80
    endloop
  endfacet
  facet normal 0 0 1
    outer loop
      vertex 7.36044 -8.17459 80
      vertex 6 -10.3923 80
      vertex 8.02957 -8.91774 80
    endloop
  endfacet
  facet normal -0 0 1
    outer loop
      vertex 5.5 -9.52628 80
      vertex 6 -10.3923 80
      vertex 7.36044 -8.17459 80
    endloop
  endfacet
  facet normal 0 0 1
    outer loop
      vertex 5.5 -9.52628 80
      vertex 3.7082 -11.4127 80
      vertex 6 -10.3923 80
    endloop
  endfacet
  facet normal -0 0 1
    outer loop
      vertex 3.39919 -10.4616 80
      vertex 3.7082 -11.4127 80
      vertex 5.5 -9.52628 80
    endloop
  endfacet
  facet normal 0 0 1
    outer loop
      vertex 3.39919 -10.4616 80
      vertex 1.25434 -11.9343 80
      vertex 3.7082 -11.4127 80
    endloop
  endfacet
  facet normal -0 0 1
    outer loop
      vertex 1.14981 -10.9397 80
      vertex 1.25434 -11.9343 80
      vertex 3.39919 -10.4616 80
    endloop
  endfacet
  facet normal -0 0 1
    outer loop
      vertex -1.14981 -10.9397 80
      vertex 1.25434 -11.9343 80
      vertex 1.14981 -10.9397 80
    endloop
  endfacet
  facet normal 0 0 1
    outer loop
      vertex -1.14981 -10.9397 80
      vertex -1.25434 -11.9343 80
      vertex 1.25434 -11.9343 80
    endloop
  endfacet
  facet normal 0 0 1
    outer loop
      vertex -3.39919 -10.4616 80
      vertex -1.25434 -11.9343 80
      vertex -1.14981 -10.9397 80
    endloop
  endfacet
  facet normal 0 0 1
    outer loop
      vertex -3.39919 -10.4616 80
      vertex -3.7082 -11.4127 80
      vertex -1.25434 -11.9343 80
    endloop
  endfacet
  facet normal 0 0 1
    outer loop
      vertex -5.5 -9.52628 80
      vertex -3.7082 -11.4127 80
      vertex -3.39919 -10.4616 80
    endloop
  endfacet
  facet normal 0 0 1
    outer loop
      vertex -5.5 -9.52628 80
      vertex -6 -10.3923 80
      vertex -3.7082 -11.4127 80
    endloop
  endfacet
  facet normal 0 0 1
    outer loop
      vertex -7.36044 -8.17459 80
      vertex -6 -10.3923 80
      vertex -5.5 -9.52628 80
    endloop
  endfacet
  facet normal 0 0 1
    outer loop
      vertex -7.36044 -8.17459 80
      vertex -8.02957 -8.91774 80
      vertex -6 -10.3923 80
    endloop
  endfacet
  facet normal 0 0 1
    outer loop
      vertex -8.89919 -6.46564 80
      vertex -8.02957 -8.91774 80
      vertex -7.36044 -8.17459 80
    endloop
  endfacet
  facet normal 0 0 1
    outer loop
      vertex -8.89919 -6.46564 80
      vertex -9.7082 -7.05342 80
      vertex -8.02957 -8.91774 80
    endloop
  endfacet
  facet normal 0 0 1
    outer loop
      vertex -10.049 -4.4741 80
      vertex -9.7082 -7.05342 80
      vertex -8.89919 -6.46564 80
    endloop
  endfacet
  facet normal 0 0 1
    outer loop
      vertex -10.9625 -4.88084 80
      vertex -10.049 -4.4741 80
      vertex -10.7596 -2.28703 80
    endloop
  endfacet
  facet normal 0 0 1
    outer loop
      vertex -10.049 -4.4741 80
      vertex -10.9625 -4.88084 80
      vertex -9.7082 -7.05342 80
    endloop
  endfacet
  facet normal 0 0 1
    outer loop
      vertex -11.7378 -2.49494 80
      vertex -10.7596 -2.28703 80
      vertex -11 0 80
    endloop
  endfacet
  facet normal 0 0 1
    outer loop
      vertex -12 0 80
      vertex -11 0 80
      vertex -11.7378 2.49494 80
    endloop
  endfacet
  facet normal 0 0 1
    outer loop
      vertex -10.7596 -2.28703 80
      vertex -11.7378 -2.49494 80
      vertex -10.9625 -4.88084 80
    endloop
  endfacet
  facet normal 0 0 1
    outer loop
      vertex -11 0 80
      vertex -12 0 80
      vertex -11.7378 -2.49494 80
    endloop
  endfacet
  facet normal -0.587785 0.809017 0
    outer loop
      vertex -6 10.3923 0
      vertex -8.02957 8.91774 80
      vertex -6 10.3923 80
    endloop
  endfacet
  facet normal -0.587785 0.809017 0
    outer loop
      vertex -8.02957 8.91774 80
      vertex -6 10.3923 0
      vertex -8.02957 8.91774 0
    endloop
  endfacet
  facet normal -0.207912 0.978148 0
    outer loop
      vertex -1.25434 11.9343 0
      vertex -3.7082 11.4127 80
      vertex -1.25434 11.9343 80
    endloop
  endfacet
  facet normal -0.207912 0.978148 0
    outer loop
      vertex -3.7082 11.4127 80
      vertex -1.25434 11.9343 0
      vertex -3.7082 11.4127 0
    endloop
  endfacet
  facet normal 0.994522 -0.104529 0
    outer loop
      vertex 11.7378 -2.49494 80
      vertex 12 0 0
      vertex 12 0 80
    endloop
  endfacet
  facet normal 0.994522 -0.104529 0
    outer loop
      vertex 12 0 0
      vertex 11.7378 -2.49494 80
      vertex 11.7378 -2.49494 0
    endloop
  endfacet
  facet normal 0 0 -1
    outer loop
      vertex 10.5 -2.5 0
      vertex 12 0 0
      vertex 11.7378 -2.49494 0
    endloop
  endfacet
  facet normal 0 0 -1
    outer loop
      vertex 10.5 -2.5 0
      vertex 11.7378 -2.49494 0
      vertex 10.9625 -4.88084 0
    endloop
  endfacet
  facet normal 0 0 -1
    outer loop
      vertex 10.5 2.5 0
      vertex 12 0 0
      vertex 10.5 -2.5 0
    endloop
  endfacet
  facet normal 0 0 -1
    outer loop
      vertex 12 0 0
      vertex 10.5 2.5 0
      vertex 11.7378 2.49494 0
    endloop
  endfacet
  facet normal 0 0 -1
    outer loop
      vertex 8.16818 -3.779 0
      vertex 10.9625 -4.88084 0
      vertex 9.7082 -7.05342 0
    endloop
  endfacet
  facet normal 0 0 -1
    outer loop
      vertex 10.9625 -4.88084 0
      vertex 8.16818 -3.779 0
      vertex 10.5 -2.5 0
    endloop
  endfacet
  facet normal -0 0 -1
    outer loop
      vertex 10.5 -2.5 0
      vertex 8.16818 -3.779 0
      vertex 8.59912 -2.5 0
    endloop
  endfacet
  facet normal 0 0 -1
    outer loop
      vertex 7.16484 -5.44657 0
      vertex 9.7082 -7.05342 0
      vertex 8.02957 -8.91774 0
    endloop
  endfacet
  facet normal 0 0 -1
    outer loop
      vertex 9.7082 -7.05342 0
      vertex 7.16484 -5.44657 0
      vertex 8.16818 -3.779 0
    endloop
  endfacet
  facet normal 0 0 -1
    outer loop
      vertex 5.82648 -6.85946 0
      vertex 8.02957 -8.91774 0
      vertex 6 -10.3923 0
    endloop
  endfacet
  facet normal 0 0 -1
    outer loop
      vertex 8.02957 -8.91774 0
      vertex 5.82648 -6.85946 0
      vertex 7.16484 -5.44657 0
    endloop
  endfacet
  facet normal 0 0 -1
    outer loop
      vertex 6 -10.3923 0
      vertex 4.21568 -7.95161 0
      vertex 5.82648 -6.85946 0
    endloop
  endfacet
  facet normal 0 0 -1
    outer loop
      vertex 3.7082 -11.4127 0
      vertex 4.21568 -7.95161 0
      vertex 6 -10.3923 0
    endloop
  endfacet
  facet normal 0 0 -1
    outer loop
      vertex 3.7082 -11.4127 0
      vertex 2.40775 -8.67195 0
      vertex 4.21568 -7.95161 0
    endloop
  endfacet
  facet normal 0 0 -1
    outer loop
      vertex 1.25434 -11.9343 0
      vertex 2.40775 -8.67195 0
      vertex 3.7082 -11.4127 0
    endloop
  endfacet
  facet normal 0 0 -1
    outer loop
      vertex 1.25434 -11.9343 0
      vertex 0.487249 -8.9868 0
      vertex 2.40775 -8.67195 0
    endloop
  endfacet
  facet normal 0 0 -1
    outer loop
      vertex -1.25434 -11.9343 0
      vertex 0.487249 -8.9868 0
      vertex 1.25434 -11.9343 0
    endloop
  endfacet
  facet normal 0 0 -1
    outer loop
      vertex -1.25434 -11.9343 0
      vertex -1.45604 -8.88144 0
      vertex 0.487249 -8.9868 0
    endloop
  endfacet
  facet normal 0 0 -1
    outer loop
      vertex -3.7082 -11.4127 0
      vertex -1.45604 -8.88144 0
      vertex -1.25434 -11.9343 0
    endloop
  endfacet
  facet normal -0 0 -1
    outer loop
      vertex -1.45604 -8.88144 0
      vertex -3.7082 -11.4127 0
      vertex -3.33124 -8.36079 0
    endloop
  endfacet
  facet normal 0 0 -1
    outer loop
      vertex -6 -10.3923 0
      vertex -3.33124 -8.36079 0
      vertex -3.7082 -11.4127 0
    endloop
  endfacet
  facet normal -0 0 -1
    outer loop
      vertex -3.33124 -8.36079 0
      vertex -6 -10.3923 0
      vertex -5.05068 -7.4492 0
    endloop
  endfacet
  facet normal 0 0 -1
    outer loop
      vertex -8.02957 -8.91774 0
      vertex -5.05068 -7.4492 0
      vertex -6 -10.3923 0
    endloop
  endfacet
  facet normal -0 0 -1
    outer loop
      vertex -5.05068 -7.4492 0
      vertex -8.02957 -8.91774 0
      vertex -6.53396 -6.18929 0
    endloop
  endfacet
  facet normal 0 0 -1
    outer loop
      vertex -9.7082 -7.05342 0
      vertex -6.53396 -6.18929 0
      vertex -8.02957 -8.91774 0
    endloop
  endfacet
  facet normal -0 0 -1
    outer loop
      vertex -6.53396 -6.18929 0
      vertex -9.7082 -7.05342 0
      vertex -7.71171 -4.63998 0
    endloop
  endfacet
  facet normal 0 0 -1
    outer loop
      vertex -10.9625 -4.88084 0
      vertex -7.71171 -4.63998 0
      vertex -9.7082 -7.05342 0
    endloop
  endfacet
  facet normal 0 0 -1
    outer loop
      vertex -11.7378 -2.49494 0
      vertex -8.52888 -2.87371 0
      vertex -10.9625 -4.88084 0
    endloop
  endfacet
  facet normal -0 0 -1
    outer loop
      vertex -7.71171 -4.63998 0
      vertex -10.9625 -4.88084 0
      vertex -8.52888 -2.87371 0
    endloop
  endfacet
  facet normal 0 0 -1
    outer loop
      vertex 11.7378 2.49494 0
      vertex 10.5 2.5 0
      vertex 10.9625 4.88084 0
    endloop
  endfacet
  facet normal 0 0 -1
    outer loop
      vertex 8.16818 3.779 0
      vertex 10.9625 4.88084 0
      vertex 10.5 2.5 0
    endloop
  endfacet
  facet normal 0 0 -1
    outer loop
      vertex 8.16818 3.779 0
      vertex 10.5 2.5 0
      vertex 8.59912 2.5 0
    endloop
  endfacet
  facet normal -0 0 -1
    outer loop
      vertex 10.9625 4.88084 0
      vertex 8.16818 3.779 0
      vertex 9.7082 7.05342 0
    endloop
  endfacet
  facet normal 0 0 -1
    outer loop
      vertex 7.16484 5.44657 0
      vertex 9.7082 7.05342 0
      vertex 8.16818 3.779 0
    endloop
  endfacet
  facet normal -0 0 -1
    outer loop
      vertex 9.7082 7.05342 0
      vertex 7.16484 5.44657 0
      vertex 8.02957 8.91774 0
    endloop
  endfacet
  facet normal 0 0 -1
    outer loop
      vertex 5.82648 6.85946 0
      vertex 8.02957 8.91774 0
      vertex 7.16484 5.44657 0
    endloop
  endfacet
  facet normal -0 0 -1
    outer loop
      vertex 8.02957 8.91774 0
      vertex 5.82648 6.85946 0
      vertex 6 10.3923 0
    endloop
  endfacet
  facet normal 0 0 -1
    outer loop
      vertex 4.21568 7.95161 0
      vertex 6 10.3923 0
      vertex 5.82648 6.85946 0
    endloop
  endfacet
  facet normal 0 0 -1
    outer loop
      vertex 4.21568 7.95161 0
      vertex 3.7082 11.4127 0
      vertex 6 10.3923 0
    endloop
  endfacet
  facet normal 0 0 -1
    outer loop
      vertex 2.40775 8.67195 0
      vertex 3.7082 11.4127 0
      vertex 4.21568 7.95161 0
    endloop
  endfacet
  facet normal 0 0 -1
    outer loop
      vertex 2.40775 8.67195 0
      vertex 1.25434 11.9343 0
      vertex 3.7082 11.4127 0
    endloop
  endfacet
  facet normal 0 0 -1
    outer loop
      vertex 0.487249 8.9868 0
      vertex 1.25434 11.9343 0
      vertex 2.40775 8.67195 0
    endloop
  endfacet
  facet normal 0 0 -1
    outer loop
      vertex 0.487249 8.9868 0
      vertex -1.25434 11.9343 0
      vertex 1.25434 11.9343 0
    endloop
  endfacet
  facet normal 0 0 -1
    outer loop
      vertex -1.45604 8.88144 0
      vertex -1.25434 11.9343 0
      vertex 0.487249 8.9868 0
    endloop
  endfacet
  facet normal 0 0 -1
    outer loop
      vertex -3.7082 11.4127 0
      vertex -1.45604 8.88144 0
      vertex -3.33124 8.36079 0
    endloop
  endfacet
  facet normal 0 0 -1
    outer loop
      vertex -1.45604 8.88144 0
      vertex -3.7082 11.4127 0
      vertex -1.25434 11.9343 0
    endloop
  endfacet
  facet normal 0 0 -1
    outer loop
      vertex -6 10.3923 0
      vertex -3.33124 8.36079 0
      vertex -5.05068 7.4492 0
    endloop
  endfacet
  facet normal 0 0 -1
    outer loop
      vertex -3.33124 8.36079 0
      vertex -6 10.3923 0
      vertex -3.7082 11.4127 0
    endloop
  endfacet
  facet normal 0 0 -1
    outer loop
      vertex -8.02957 8.91774 0
      vertex -5.05068 7.4492 0
      vertex -6.53396 6.18929 0
    endloop
  endfacet
  facet normal 0 0 -1
    outer loop
      vertex -9.7082 7.05342 0
      vertex -6.53396 6.18929 0
      vertex -7.71171 4.63998 0
    endloop
  endfacet
  facet normal 0 0 -1
    outer loop
      vertex -5.05068 7.4492 0
      vertex -8.02957 8.91774 0
      vertex -6 10.3923 0
    endloop
  endfacet
  facet normal 0 0 -1
    outer loop
      vertex -10.9625 4.88084 0
      vertex -7.71171 4.63998 0
      vertex -8.52888 2.87371 0
    endloop
  endfacet
  facet normal 0 0 -1
    outer loop
      vertex -11.7378 2.49494 0
      vertex -8.52888 2.87371 0
      vertex -8.94724 0.973071 0
    endloop
  endfacet
  facet normal 0 0 -1
    outer loop
      vertex -6.53396 6.18929 0
      vertex -9.7082 7.05342 0
      vertex -8.02957 8.91774 0
    endloop
  endfacet
  facet normal 0 0 -1
    outer loop
      vertex -8.52888 -2.87371 0
      vertex -11.7378 -2.49494 0
      vertex -8.94724 -0.973071 0
    endloop
  endfacet
  facet normal 0 0 -1
    outer loop
      vertex -12 0 0
      vertex -8.94724 -0.973071 0
      vertex -11.7378 -2.49494 0
    endloop
  endfacet
  facet normal 0 0 -1
    outer loop
      vertex -7.71171 4.63998 0
      vertex -10.9625 4.88084 0
      vertex -9.7082 7.05342 0
    endloop
  endfacet
  facet normal 0 0 -1
    outer loop
      vertex -8.94724 -0.973071 0
      vertex -12 0 0
      vertex -8.94724 0.973071 0
    endloop
  endfacet
  facet normal -0 0 -1
    outer loop
      vertex -8.52888 2.87371 0
      vertex -11.7378 2.49494 0
      vertex -10.9625 4.88084 0
    endloop
  endfacet
  facet normal -0 0 -1
    outer loop
      vertex -8.94724 0.973071 0
      vertex -12 0 0
      vertex -11.7378 2.49494 0
    endloop
  endfacet
  facet normal 0.207912 -0.978148 0
    outer loop
      vertex 1.25434 -11.9343 0
      vertex 3.7082 -11.4127 80
      vertex 1.25434 -11.9343 80
    endloop
  endfacet
  facet normal 0.207912 -0.978148 0
    outer loop
      vertex 3.7082 -11.4127 80
      vertex 1.25434 -11.9343 0
      vertex 3.7082 -11.4127 0
    endloop
  endfacet
  facet normal 0.951057 -0.309017 0
    outer loop
      vertex 10.9625 -4.88084 80
      vertex 11.7378 -2.49494 0
      vertex 11.7378 -2.49494 80
    endloop
  endfacet
  facet normal 0.951057 -0.309017 0
    outer loop
      vertex 11.7378 -2.49494 0
      vertex 10.9625 -4.88084 80
      vertex 10.9625 -4.88084 0
    endloop
  endfacet
  facet normal -0.866025 -0.5 0
    outer loop
      vertex -9.7082 -7.05342 0
      vertex -10.9625 -4.88084 80
      vertex -10.9625 -4.88084 0
    endloop
  endfacet
  facet normal -0.866025 -0.5 0
    outer loop
      vertex -10.9625 -4.88084 80
      vertex -9.7082 -7.05342 0
      vertex -9.7082 -7.05342 80
    endloop
  endfacet
  facet normal -0.994522 -0.104529 0
    outer loop
      vertex -11.7378 -2.49494 0
      vertex -12 0 80
      vertex -12 0 0
    endloop
  endfacet
  facet normal -0.994522 -0.104529 0
    outer loop
      vertex -12 0 80
      vertex -11.7378 -2.49494 0
      vertex -11.7378 -2.49494 80
    endloop
  endfacet
  facet normal 0.587785 -0.809017 0
    outer loop
      vertex 6 -10.3923 0
      vertex 8.02957 -8.91774 80
      vertex 6 -10.3923 80
    endloop
  endfacet
  facet normal 0.587785 -0.809017 0
    outer loop
      vertex 8.02957 -8.91774 80
      vertex 6 -10.3923 0
      vertex 8.02957 -8.91774 0
    endloop
  endfacet
  facet normal 0.406737 -0.913545 0
    outer loop
      vertex 3.7082 -11.4127 0
      vertex 6 -10.3923 80
      vertex 3.7082 -11.4127 80
    endloop
  endfacet
  facet normal 0.406737 -0.913545 0
    outer loop
      vertex 6 -10.3923 80
      vertex 3.7082 -11.4127 0
      vertex 6 -10.3923 0
    endloop
  endfacet
  facet normal -0.207912 -0.978148 0
    outer loop
      vertex -3.7082 -11.4127 0
      vertex -1.25434 -11.9343 80
      vertex -3.7082 -11.4127 80
    endloop
  endfacet
  facet normal -0.207912 -0.978148 -0
    outer loop
      vertex -1.25434 -11.9343 80
      vertex -3.7082 -11.4127 0
      vertex -1.25434 -11.9343 0
    endloop
  endfacet
  facet normal -0.743145 -0.669131 0
    outer loop
      vertex -8.02957 -8.91774 0
      vertex -9.7082 -7.05342 80
      vertex -9.7082 -7.05342 0
    endloop
  endfacet
  facet normal -0.743145 -0.669131 0
    outer loop
      vertex -9.7082 -7.05342 80
      vertex -8.02957 -8.91774 0
      vertex -8.02957 -8.91774 80
    endloop
  endfacet
  facet normal -0.951057 -0.309017 0
    outer loop
      vertex -10.9625 -4.88084 0
      vertex -11.7378 -2.49494 80
      vertex -11.7378 -2.49494 0
    endloop
  endfacet
  facet normal -0.951057 -0.309017 0
    outer loop
      vertex -11.7378 -2.49494 80
      vertex -10.9625 -4.88084 0
      vertex -10.9625 -4.88084 80
    endloop
  endfacet
  facet normal 0.743145 -0.669131 0
    outer loop
      vertex 8.02957 -8.91774 80
      vertex 9.7082 -7.05342 0
      vertex 9.7082 -7.05342 80
    endloop
  endfacet
  facet normal 0.743145 -0.669131 0
    outer loop
      vertex 9.7082 -7.05342 0
      vertex 8.02957 -8.91774 80
      vertex 8.02957 -8.91774 0
    endloop
  endfacet
  facet normal -0.587785 -0.809017 0
    outer loop
      vertex -8.02957 -8.91774 0
      vertex -6 -10.3923 80
      vertex -8.02957 -8.91774 80
    endloop
  endfacet
  facet normal -0.587785 -0.809017 -0
    outer loop
      vertex -6 -10.3923 80
      vertex -8.02957 -8.91774 0
      vertex -6 -10.3923 0
    endloop
  endfacet
  facet normal -0.406737 -0.913545 0
    outer loop
      vertex -6 -10.3923 0
      vertex -3.7082 -11.4127 80
      vertex -6 -10.3923 80
    endloop
  endfacet
  facet normal -0.406737 -0.913545 -0
    outer loop
      vertex -3.7082 -11.4127 80
      vertex -6 -10.3923 0
      vertex -3.7082 -11.4127 0
    endloop
  endfacet
  facet normal -0.994522 -0.104529 0
    outer loop
      vertex 11 0 72
      vertex 10.7596 2.28703 80
      vertex 10.7596 2.28703 72
    endloop
  endfacet
  facet normal -0.994522 -0.104529 0
    outer loop
      vertex 10.7596 2.28703 80
      vertex 11 0 72
      vertex 11 0 80
    endloop
  endfacet
  facet normal 0.994522 -0.104529 0
    outer loop
      vertex -11 0 80
      vertex -10.7596 2.28703 72
      vertex -10.7596 2.28703 80
    endloop
  endfacet
  facet normal 0.994522 -0.104529 0
    outer loop
      vertex -10.7596 2.28703 72
      vertex -11 0 80
      vertex -11 0 72
    endloop
  endfacet
  facet normal 0 -1 0
    outer loop
      vertex -1.14981 10.9397 72
      vertex 1.14981 10.9397 80
      vertex -1.14981 10.9397 80
    endloop
  endfacet
  facet normal 0 -1 -0
    outer loop
      vertex 1.14981 10.9397 80
      vertex -1.14981 10.9397 72
      vertex 1.14981 10.9397 72
    endloop
  endfacet
  facet normal 0 1 -0
    outer loop
      vertex 1.14981 -10.9397 72
      vertex -1.14981 -10.9397 80
      vertex 1.14981 -10.9397 80
    endloop
  endfacet
  facet normal 0 1 0
    outer loop
      vertex -1.14981 -10.9397 80
      vertex 1.14981 -10.9397 72
      vertex -1.14981 -10.9397 72
    endloop
  endfacet
  facet normal -0.743145 -0.66913 0
    outer loop
      vertex 8.89919 6.46564 72
      vertex 7.36044 8.17459 80
      vertex 7.36044 8.17459 72
    endloop
  endfacet
  facet normal -0.743145 -0.66913 0
    outer loop
      vertex 7.36044 8.17459 80
      vertex 8.89919 6.46564 72
      vertex 8.89919 6.46564 80
    endloop
  endfacet
  facet normal -0.951057 -0.309017 0
    outer loop
      vertex 10.7596 2.28703 72
      vertex 10.049 4.4741 80
      vertex 10.049 4.4741 72
    endloop
  endfacet
  facet normal -0.951057 -0.309017 0
    outer loop
      vertex 10.049 4.4741 80
      vertex 10.7596 2.28703 72
      vertex 10.7596 2.28703 80
    endloop
  endfacet
  facet normal 0.587785 -0.809017 0
    outer loop
      vertex -7.36044 8.17459 72
      vertex -5.5 9.52628 80
      vertex -7.36044 8.17459 80
    endloop
  endfacet
  facet normal 0.587785 -0.809017 0
    outer loop
      vertex -5.5 9.52628 80
      vertex -7.36044 8.17459 72
      vertex -5.5 9.52628 72
    endloop
  endfacet
  facet normal 0.207912 -0.978148 0
    outer loop
      vertex -3.39919 10.4616 72
      vertex -1.14981 10.9397 80
      vertex -3.39919 10.4616 80
    endloop
  endfacet
  facet normal 0.207912 -0.978148 0
    outer loop
      vertex -1.14981 10.9397 80
      vertex -3.39919 10.4616 72
      vertex -1.14981 10.9397 72
    endloop
  endfacet
  facet normal -0.866025 0.5 0
    outer loop
      vertex 8.89919 -6.46564 72
      vertex 10.049 -4.4741 80
      vertex 10.049 -4.4741 72
    endloop
  endfacet
  facet normal -0.866025 0.5 0
    outer loop
      vertex 10.049 -4.4741 80
      vertex 8.89919 -6.46564 72
      vertex 8.89919 -6.46564 80
    endloop
  endfacet
  facet normal -0.866025 -0.5 0
    outer loop
      vertex 10.049 4.4741 72
      vertex 8.89919 6.46564 80
      vertex 8.89919 6.46564 72
    endloop
  endfacet
  facet normal -0.866025 -0.5 0
    outer loop
      vertex 8.89919 6.46564 80
      vertex 10.049 4.4741 72
      vertex 10.049 4.4741 80
    endloop
  endfacet
  facet normal -0.406737 -0.913545 0
    outer loop
      vertex 3.39919 10.4616 72
      vertex 5.5 9.52628 80
      vertex 3.39919 10.4616 80
    endloop
  endfacet
  facet normal -0.406737 -0.913545 -0
    outer loop
      vertex 5.5 9.52628 80
      vertex 3.39919 10.4616 72
      vertex 5.5 9.52628 72
    endloop
  endfacet
  facet normal -0.207912 -0.978148 0
    outer loop
      vertex 1.14981 10.9397 72
      vertex 3.39919 10.4616 80
      vertex 1.14981 10.9397 80
    endloop
  endfacet
  facet normal -0.207912 -0.978148 -0
    outer loop
      vertex 3.39919 10.4616 80
      vertex 1.14981 10.9397 72
      vertex 3.39919 10.4616 72
    endloop
  endfacet
  facet normal -0.587785 -0.809017 0
    outer loop
      vertex 5.5 9.52628 72
      vertex 7.36044 8.17459 80
      vertex 5.5 9.52628 80
    endloop
  endfacet
  facet normal -0.587785 -0.809017 -0
    outer loop
      vertex 7.36044 8.17459 80
      vertex 5.5 9.52628 72
      vertex 7.36044 8.17459 72
    endloop
  endfacet
  facet normal 0.866025 -0.5 0
    outer loop
      vertex -10.049 4.4741 80
      vertex -8.89919 6.46564 72
      vertex -8.89919 6.46564 80
    endloop
  endfacet
  facet normal 0.866025 -0.5 0
    outer loop
      vertex -8.89919 6.46564 72
      vertex -10.049 4.4741 80
      vertex -10.049 4.4741 72
    endloop
  endfacet
  facet normal 0.743145 -0.66913 0
    outer loop
      vertex -8.89919 6.46564 80
      vertex -7.36044 8.17459 72
      vertex -7.36044 8.17459 80
    endloop
  endfacet
  facet normal 0.743145 -0.66913 0
    outer loop
      vertex -7.36044 8.17459 72
      vertex -8.89919 6.46564 80
      vertex -8.89919 6.46564 72
    endloop
  endfacet
  facet normal 0.951057 -0.309017 0
    outer loop
      vertex -10.7596 2.28703 80
      vertex -10.049 4.4741 72
      vertex -10.049 4.4741 80
    endloop
  endfacet
  facet normal 0.951057 -0.309017 0
    outer loop
      vertex -10.049 4.4741 72
      vertex -10.7596 2.28703 80
      vertex -10.7596 2.28703 72
    endloop
  endfacet
  facet normal 0.406737 -0.913545 0
    outer loop
      vertex -5.5 9.52628 72
      vertex -3.39919 10.4616 80
      vertex -5.5 9.52628 80
    endloop
  endfacet
  facet normal 0.406737 -0.913545 0
    outer loop
      vertex -3.39919 10.4616 80
      vertex -5.5 9.52628 72
      vertex -3.39919 10.4616 72
    endloop
  endfacet
  facet normal 0 0 1
    outer loop
      vertex 9 0 72
      vertex 11 0 72
      vertex 10.7596 2.28703 72
    endloop
  endfacet
  facet normal 0 0 1
    outer loop
      vertex 8.78958 1.93473 72
      vertex 10.7596 2.28703 72
      vertex 10.049 4.4741 72
    endloop
  endfacet
  facet normal 0 0 1
    outer loop
      vertex 11 0 72
      vertex 9 0 72
      vertex 10.7596 -2.28703 72
    endloop
  endfacet
  facet normal -0 0 1
    outer loop
      vertex 8.78958 -1.93473 72
      vertex 10.7596 -2.28703 72
      vertex 9 0 72
    endloop
  endfacet
  facet normal 0 0 1
    outer loop
      vertex 8.16818 3.779 72
      vertex 10.049 4.4741 72
      vertex 8.89919 6.46564 72
    endloop
  endfacet
  facet normal 0 0 1
    outer loop
      vertex 10.7596 2.28703 72
      vertex 8.78958 1.93473 72
      vertex 9 0 72
    endloop
  endfacet
  facet normal 0 0 1
    outer loop
      vertex 10.049 4.4741 72
      vertex 8.16818 3.779 72
      vertex 8.78958 1.93473 72
    endloop
  endfacet
  facet normal 0 0 1
    outer loop
      vertex 7.16484 5.44657 72
      vertex 8.89919 6.46564 72
      vertex 7.36044 8.17459 72
    endloop
  endfacet
  facet normal 0 0 1
    outer loop
      vertex 8.89919 6.46564 72
      vertex 7.16484 5.44657 72
      vertex 8.16818 3.779 72
    endloop
  endfacet
  facet normal 0 0 1
    outer loop
      vertex 7.36044 8.17459 72
      vertex 5.82648 6.85946 72
      vertex 7.16484 5.44657 72
    endloop
  endfacet
  facet normal 0 0 1
    outer loop
      vertex 5.5 9.52628 72
      vertex 5.82648 6.85946 72
      vertex 7.36044 8.17459 72
    endloop
  endfacet
  facet normal 0 0 1
    outer loop
      vertex 5.5 9.52628 72
      vertex 4.21568 7.95161 72
      vertex 5.82648 6.85946 72
    endloop
  endfacet
  facet normal 0 0 1
    outer loop
      vertex 3.39919 10.4616 72
      vertex 4.21568 7.95161 72
      vertex 5.5 9.52628 72
    endloop
  endfacet
  facet normal 0 0 1
    outer loop
      vertex 3.39919 10.4616 72
      vertex 2.40775 8.67195 72
      vertex 4.21568 7.95161 72
    endloop
  endfacet
  facet normal 0 0 1
    outer loop
      vertex 1.14981 10.9397 72
      vertex 2.40775 8.67195 72
      vertex 3.39919 10.4616 72
    endloop
  endfacet
  facet normal 0 0 1
    outer loop
      vertex 1.14981 10.9397 72
      vertex 0.487249 8.9868 72
      vertex 2.40775 8.67195 72
    endloop
  endfacet
  facet normal -0 0 1
    outer loop
      vertex -1.14981 10.9397 72
      vertex 0.487249 8.9868 72
      vertex 1.14981 10.9397 72
    endloop
  endfacet
  facet normal 0 0 1
    outer loop
      vertex -1.14981 10.9397 72
      vertex -1.45604 8.88144 72
      vertex 0.487249 8.9868 72
    endloop
  endfacet
  facet normal -0 0 1
    outer loop
      vertex -3.39919 10.4616 72
      vertex -1.45604 8.88144 72
      vertex -1.14981 10.9397 72
    endloop
  endfacet
  facet normal 0 0 1
    outer loop
      vertex -1.45604 8.88144 72
      vertex -3.39919 10.4616 72
      vertex -3.33124 8.36079 72
    endloop
  endfacet
  facet normal -0 0 1
    outer loop
      vertex -5.5 9.52628 72
      vertex -3.33124 8.36079 72
      vertex -3.39919 10.4616 72
    endloop
  endfacet
  facet normal 0 0 1
    outer loop
      vertex -3.33124 8.36079 72
      vertex -5.5 9.52628 72
      vertex -5.05068 7.4492 72
    endloop
  endfacet
  facet normal -0 0 1
    outer loop
      vertex -7.36044 8.17459 72
      vertex -5.05068 7.4492 72
      vertex -5.5 9.52628 72
    endloop
  endfacet
  facet normal 0 0 1
    outer loop
      vertex -5.05068 7.4492 72
      vertex -7.36044 8.17459 72
      vertex -6.53396 6.18929 72
    endloop
  endfacet
  facet normal -0 0 1
    outer loop
      vertex -8.89919 6.46564 72
      vertex -6.53396 6.18929 72
      vertex -7.36044 8.17459 72
    endloop
  endfacet
  facet normal 0 0 1
    outer loop
      vertex -6.53396 6.18929 72
      vertex -8.89919 6.46564 72
      vertex -7.71171 4.63998 72
    endloop
  endfacet
  facet normal 0 0 1
    outer loop
      vertex -10.049 4.4741 72
      vertex -7.71171 4.63998 72
      vertex -8.89919 6.46564 72
    endloop
  endfacet
  facet normal 0 0 1
    outer loop
      vertex -7.71171 4.63998 72
      vertex -10.049 4.4741 72
      vertex -8.52888 2.87371 72
    endloop
  endfacet
  facet normal 0 0 1
    outer loop
      vertex -8.52888 2.87371 72
      vertex -10.7596 2.28703 72
      vertex -8.94724 0.973071 72
    endloop
  endfacet
  facet normal 0 0 1
    outer loop
      vertex -10.7596 2.28703 72
      vertex -8.52888 2.87371 72
      vertex -10.049 4.4741 72
    endloop
  endfacet
  facet normal 0 0 1
    outer loop
      vertex 10.7596 -2.28703 72
      vertex 8.78958 -1.93473 72
      vertex 10.049 -4.4741 72
    endloop
  endfacet
  facet normal -0 0 1
    outer loop
      vertex 8.16818 -3.779 72
      vertex 10.049 -4.4741 72
      vertex 8.78958 -1.93473 72
    endloop
  endfacet
  facet normal 0 0 1
    outer loop
      vertex 10.049 -4.4741 72
      vertex 8.16818 -3.779 72
      vertex 8.89919 -6.46564 72
    endloop
  endfacet
  facet normal -0 0 1
    outer loop
      vertex 7.16484 -5.44657 72
      vertex 8.89919 -6.46564 72
      vertex 8.16818 -3.779 72
    endloop
  endfacet
  facet normal 0 0 1
    outer loop
      vertex 8.89919 -6.46564 72
      vertex 7.16484 -5.44657 72
      vertex 7.36044 -8.17459 72
    endloop
  endfacet
  facet normal -0 0 1
    outer loop
      vertex 5.82648 -6.85946 72
      vertex 7.36044 -8.17459 72
      vertex 7.16484 -5.44657 72
    endloop
  endfacet
  facet normal 0 0 1
    outer loop
      vertex 5.82648 -6.85946 72
      vertex 5.5 -9.52628 72
      vertex 7.36044 -8.17459 72
    endloop
  endfacet
  facet normal -0 0 1
    outer loop
      vertex 4.21568 -7.95161 72
      vertex 5.5 -9.52628 72
      vertex 5.82648 -6.85946 72
    endloop
  endfacet
  facet normal 0 0 1
    outer loop
      vertex 4.21568 -7.95161 72
      vertex 3.39919 -10.4616 72
      vertex 5.5 -9.52628 72
    endloop
  endfacet
  facet normal -0 0 1
    outer loop
      vertex 2.40775 -8.67195 72
      vertex 3.39919 -10.4616 72
      vertex 4.21568 -7.95161 72
    endloop
  endfacet
  facet normal 0 0 1
    outer loop
      vertex 2.40775 -8.67195 72
      vertex 1.14981 -10.9397 72
      vertex 3.39919 -10.4616 72
    endloop
  endfacet
  facet normal -0 0 1
    outer loop
      vertex 0.487249 -8.9868 72
      vertex 1.14981 -10.9397 72
      vertex 2.40775 -8.67195 72
    endloop
  endfacet
  facet normal 0 0 1
    outer loop
      vertex 0.487249 -8.9868 72
      vertex -1.14981 -10.9397 72
      vertex 1.14981 -10.9397 72
    endloop
  endfacet
  facet normal 0 0 1
    outer loop
      vertex -1.45604 -8.88144 72
      vertex -1.14981 -10.9397 72
      vertex 0.487249 -8.9868 72
    endloop
  endfacet
  facet normal 0 0 1
    outer loop
      vertex -3.39919 -10.4616 72
      vertex -1.45604 -8.88144 72
      vertex -3.33124 -8.36079 72
    endloop
  endfacet
  facet normal 0 0 1
    outer loop
      vertex -1.45604 -8.88144 72
      vertex -3.39919 -10.4616 72
      vertex -1.14981 -10.9397 72
    endloop
  endfacet
  facet normal 0 0 1
    outer loop
      vertex -5.5 -9.52628 72
      vertex -3.33124 -8.36079 72
      vertex -5.05068 -7.4492 72
    endloop
  endfacet
  facet normal 0 0 1
    outer loop
      vertex -3.33124 -8.36079 72
      vertex -5.5 -9.52628 72
      vertex -3.39919 -10.4616 72
    endloop
  endfacet
  facet normal 0 0 1
    outer loop
      vertex -7.36044 -8.17459 72
      vertex -5.05068 -7.4492 72
      vertex -6.53396 -6.18929 72
    endloop
  endfacet
  facet normal 0 0 1
    outer loop
      vertex -5.05068 -7.4492 72
      vertex -7.36044 -8.17459 72
      vertex -5.5 -9.52628 72
    endloop
  endfacet
  facet normal 0 0 1
    outer loop
      vertex -8.89919 -6.46564 72
      vertex -6.53396 -6.18929 72
      vertex -7.71171 -4.63998 72
    endloop
  endfacet
  facet normal -0 0 1
    outer loop
      vertex -10.049 -4.4741 72
      vertex -7.71171 -4.63998 72
      vertex -8.52888 -2.87371 72
    endloop
  endfacet
  facet normal 0 0 1
    outer loop
      vertex -6.53396 -6.18929 72
      vertex -8.89919 -6.46564 72
      vertex -7.36044 -8.17459 72
    endloop
  endfacet
  facet normal -0 0 1
    outer loop
      vertex -10.7596 -2.28703 72
      vertex -8.52888 -2.87371 72
      vertex -8.94724 -0.973071 72
    endloop
  endfacet
  facet normal 0 0 1
    outer loop
      vertex -11 0 72
      vertex -8.94724 0.973071 72
      vertex -10.7596 2.28703 72
    endloop
  endfacet
  facet normal 0 0 1
    outer loop
      vertex -7.71171 -4.63998 72
      vertex -10.049 -4.4741 72
      vertex -8.89919 -6.46564 72
    endloop
  endfacet
  facet normal 0 0 1
    outer loop
      vertex -8.94724 0.973071 72
      vertex -11 0 72
      vertex -8.94724 -0.973071 72
    endloop
  endfacet
  facet normal 0 0 1
    outer loop
      vertex -8.52888 -2.87371 72
      vertex -10.7596 -2.28703 72
      vertex -10.049 -4.4741 72
    endloop
  endfacet
  facet normal 0 0 1
    outer loop
      vertex -8.94724 -0.973071 72
      vertex -11 0 72
      vertex -10.7596 -2.28703 72
    endloop
  endfacet
  facet normal -0.207912 0.978148 0
    outer loop
      vertex 3.39919 -10.4616 72
      vertex 1.14981 -10.9397 80
      vertex 3.39919 -10.4616 80
    endloop
  endfacet
  facet normal -0.207912 0.978148 0
    outer loop
      vertex 1.14981 -10.9397 80
      vertex 3.39919 -10.4616 72
      vertex 1.14981 -10.9397 72
    endloop
  endfacet
  facet normal -0.587785 0.809017 0
    outer loop
      vertex 7.36044 -8.17459 72
      vertex 5.5 -9.52628 80
      vertex 7.36044 -8.17459 80
    endloop
  endfacet
  facet normal -0.587785 0.809017 0
    outer loop
      vertex 5.5 -9.52628 80
      vertex 7.36044 -8.17459 72
      vertex 5.5 -9.52628 72
    endloop
  endfacet
  facet normal -0.743145 0.66913 0
    outer loop
      vertex 7.36044 -8.17459 72
      vertex 8.89919 -6.46564 80
      vertex 8.89919 -6.46564 72
    endloop
  endfacet
  facet normal -0.743145 0.66913 0
    outer loop
      vertex 8.89919 -6.46564 80
      vertex 7.36044 -8.17459 72
      vertex 7.36044 -8.17459 80
    endloop
  endfacet
  facet normal -0.951057 0.309017 0
    outer loop
      vertex 10.049 -4.4741 72
      vertex 10.7596 -2.28703 80
      vertex 10.7596 -2.28703 72
    endloop
  endfacet
  facet normal -0.951057 0.309017 0
    outer loop
      vertex 10.7596 -2.28703 80
      vertex 10.049 -4.4741 72
      vertex 10.049 -4.4741 80
    endloop
  endfacet
  facet normal -0.994522 0.104529 0
    outer loop
      vertex 10.7596 -2.28703 72
      vertex 11 0 80
      vertex 11 0 72
    endloop
  endfacet
  facet normal -0.994522 0.104529 0
    outer loop
      vertex 11 0 80
      vertex 10.7596 -2.28703 72
      vertex 10.7596 -2.28703 80
    endloop
  endfacet
  facet normal 0.587785 0.809017 -0
    outer loop
      vertex -5.5 -9.52628 72
      vertex -7.36044 -8.17459 80
      vertex -5.5 -9.52628 80
    endloop
  endfacet
  facet normal 0.587785 0.809017 0
    outer loop
      vertex -7.36044 -8.17459 80
      vertex -5.5 -9.52628 72
      vertex -7.36044 -8.17459 72
    endloop
  endfacet
  facet normal 0.866025 0.5 0
    outer loop
      vertex -8.89919 -6.46564 80
      vertex -10.049 -4.4741 72
      vertex -10.049 -4.4741 80
    endloop
  endfacet
  facet normal 0.866025 0.5 0
    outer loop
      vertex -10.049 -4.4741 72
      vertex -8.89919 -6.46564 80
      vertex -8.89919 -6.46564 72
    endloop
  endfacet
  facet normal 0.743145 0.66913 0
    outer loop
      vertex -7.36044 -8.17459 80
      vertex -8.89919 -6.46564 72
      vertex -8.89919 -6.46564 80
    endloop
  endfacet
  facet normal 0.743145 0.66913 0
    outer loop
      vertex -8.89919 -6.46564 72
      vertex -7.36044 -8.17459 80
      vertex -7.36044 -8.17459 72
    endloop
  endfacet
  facet normal -0.406737 0.913545 0
    outer loop
      vertex 5.5 -9.52628 72
      vertex 3.39919 -10.4616 80
      vertex 5.5 -9.52628 80
    endloop
  endfacet
  facet normal -0.406737 0.913545 0
    outer loop
      vertex 3.39919 -10.4616 80
      vertex 5.5 -9.52628 72
      vertex 3.39919 -10.4616 72
    endloop
  endfacet
  facet normal 0.207912 0.978148 -0
    outer loop
      vertex -1.14981 -10.9397 72
      vertex -3.39919 -10.4616 80
      vertex -1.14981 -10.9397 80
    endloop
  endfacet
  facet normal 0.207912 0.978148 0
    outer loop
      vertex -3.39919 -10.4616 80
      vertex -1.14981 -10.9397 72
      vertex -3.39919 -10.4616 72
    endloop
  endfacet
  facet normal 0.951057 0.309017 0
    outer loop
      vertex -10.049 -4.4741 80
      vertex -10.7596 -2.28703 72
      vertex -10.7596 -2.28703 80
    endloop
  endfacet
  facet normal 0.951057 0.309017 0
    outer loop
      vertex -10.7596 -2.28703 72
      vertex -10.049 -4.4741 80
      vertex -10.049 -4.4741 72
    endloop
  endfacet
  facet normal 0.994522 0.104529 0
    outer loop
      vertex -10.7596 -2.28703 80
      vertex -11 0 72
      vertex -11 0 80
    endloop
  endfacet
  facet normal 0.994522 0.104529 0
    outer loop
      vertex -11 0 72
      vertex -10.7596 -2.28703 80
      vertex -10.7596 -2.28703 72
    endloop
  endfacet
  facet normal 0.406737 0.913545 -0
    outer loop
      vertex -3.39919 -10.4616 72
      vertex -5.5 -9.52628 80
      vertex -3.39919 -10.4616 80
    endloop
  endfacet
  facet normal 0.406737 0.913545 0
    outer loop
      vertex -5.5 -9.52628 80
      vertex -3.39919 -10.4616 72
      vertex -5.5 -9.52628 72
    endloop
  endfacet
  facet normal -0.994138 -0.108119 0
    outer loop
      vertex 9 0 70.5
      vertex 8.78958 1.93473 72
      vertex 8.78958 1.93473 70.5
    endloop
  endfacet
  facet normal -0.994138 -0.108119 0
    outer loop
      vertex 8.78958 1.93473 72
      vertex 9 0 70.5
      vertex 9 0 72
    endloop
  endfacet
  facet normal 1 -0 0
    outer loop
      vertex -8.94724 -0.973071 72
      vertex -8.94724 0.973071 0
      vertex -8.94724 0.973071 72
    endloop
  endfacet
  facet normal 1 0 0
    outer loop
      vertex -8.94724 0.973071 0
      vertex -8.94724 -0.973071 72
      vertex -8.94724 -0.973071 0
    endloop
  endfacet
  facet normal 0.0541389 -0.998533 0
    outer loop
      vertex -1.45604 8.88144 0
      vertex 0.487249 8.9868 72
      vertex -1.45604 8.88144 72
    endloop
  endfacet
  facet normal 0.0541389 -0.998533 0
    outer loop
      vertex 0.487249 8.9868 72
      vertex -1.45604 8.88144 0
      vertex 0.487249 8.9868 0
    endloop
  endfacet
  facet normal -0.161782 0.986827 0
    outer loop
      vertex 2.40775 -8.67195 0
      vertex 0.487249 -8.9868 72
      vertex 2.40775 -8.67195 72
    endloop
  endfacet
  facet normal -0.161782 0.986827 0
    outer loop
      vertex 0.487249 -8.9868 72
      vertex 2.40775 -8.67195 0
      vertex 0.487249 -8.9868 0
    endloop
  endfacet
  facet normal -0.725996 -0.687699 0
    outer loop
      vertex 7.16484 5.44657 0
      vertex 5.82648 6.85946 72
      vertex 5.82648 6.85946 0
    endloop
  endfacet
  facet normal -0.725996 -0.687699 0
    outer loop
      vertex 5.82648 6.85946 72
      vertex 7.16484 5.44657 0
      vertex 7.16484 5.44657 72
    endloop
  endfacet
  facet normal -0.947653 -0.319301 -0
    outer loop
      vertex 8.59912 2.5 70.5
      vertex 8.16818 3.779 0
      vertex 8.59912 2.5 0
    endloop
  endfacet
  facet normal -0.947653 -0.319301 0
    outer loop
      vertex 8.16818 3.779 0
      vertex 8.59912 2.5 70.5
      vertex 8.16818 3.779 72
    endloop
  endfacet
  facet normal -0.947653 -0.319301 -0
    outer loop
      vertex 8.78958 1.93473 72
      vertex 8.59912 2.5 70.5
      vertex 8.78958 1.93473 70.5
    endloop
  endfacet
  facet normal -0.947653 -0.319301 -7.03226e-08
    outer loop
      vertex 8.59912 2.5 70.5
      vertex 8.78958 1.93473 72
      vertex 8.16818 3.779 72
    endloop
  endfacet
  facet normal 0.647386 -0.762162 0
    outer loop
      vertex -6.53396 6.18929 0
      vertex -5.05068 7.4492 72
      vertex -6.53396 6.18929 72
    endloop
  endfacet
  facet normal 0.647386 -0.762162 0
    outer loop
      vertex -5.05068 7.4492 72
      vertex -6.53396 6.18929 0
      vertex -5.05068 7.4492 0
    endloop
  endfacet
  facet normal 0.267528 -0.96355 0
    outer loop
      vertex -3.33124 8.36079 0
      vertex -1.45604 8.88144 72
      vertex -3.33124 8.36079 72
    endloop
  endfacet
  facet normal 0.267528 -0.96355 0
    outer loop
      vertex -1.45604 8.88144 72
      vertex -3.33124 8.36079 0
      vertex -1.45604 8.88144 0
    endloop
  endfacet
  facet normal -0.856857 0.515554 0
    outer loop
      vertex 7.16484 -5.44657 0
      vertex 8.16818 -3.779 72
      vertex 8.16818 -3.779 0
    endloop
  endfacet
  facet normal -0.856857 0.515554 0
    outer loop
      vertex 8.16818 -3.779 72
      vertex 7.16484 -5.44657 0
      vertex 7.16484 -5.44657 72
    endloop
  endfacet
  facet normal -0.856857 -0.515554 0
    outer loop
      vertex 8.16818 3.779 0
      vertex 7.16484 5.44657 72
      vertex 7.16484 5.44657 0
    endloop
  endfacet
  facet normal -0.856857 -0.515554 0
    outer loop
      vertex 7.16484 5.44657 72
      vertex 8.16818 3.779 0
      vertex 8.16818 3.779 72
    endloop
  endfacet
  facet normal -0.370138 -0.928977 0
    outer loop
      vertex 2.40775 8.67195 0
      vertex 4.21568 7.95161 72
      vertex 2.40775 8.67195 72
    endloop
  endfacet
  facet normal -0.370138 -0.928977 -0
    outer loop
      vertex 4.21568 7.95161 72
      vertex 2.40775 8.67195 0
      vertex 4.21568 7.95161 0
    endloop
  endfacet
  facet normal -0.161782 -0.986827 0
    outer loop
      vertex 0.487249 8.9868 0
      vertex 2.40775 8.67195 72
      vertex 0.487249 8.9868 72
    endloop
  endfacet
  facet normal -0.161782 -0.986827 -0
    outer loop
      vertex 2.40775 8.67195 72
      vertex 0.487249 8.9868 0
      vertex 2.40775 8.67195 0
    endloop
  endfacet
  facet normal -0.561187 -0.827689 0
    outer loop
      vertex 4.21568 7.95161 0
      vertex 5.82648 6.85946 72
      vertex 4.21568 7.95161 72
    endloop
  endfacet
  facet normal -0.561187 -0.827689 -0
    outer loop
      vertex 5.82648 6.85946 72
      vertex 4.21568 7.95161 0
      vertex 5.82648 6.85946 0
    endloop
  endfacet
  facet normal 0.907575 -0.419889 0
    outer loop
      vertex -8.52888 2.87371 72
      vertex -7.71171 4.63998 0
      vertex -7.71171 4.63998 72
    endloop
  endfacet
  facet normal 0.907575 -0.419889 0
    outer loop
      vertex -7.71171 4.63998 0
      vertex -8.52888 2.87371 72
      vertex -8.52888 2.87371 0
    endloop
  endfacet
  facet normal 0.796093 -0.605174 0
    outer loop
      vertex -7.71171 4.63998 72
      vertex -6.53396 6.18929 0
      vertex -6.53396 6.18929 72
    endloop
  endfacet
  facet normal 0.796093 -0.605174 0
    outer loop
      vertex -6.53396 6.18929 0
      vertex -7.71171 4.63998 72
      vertex -7.71171 4.63998 0
    endloop
  endfacet
  facet normal 0.976621 -0.21497 0
    outer loop
      vertex -8.94724 0.973071 72
      vertex -8.52888 2.87371 0
      vertex -8.52888 2.87371 72
    endloop
  endfacet
  facet normal 0.976621 -0.21497 0
    outer loop
      vertex -8.52888 2.87371 0
      vertex -8.94724 0.973071 72
      vertex -8.94724 0.973071 0
    endloop
  endfacet
  facet normal 0.468408 -0.883512 0
    outer loop
      vertex -5.05068 7.4492 0
      vertex -3.33124 8.36079 72
      vertex -5.05068 7.4492 72
    endloop
  endfacet
  facet normal 0.468408 -0.883512 0
    outer loop
      vertex -3.33124 8.36079 72
      vertex -5.05068 7.4492 0
      vertex -3.33124 8.36079 0
    endloop
  endfacet
  facet normal -0.994138 0.108119 0
    outer loop
      vertex 8.78958 -1.93473 70.5
      vertex 9 0 72
      vertex 9 0 70.5
    endloop
  endfacet
  facet normal -0.994138 0.108119 0
    outer loop
      vertex 9 0 72
      vertex 8.78958 -1.93473 70.5
      vertex 8.78958 -1.93473 72
    endloop
  endfacet
  facet normal -0.947653 0.319301 0
    outer loop
      vertex 8.59912 -2.5 0
      vertex 8.16818 -3.779 0
      vertex 8.59912 -2.5 70.5
    endloop
  endfacet
  facet normal -0.947653 0.319301 0
    outer loop
      vertex 8.59912 -2.5 70.5
      vertex 8.78958 -1.93473 72
      vertex 8.78958 -1.93473 70.5
    endloop
  endfacet
  facet normal -0.947653 0.319301 -7.03226e-08
    outer loop
      vertex 8.59912 -2.5 70.5
      vertex 8.16818 -3.779 72
      vertex 8.78958 -1.93473 72
    endloop
  endfacet
  facet normal -0.947653 0.319301 0
    outer loop
      vertex 8.16818 -3.779 72
      vertex 8.59912 -2.5 70.5
      vertex 8.16818 -3.779 0
    endloop
  endfacet
  facet normal 0.796093 0.605174 0
    outer loop
      vertex -6.53396 -6.18929 72
      vertex -7.71171 -4.63998 0
      vertex -7.71171 -4.63998 72
    endloop
  endfacet
  facet normal 0.796093 0.605174 0
    outer loop
      vertex -7.71171 -4.63998 0
      vertex -6.53396 -6.18929 72
      vertex -6.53396 -6.18929 0
    endloop
  endfacet
  facet normal -0.370138 0.928977 0
    outer loop
      vertex 4.21568 -7.95161 0
      vertex 2.40775 -8.67195 72
      vertex 4.21568 -7.95161 72
    endloop
  endfacet
  facet normal -0.370138 0.928977 0
    outer loop
      vertex 2.40775 -8.67195 72
      vertex 4.21568 -7.95161 0
      vertex 2.40775 -8.67195 0
    endloop
  endfacet
  facet normal -0.725996 0.687699 0
    outer loop
      vertex 5.82648 -6.85946 0
      vertex 7.16484 -5.44657 72
      vertex 7.16484 -5.44657 0
    endloop
  endfacet
  facet normal -0.725996 0.687699 0
    outer loop
      vertex 7.16484 -5.44657 72
      vertex 5.82648 -6.85946 0
      vertex 5.82648 -6.85946 72
    endloop
  endfacet
  facet normal 0.468408 0.883512 -0
    outer loop
      vertex -3.33124 -8.36079 0
      vertex -5.05068 -7.4492 72
      vertex -3.33124 -8.36079 72
    endloop
  endfacet
  facet normal 0.468408 0.883512 0
    outer loop
      vertex -5.05068 -7.4492 72
      vertex -3.33124 -8.36079 0
      vertex -5.05068 -7.4492 0
    endloop
  endfacet
  facet normal 0.267528 0.96355 -0
    outer loop
      vertex -1.45604 -8.88144 0
      vertex -3.33124 -8.36079 72
      vertex -1.45604 -8.88144 72
    endloop
  endfacet
  facet normal 0.267528 0.96355 0
    outer loop
      vertex -3.33124 -8.36079 72
      vertex -1.45604 -8.88144 0
      vertex -3.33124 -8.36079 0
    endloop
  endfacet
  facet normal 0.0541389 0.998533 -0
    outer loop
      vertex 0.487249 -8.9868 0
      vertex -1.45604 -8.88144 72
      vertex 0.487249 -8.9868 72
    endloop
  endfacet
  facet normal 0.0541389 0.998533 0
    outer loop
      vertex -1.45604 -8.88144 72
      vertex 0.487249 -8.9868 0
      vertex -1.45604 -8.88144 0
    endloop
  endfacet
  facet normal 0.647386 0.762162 -0
    outer loop
      vertex -5.05068 -7.4492 0
      vertex -6.53396 -6.18929 72
      vertex -5.05068 -7.4492 72
    endloop
  endfacet
  facet normal 0.647386 0.762162 0
    outer loop
      vertex -6.53396 -6.18929 72
      vertex -5.05068 -7.4492 0
      vertex -6.53396 -6.18929 0
    endloop
  endfacet
  facet normal 0.907575 0.419889 0
    outer loop
      vertex -7.71171 -4.63998 72
      vertex -8.52888 -2.87371 0
      vertex -8.52888 -2.87371 72
    endloop
  endfacet
  facet normal 0.907575 0.419889 0
    outer loop
      vertex -8.52888 -2.87371 0
      vertex -7.71171 -4.63998 72
      vertex -7.71171 -4.63998 0
    endloop
  endfacet
  facet normal 0.976621 0.21497 0
    outer loop
      vertex -8.52888 -2.87371 72
      vertex -8.94724 -0.973071 0
      vertex -8.94724 -0.973071 72
    endloop
  endfacet
  facet normal 0.976621 0.21497 0
    outer loop
      vertex -8.94724 -0.973071 0
      vertex -8.52888 -2.87371 72
      vertex -8.52888 -2.87371 0
    endloop
  endfacet
  facet normal -0.561187 0.827689 0
    outer loop
      vertex 5.82648 -6.85946 0
      vertex 4.21568 -7.95161 72
      vertex 5.82648 -6.85946 72
    endloop
  endfacet
  facet normal -0.561187 0.827689 0
    outer loop
      vertex 4.21568 -7.95161 72
      vertex 5.82648 -6.85946 0
      vertex 4.21568 -7.95161 0
    endloop
  endfacet
  facet normal 0 0 -1
    outer loop
      vertex 10.5 -2.5 70.5
      vertex 9 0 70.5
      vertex 10.5 2.5 70.5
    endloop
  endfacet
  facet normal 0 0 -1
    outer loop
      vertex 10.5 -2.5 70.5
      vertex 8.78958 -1.93473 70.5
      vertex 9 0 70.5
    endloop
  endfacet
  facet normal 0 -0 -1
    outer loop
      vertex 8.78958 -1.93473 70.5
      vertex 10.5 -2.5 70.5
      vertex 8.59912 -2.5 70.5
    endloop
  endfacet
  facet normal 0 0 -1
    outer loop
      vertex 8.78958 1.93473 70.5
      vertex 10.5 2.5 70.5
      vertex 9 0 70.5
    endloop
  endfacet
  facet normal -0 0 -1
    outer loop
      vertex 10.5 2.5 70.5
      vertex 8.78958 1.93473 70.5
      vertex 8.59912 2.5 70.5
    endloop
  endfacet
  facet normal -1 0 0
    outer loop
      vertex 10.5 -2.5 0
      vertex 10.5 2.5 70.5
      vertex 10.5 2.5 0
    endloop
  endfacet
  facet normal -1 -0 0
    outer loop
      vertex 10.5 2.5 70.5
      vertex 10.5 -2.5 0
      vertex 10.5 -2.5 70.5
    endloop
  endfacet
  facet normal 0 -1 0
    outer loop
      vertex 8.59912 2.5 0
      vertex 10.5 2.5 70.5
      vertex 8.59912 2.5 70.5
    endloop
  endfacet
  facet normal 0 -1 -0
    outer loop
      vertex 10.5 2.5 70.5
      vertex 8.59912 2.5 0
      vertex 10.5 2.5 0
    endloop
  endfacet
  facet normal 0 1 -0
    outer loop
      vertex 10.5 -2.5 0
      vertex 8.59912 -2.5 70.5
      vertex 10.5 -2.5 70.5
    endloop
  endfacet
  facet normal 0 1 0
    outer loop
      vertex 8.59912 -2.5 70.5
      vertex 10.5 -2.5 0
      vertex 8.59912 -2.5 0
    endloop
  endfacet
endsolid OpenSCAD_Model
