solid OpenSCAD_Model
  facet normal 0.994522 -0.104529 0
    outer loop
      vertex 9.78148 -2.07912 1
      vertex 10 0 -1
      vertex 10 0 1
    endloop
  endfacet
  facet normal 0.994522 -0.104529 0
    outer loop
      vertex 10 0 -1
      vertex 9.78148 -2.07912 1
      vertex 9.78148 -2.07912 -1
    endloop
  endfacet
  facet normal 0.951057 -0.309017 0
    outer loop
      vertex 9.13545 -4.06737 1
      vertex 9.78148 -2.07912 -1
      vertex 9.78148 -2.07912 1
    endloop
  endfacet
  facet normal 0.951057 -0.309017 0
    outer loop
      vertex 9.78148 -2.07912 -1
      vertex 9.13545 -4.06737 1
      vertex 9.13545 -4.06737 -1
    endloop
  endfacet
  facet normal -0.866026 -0.5 0
    outer loop
      vertex -8.09017 -5.87785 -1
      vertex -9.13545 -4.06737 1
      vertex -9.13545 -4.06737 -1
    endloop
  endfacet
  facet normal -0.866026 -0.5 0
    outer loop
      vertex -9.13545 -4.06737 1
      vertex -8.09017 -5.87785 -1
      vertex -8.09017 -5.87785 1
    endloop
  endfacet
  facet normal 0.587785 -0.809017 0
    outer loop
      vertex 5 -8.66025 -1
      vertex 6.69131 -7.43145 1
      vertex 5 -8.66025 1
    endloop
  endfacet
  facet normal 0.587785 -0.809017 0
    outer loop
      vertex 6.69131 -7.43145 1
      vertex 5 -8.66025 -1
      vertex 6.69131 -7.43145 -1
    endloop
  endfacet
  facet normal 0 0 1
    outer loop
      vertex 5 10 1
      vertex 2.5 5 1
      vertex 5 0 1
    endloop
  endfacet
  facet normal 0 0 1
    outer loop
      vertex 5 10 1
      vertex 1.76777 6.76777 1
      vertex 2.5 5 1
    endloop
  endfacet
  facet normal 0 0 1
    outer loop
      vertex 5 10 1
      vertex 0 7.5 1
      vertex 1.76777 6.76777 1
    endloop
  endfacet
  facet normal 0 0 1
    outer loop
      vertex -10 7.5 1
      vertex 0 7.5 1
      vertex 5 10 1
    endloop
  endfacet
  facet normal 0 0 1
    outer loop
      vertex -0.5 0 1
      vertex -5 -8.66025 1
      vertex -3.09017 -9.51056 1
    endloop
  endfacet
  facet normal 0 0 1
    outer loop
      vertex -1.76777 3.23223 1
      vertex -6.69131 -7.43145 1
      vertex -5 -8.66025 1
    endloop
  endfacet
  facet normal 0 0 1
    outer loop
      vertex -8.23223 3.23223 1
      vertex -2.5 5 1
      vertex -7.5 5 1
    endloop
  endfacet
  facet normal 0 0 1
    outer loop
      vertex -1.76777 6.76777 1
      vertex -7.5 5 1
      vertex -2.5 5 1
    endloop
  endfacet
  facet normal 0 0 1
    outer loop
      vertex 0 7.5 1
      vertex -10 7.5 1
      vertex -1.76777 6.76777 1
    endloop
  endfacet
  facet normal 0 0 1
    outer loop
      vertex -1.76777 6.76777 1
      vertex -8.23223 6.76777 1
      vertex -7.5 5 1
    endloop
  endfacet
  facet normal 0 0 1
    outer loop
      vertex -1.76777 6.76777 1
      vertex -10 7.5 1
      vertex -8.23223 6.76777 1
    endloop
  endfacet
  facet normal 0 0 1
    outer loop
      vertex -11.7678 6.76777 1
      vertex -15 10 1
      vertex -12.5 5 1
    endloop
  endfacet
  facet normal 0 0 1
    outer loop
      vertex -10 7.5 1
      vertex -15 10 1
      vertex -11.7678 6.76777 1
    endloop
  endfacet
  facet normal -0 0 1
    outer loop
      vertex -15 10 1
      vertex -10 7.5 1
      vertex 5 10 1
    endloop
  endfacet
  facet normal -0 0 1
    outer loop
      vertex 1.76777 3.23223 1
      vertex 5 0 1
      vertex 2.5 5 1
    endloop
  endfacet
  facet normal 0 0 1
    outer loop
      vertex -0.5 0 1
      vertex 1.76777 3.23223 1
      vertex 0 2.5 1
    endloop
  endfacet
  facet normal 0 0 1
    outer loop
      vertex 1.76777 3.23223 1
      vertex -0.5 0 1
      vertex 5 0 1
    endloop
  endfacet
  facet normal 0 0 1
    outer loop
      vertex -1.76777 3.23223 1
      vertex -0.5 0 1
      vertex 0 2.5 1
    endloop
  endfacet
  facet normal 0 0 1
    outer loop
      vertex -5 -8.66025 1
      vertex -0.5 0 1
      vertex -1.76777 3.23223 1
    endloop
  endfacet
  facet normal 0 0 1
    outer loop
      vertex -8.23223 3.23223 1
      vertex -1.76777 3.23223 1
      vertex -2.5 5 1
    endloop
  endfacet
  facet normal 0 0 1
    outer loop
      vertex -0.5 0 1
      vertex -3.09017 -9.51056 1
      vertex -1.04528 -9.94522 1
    endloop
  endfacet
  facet normal -0 0 1
    outer loop
      vertex 9.5 0 1
      vertex 9.78148 -2.07912 1
      vertex 10 0 1
    endloop
  endfacet
  facet normal -0 0 1
    outer loop
      vertex 9.1194 -1.91342 1
      vertex 9.78148 -2.07912 1
      vertex 9.5 0 1
    endloop
  endfacet
  facet normal 0 0 1
    outer loop
      vertex 9.78148 -2.07912 1
      vertex 9.1194 -1.91342 1
      vertex 9.13545 -4.06737 1
    endloop
  endfacet
  facet normal -0 0 1
    outer loop
      vertex 8.03553 -3.53553 1
      vertex 9.13545 -4.06737 1
      vertex 9.1194 -1.91342 1
    endloop
  endfacet
  facet normal 0 0 1
    outer loop
      vertex 9.13545 -4.06737 1
      vertex 8.03553 -3.53553 1
      vertex 8.09017 -5.87785 1
    endloop
  endfacet
  facet normal -0 0 1
    outer loop
      vertex 6.41342 -4.6194 1
      vertex 8.09017 -5.87785 1
      vertex 8.03553 -3.53553 1
    endloop
  endfacet
  facet normal 0 0 1
    outer loop
      vertex 8.09017 -5.87785 1
      vertex 6.41342 -4.6194 1
      vertex 6.69131 -7.43145 1
    endloop
  endfacet
  facet normal -0 0 1
    outer loop
      vertex 4.5 -5 1
      vertex 6.69131 -7.43145 1
      vertex 6.41342 -4.6194 1
    endloop
  endfacet
  facet normal 0 0 1
    outer loop
      vertex 6.69131 -7.43145 1
      vertex 4.5 -5 1
      vertex 5 -8.66025 1
    endloop
  endfacet
  facet normal 0 0 1
    outer loop
      vertex 4.5 -5 1
      vertex 3.09017 -9.51056 1
      vertex 5 -8.66025 1
    endloop
  endfacet
  facet normal 0 0 1
    outer loop
      vertex 2.58658 -4.6194 1
      vertex 3.09017 -9.51056 1
      vertex 4.5 -5 1
    endloop
  endfacet
  facet normal 0 0 1
    outer loop
      vertex 2.58658 -4.6194 1
      vertex 1.04528 -9.94522 1
      vertex 3.09017 -9.51056 1
    endloop
  endfacet
  facet normal 0 0 1
    outer loop
      vertex 0.964465 -3.53553 1
      vertex 1.04528 -9.94522 1
      vertex 2.58658 -4.6194 1
    endloop
  endfacet
  facet normal 0 0 1
    outer loop
      vertex -1.04528 -9.94522 1
      vertex 0.964465 -3.53553 1
      vertex -0.119397 -1.91342 1
    endloop
  endfacet
  facet normal 0 0 1
    outer loop
      vertex -1.04528 -9.94522 1
      vertex -0.119397 -1.91342 1
      vertex -0.5 0 1
    endloop
  endfacet
  facet normal 0 0 1
    outer loop
      vertex 0.964465 -3.53553 1
      vertex -1.04528 -9.94522 1
      vertex 1.04528 -9.94522 1
    endloop
  endfacet
  facet normal 0 0 1
    outer loop
      vertex -1.76777 3.23223 1
      vertex -8.23223 3.23223 1
      vertex -9.78148 -2.07912 1
    endloop
  endfacet
  facet normal 0 0 1
    outer loop
      vertex -1.76777 3.23223 1
      vertex -8.09017 -5.87785 1
      vertex -6.69131 -7.43145 1
    endloop
  endfacet
  facet normal 0 0 1
    outer loop
      vertex -1.76777 3.23223 1
      vertex -9.13545 -4.06737 1
      vertex -8.09017 -5.87785 1
    endloop
  endfacet
  facet normal 0 0 1
    outer loop
      vertex -1.76777 3.23223 1
      vertex -9.78148 -2.07912 1
      vertex -9.13545 -4.06737 1
    endloop
  endfacet
  facet normal 0 0 1
    outer loop
      vertex -10 0 1
      vertex -8.23223 3.23223 1
      vertex -10 2.5 1
    endloop
  endfacet
  facet normal 0 0 1
    outer loop
      vertex -8.23223 3.23223 1
      vertex -10 0 1
      vertex -9.78148 -2.07912 1
    endloop
  endfacet
  facet normal 0 0 1
    outer loop
      vertex -11.7678 3.23223 1
      vertex -10 0 1
      vertex -10 2.5 1
    endloop
  endfacet
  facet normal 0 0 1
    outer loop
      vertex -15 0 1
      vertex -12.5 5 1
      vertex -15 10 1
    endloop
  endfacet
  facet normal 0 0 1
    outer loop
      vertex -11.7678 3.23223 1
      vertex -15 0 1
      vertex -10 0 1
    endloop
  endfacet
  facet normal 0 0 1
    outer loop
      vertex -12.5 5 1
      vertex -15 0 1
      vertex -11.7678 3.23223 1
    endloop
  endfacet
  facet normal 0.866026 -0.5 0
    outer loop
      vertex 8.09017 -5.87785 1
      vertex 9.13545 -4.06737 -1
      vertex 9.13545 -4.06737 1
    endloop
  endfacet
  facet normal 0.866026 -0.5 0
    outer loop
      vertex 9.13545 -4.06737 -1
      vertex 8.09017 -5.87785 1
      vertex 8.09017 -5.87785 -1
    endloop
  endfacet
  facet normal -0.994522 -0.104529 0
    outer loop
      vertex -9.78148 -2.07912 -1
      vertex -10 0 1
      vertex -10 0 -1
    endloop
  endfacet
  facet normal -0.994522 -0.104529 0
    outer loop
      vertex -10 0 1
      vertex -9.78148 -2.07912 -1
      vertex -9.78148 -2.07912 1
    endloop
  endfacet
  facet normal 0.207911 -0.978148 0
    outer loop
      vertex 1.04528 -9.94522 -1
      vertex 3.09017 -9.51056 1
      vertex 1.04528 -9.94522 1
    endloop
  endfacet
  facet normal 0.207911 -0.978148 0
    outer loop
      vertex 3.09017 -9.51056 1
      vertex 1.04528 -9.94522 -1
      vertex 3.09017 -9.51056 -1
    endloop
  endfacet
  facet normal 0.406737 -0.913545 0
    outer loop
      vertex 3.09017 -9.51056 -1
      vertex 5 -8.66025 1
      vertex 3.09017 -9.51056 1
    endloop
  endfacet
  facet normal 0.406737 -0.913545 0
    outer loop
      vertex 5 -8.66025 1
      vertex 3.09017 -9.51056 -1
      vertex 5 -8.66025 -1
    endloop
  endfacet
  facet normal -0.207911 -0.978148 0
    outer loop
      vertex -3.09017 -9.51056 -1
      vertex -1.04528 -9.94522 1
      vertex -3.09017 -9.51056 1
    endloop
  endfacet
  facet normal -0.207911 -0.978148 -0
    outer loop
      vertex -1.04528 -9.94522 1
      vertex -3.09017 -9.51056 -1
      vertex -1.04528 -9.94522 -1
    endloop
  endfacet
  facet normal 0 -1 0
    outer loop
      vertex -1.04528 -9.94522 -1
      vertex 1.04528 -9.94522 1
      vertex -1.04528 -9.94522 1
    endloop
  endfacet
  facet normal 0 -1 -0
    outer loop
      vertex 1.04528 -9.94522 1
      vertex -1.04528 -9.94522 -1
      vertex 1.04528 -9.94522 -1
    endloop
  endfacet
  facet normal 0 0 -1
    outer loop
      vertex 9.78148 -2.07912 -1
      vertex 9.5 0 -1
      vertex 10 0 -1
    endloop
  endfacet
  facet normal 0 0 -1
    outer loop
      vertex 9.1194 -1.91342 -1
      vertex 9.78148 -2.07912 -1
      vertex 9.13545 -4.06737 -1
    endloop
  endfacet
  facet normal 0 0 -1
    outer loop
      vertex 9.78148 -2.07912 -1
      vertex 9.1194 -1.91342 -1
      vertex 9.5 0 -1
    endloop
  endfacet
  facet normal 0 0 -1
    outer loop
      vertex 8.03553 -3.53553 -1
      vertex 9.13545 -4.06737 -1
      vertex 8.09017 -5.87785 -1
    endloop
  endfacet
  facet normal 0 0 -1
    outer loop
      vertex 9.13545 -4.06737 -1
      vertex 8.03553 -3.53553 -1
      vertex 9.1194 -1.91342 -1
    endloop
  endfacet
  facet normal 0 0 -1
    outer loop
      vertex 6.41342 -4.6194 -1
      vertex 8.09017 -5.87785 -1
      vertex 6.69131 -7.43145 -1
    endloop
  endfacet
  facet normal 0 0 -1
    outer loop
      vertex 8.09017 -5.87785 -1
      vertex 6.41342 -4.6194 -1
      vertex 8.03553 -3.53553 -1
    endloop
  endfacet
  facet normal 0 0 -1
    outer loop
      vertex 4.5 -5 -1
      vertex 6.69131 -7.43145 -1
      vertex 5 -8.66025 -1
    endloop
  endfacet
  facet normal 0 0 -1
    outer loop
      vertex 6.69131 -7.43145 -1
      vertex 4.5 -5 -1
      vertex 6.41342 -4.6194 -1
    endloop
  endfacet
  facet normal 0 0 -1
    outer loop
      vertex 3.09017 -9.51056 -1
      vertex 4.5 -5 -1
      vertex 5 -8.66025 -1
    endloop
  endfacet
  facet normal 0 0 -1
    outer loop
      vertex 3.09017 -9.51056 -1
      vertex 2.58658 -4.6194 -1
      vertex 4.5 -5 -1
    endloop
  endfacet
  facet normal 0 0 -1
    outer loop
      vertex 1.04528 -9.94522 -1
      vertex 2.58658 -4.6194 -1
      vertex 3.09017 -9.51056 -1
    endloop
  endfacet
  facet normal 0 0 -1
    outer loop
      vertex 1.04528 -9.94522 -1
      vertex 0.964465 -3.53553 -1
      vertex 2.58658 -4.6194 -1
    endloop
  endfacet
  facet normal 0 0 -1
    outer loop
      vertex -1.04528 -9.94522 -1
      vertex 0.964465 -3.53553 -1
      vertex 1.04528 -9.94522 -1
    endloop
  endfacet
  facet normal 0 0 -1
    outer loop
      vertex -3.09017 -9.51056 -1
      vertex 0.964465 -3.53553 -1
      vertex -1.04528 -9.94522 -1
    endloop
  endfacet
  facet normal 0 0 -1
    outer loop
      vertex -5 -8.66025 -1
      vertex 0.964465 -3.53553 -1
      vertex -3.09017 -9.51056 -1
    endloop
  endfacet
  facet normal 0 0 -1
    outer loop
      vertex 5 0 -1
      vertex 2.5 5 -1
      vertex 5 10 -1
    endloop
  endfacet
  facet normal 0 0 -1
    outer loop
      vertex 5 0 -1
      vertex 1.76777 3.23223 -1
      vertex 2.5 5 -1
    endloop
  endfacet
  facet normal 0 0 -1
    outer loop
      vertex -0.5 0 -1
      vertex 1.76777 3.23223 -1
      vertex 5 0 -1
    endloop
  endfacet
  facet normal 0 0 -1
    outer loop
      vertex 1.76777 3.23223 -1
      vertex -0.5 0 -1
      vertex 0 2.5 -1
    endloop
  endfacet
  facet normal 0 0 -1
    outer loop
      vertex -0.5 0 -1
      vertex -1.76777 3.23223 -1
      vertex 0 2.5 -1
    endloop
  endfacet
  facet normal -0 0 -1
    outer loop
      vertex 0.964465 -3.53553 -1
      vertex -5 -8.66025 -1
      vertex -0.119397 -1.91342 -1
    endloop
  endfacet
  facet normal 0 0 -1
    outer loop
      vertex -6.69131 -7.43145 -1
      vertex -0.119397 -1.91342 -1
      vertex -5 -8.66025 -1
    endloop
  endfacet
  facet normal 0 0 -1
    outer loop
      vertex -8.09017 -5.87785 -1
      vertex -0.119397 -1.91342 -1
      vertex -6.69131 -7.43145 -1
    endloop
  endfacet
  facet normal 0 0 -1
    outer loop
      vertex 1.76777 6.76777 -1
      vertex 5 10 -1
      vertex 2.5 5 -1
    endloop
  endfacet
  facet normal 0 0 -1
    outer loop
      vertex 0 7.5 -1
      vertex 5 10 -1
      vertex 1.76777 6.76777 -1
    endloop
  endfacet
  facet normal 0 0 -1
    outer loop
      vertex -10 7.5 -1
      vertex 0 7.5 -1
      vertex -1.76777 6.76777 -1
    endloop
  endfacet
  facet normal 0 0 -1
    outer loop
      vertex -9.13545 -4.06737 -1
      vertex -0.119397 -1.91342 -1
      vertex -8.09017 -5.87785 -1
    endloop
  endfacet
  facet normal -0 0 -1
    outer loop
      vertex -0.119397 -1.91342 -1
      vertex -9.13545 -4.06737 -1
      vertex -0.5 0 -1
    endloop
  endfacet
  facet normal 0 0 -1
    outer loop
      vertex -9.78148 -2.07912 -1
      vertex -0.5 0 -1
      vertex -9.13545 -4.06737 -1
    endloop
  endfacet
  facet normal 0 0 -1
    outer loop
      vertex -7.5 5 -1
      vertex -1.76777 6.76777 -1
      vertex -2.5 5 -1
    endloop
  endfacet
  facet normal 0 0 -1
    outer loop
      vertex -8.23223 6.76777 -1
      vertex -1.76777 6.76777 -1
      vertex -7.5 5 -1
    endloop
  endfacet
  facet normal 0 0 -1
    outer loop
      vertex -10 7.5 -1
      vertex -1.76777 6.76777 -1
      vertex -8.23223 6.76777 -1
    endloop
  endfacet
  facet normal 0 0 -1
    outer loop
      vertex 0 7.5 -1
      vertex -10 7.5 -1
      vertex 5 10 -1
    endloop
  endfacet
  facet normal 0 0 -1
    outer loop
      vertex -15 10 -1
      vertex -12.5 5 -1
      vertex -15 0 -1
    endloop
  endfacet
  facet normal 0 0 -1
    outer loop
      vertex -10 7.5 -1
      vertex -15 10 -1
      vertex 5 10 -1
    endloop
  endfacet
  facet normal 0 0 -1
    outer loop
      vertex -11.7678 6.76777 -1
      vertex -15 10 -1
      vertex -10 7.5 -1
    endloop
  endfacet
  facet normal 0 0 -1
    outer loop
      vertex -12.5 5 -1
      vertex -15 10 -1
      vertex -11.7678 6.76777 -1
    endloop
  endfacet
  facet normal 0 0 -1
    outer loop
      vertex -10 0 -1
      vertex -0.5 0 -1
      vertex -9.78148 -2.07912 -1
    endloop
  endfacet
  facet normal -0 0 -1
    outer loop
      vertex -2.5 5 -1
      vertex -8.23223 3.23223 -1
      vertex -7.5 5 -1
    endloop
  endfacet
  facet normal 0 0 -1
    outer loop
      vertex -0.5 0 -1
      vertex -8.23223 3.23223 -1
      vertex -1.76777 3.23223 -1
    endloop
  endfacet
  facet normal 0 0 -1
    outer loop
      vertex -1.76777 3.23223 -1
      vertex -8.23223 3.23223 -1
      vertex -2.5 5 -1
    endloop
  endfacet
  facet normal 0 0 -1
    outer loop
      vertex -0.5 0 -1
      vertex -10 0 -1
      vertex -8.23223 3.23223 -1
    endloop
  endfacet
  facet normal 0 0 -1
    outer loop
      vertex -10 0 -1
      vertex -10 2.5 -1
      vertex -8.23223 3.23223 -1
    endloop
  endfacet
  facet normal 0 0 -1
    outer loop
      vertex -10 0 -1
      vertex -11.7678 3.23223 -1
      vertex -10 2.5 -1
    endloop
  endfacet
  facet normal -0 0 -1
    outer loop
      vertex -11.7678 3.23223 -1
      vertex -15 0 -1
      vertex -12.5 5 -1
    endloop
  endfacet
  facet normal 0 0 -1
    outer loop
      vertex -15 0 -1
      vertex -11.7678 3.23223 -1
      vertex -10 0 -1
    endloop
  endfacet
  facet normal -0.951057 -0.309017 0
    outer loop
      vertex -9.13545 -4.06737 -1
      vertex -9.78148 -2.07912 1
      vertex -9.78148 -2.07912 -1
    endloop
  endfacet
  facet normal -0.951057 -0.309017 0
    outer loop
      vertex -9.78148 -2.07912 1
      vertex -9.13545 -4.06737 -1
      vertex -9.13545 -4.06737 1
    endloop
  endfacet
  facet normal -0.743145 -0.669131 0
    outer loop
      vertex -6.69131 -7.43145 -1
      vertex -8.09017 -5.87785 1
      vertex -8.09017 -5.87785 -1
    endloop
  endfacet
  facet normal -0.743145 -0.669131 0
    outer loop
      vertex -8.09017 -5.87785 1
      vertex -6.69131 -7.43145 -1
      vertex -6.69131 -7.43145 1
    endloop
  endfacet
  facet normal 0.743145 -0.669131 0
    outer loop
      vertex 6.69131 -7.43145 1
      vertex 8.09017 -5.87785 -1
      vertex 8.09017 -5.87785 1
    endloop
  endfacet
  facet normal 0.743145 -0.669131 0
    outer loop
      vertex 8.09017 -5.87785 -1
      vertex 6.69131 -7.43145 1
      vertex 6.69131 -7.43145 -1
    endloop
  endfacet
  facet normal -0.406737 -0.913545 0
    outer loop
      vertex -5 -8.66025 -1
      vertex -3.09017 -9.51056 1
      vertex -5 -8.66025 1
    endloop
  endfacet
  facet normal -0.406737 -0.913545 -0
    outer loop
      vertex -3.09017 -9.51056 1
      vertex -5 -8.66025 -1
      vertex -3.09017 -9.51056 -1
    endloop
  endfacet
  facet normal -0.587785 -0.809017 0
    outer loop
      vertex -6.69131 -7.43145 -1
      vertex -5 -8.66025 1
      vertex -6.69131 -7.43145 1
    endloop
  endfacet
  facet normal -0.587785 -0.809017 -0
    outer loop
      vertex -5 -8.66025 1
      vertex -6.69131 -7.43145 -1
      vertex -5 -8.66025 -1
    endloop
  endfacet
  facet normal -0.195091 0.980785 0
    outer loop
      vertex 6.41342 -4.6194 -1
      vertex 4.5 -5 1
      vertex 6.41342 -4.6194 1
    endloop
  endfacet
  facet normal -0.195091 0.980785 0
    outer loop
      vertex 4.5 -5 1
      vertex 6.41342 -4.6194 -1
      vertex 4.5 -5 -1
    endloop
  endfacet
  facet normal 0.195091 0.980785 -0
    outer loop
      vertex 4.5 -5 -1
      vertex 2.58658 -4.6194 1
      vertex 4.5 -5 1
    endloop
  endfacet
  facet normal 0.195091 0.980785 0
    outer loop
      vertex 2.58658 -4.6194 1
      vertex 4.5 -5 -1
      vertex 2.58658 -4.6194 -1
    endloop
  endfacet
  facet normal 0.980785 0.195091 0
    outer loop
      vertex -0.119397 -1.91342 1
      vertex -0.5 0 -1
      vertex -0.5 0 1
    endloop
  endfacet
  facet normal 0.980785 0.195091 0
    outer loop
      vertex -0.5 0 -1
      vertex -0.119397 -1.91342 1
      vertex -0.119397 -1.91342 -1
    endloop
  endfacet
  facet normal 0.55557 0.83147 -0
    outer loop
      vertex 2.58658 -4.6194 -1
      vertex 0.964465 -3.53553 1
      vertex 2.58658 -4.6194 1
    endloop
  endfacet
  facet normal 0.55557 0.83147 0
    outer loop
      vertex 0.964465 -3.53553 1
      vertex 2.58658 -4.6194 -1
      vertex 0.964465 -3.53553 -1
    endloop
  endfacet
  facet normal -0.83147 0.55557 0
    outer loop
      vertex 8.03553 -3.53553 -1
      vertex 9.1194 -1.91342 1
      vertex 9.1194 -1.91342 -1
    endloop
  endfacet
  facet normal -0.83147 0.55557 0
    outer loop
      vertex 9.1194 -1.91342 1
      vertex 8.03553 -3.53553 -1
      vertex 8.03553 -3.53553 1
    endloop
  endfacet
  facet normal -0.55557 0.83147 0
    outer loop
      vertex 8.03553 -3.53553 -1
      vertex 6.41342 -4.6194 1
      vertex 8.03553 -3.53553 1
    endloop
  endfacet
  facet normal -0.55557 0.83147 0
    outer loop
      vertex 6.41342 -4.6194 1
      vertex 8.03553 -3.53553 -1
      vertex 6.41342 -4.6194 -1
    endloop
  endfacet
  facet normal -0.980785 0.195091 0
    outer loop
      vertex 9.1194 -1.91342 -1
      vertex 9.5 0 1
      vertex 9.5 0 -1
    endloop
  endfacet
  facet normal -0.980785 0.195091 0
    outer loop
      vertex 9.5 0 1
      vertex 9.1194 -1.91342 -1
      vertex 9.1194 -1.91342 1
    endloop
  endfacet
  facet normal 0.83147 0.55557 0
    outer loop
      vertex 0.964465 -3.53553 1
      vertex -0.119397 -1.91342 -1
      vertex -0.119397 -1.91342 1
    endloop
  endfacet
  facet normal 0.83147 0.55557 0
    outer loop
      vertex -0.119397 -1.91342 -1
      vertex 0.964465 -3.53553 1
      vertex 0.964465 -3.53553 -1
    endloop
  endfacet
  facet normal 0 -1 0
    outer loop
      vertex -15 0 -1
      vertex -10 0 1
      vertex -15 0 1
    endloop
  endfacet
  facet normal 0 -1 -0
    outer loop
      vertex -10 0 1
      vertex -15 0 -1
      vertex -10 0 -1
    endloop
  endfacet
  facet normal 0 -1 0
    outer loop
      vertex -0.5 0 -1
      vertex 5 0 1
      vertex -0.5 0 1
    endloop
  endfacet
  facet normal 0 -1 -0
    outer loop
      vertex 5 0 1
      vertex -0.5 0 -1
      vertex 5 0 -1
    endloop
  endfacet
  facet normal 0 1 -0
    outer loop
      vertex 10 0 -1
      vertex 9.5 0 1
      vertex 10 0 1
    endloop
  endfacet
  facet normal 0 1 0
    outer loop
      vertex 9.5 0 1
      vertex 10 0 -1
      vertex 9.5 0 -1
    endloop
  endfacet
  facet normal -1 0 0
    outer loop
      vertex -15 0 -1
      vertex -15 10 1
      vertex -15 10 -1
    endloop
  endfacet
  facet normal -1 -0 0
    outer loop
      vertex -15 10 1
      vertex -15 0 -1
      vertex -15 0 1
    endloop
  endfacet
  facet normal 1 -0 0
    outer loop
      vertex 5 0 1
      vertex 5 10 -1
      vertex 5 10 1
    endloop
  endfacet
  facet normal 1 0 0
    outer loop
      vertex 5 10 -1
      vertex 5 0 1
      vertex 5 0 -1
    endloop
  endfacet
  facet normal 0 1 -0
    outer loop
      vertex 5 10 -1
      vertex -15 10 1
      vertex 5 10 1
    endloop
  endfacet
  facet normal 0 1 0
    outer loop
      vertex -15 10 1
      vertex 5 10 -1
      vertex -15 10 -1
    endloop
  endfacet
  facet normal -0.92388 -0.382683 0
    outer loop
      vertex -7.5 5 -1
      vertex -8.23223 6.76777 1
      vertex -8.23223 6.76777 -1
    endloop
  endfacet
  facet normal -0.92388 -0.382683 0
    outer loop
      vertex -8.23223 6.76777 1
      vertex -7.5 5 -1
      vertex -7.5 5 1
    endloop
  endfacet
  facet normal 0.92388 -0.382683 0
    outer loop
      vertex -12.5 5 1
      vertex -11.7678 6.76777 -1
      vertex -11.7678 6.76777 1
    endloop
  endfacet
  facet normal 0.92388 -0.382683 0
    outer loop
      vertex -11.7678 6.76777 -1
      vertex -12.5 5 1
      vertex -12.5 5 -1
    endloop
  endfacet
  facet normal -0.382683 -0.92388 0
    outer loop
      vertex -10 7.5 -1
      vertex -8.23223 6.76777 1
      vertex -10 7.5 1
    endloop
  endfacet
  facet normal -0.382683 -0.92388 -0
    outer loop
      vertex -8.23223 6.76777 1
      vertex -10 7.5 -1
      vertex -8.23223 6.76777 -1
    endloop
  endfacet
  facet normal 0.382683 -0.92388 0
    outer loop
      vertex -11.7678 6.76777 -1
      vertex -10 7.5 1
      vertex -11.7678 6.76777 1
    endloop
  endfacet
  facet normal 0.382683 -0.92388 0
    outer loop
      vertex -10 7.5 1
      vertex -11.7678 6.76777 -1
      vertex -10 7.5 -1
    endloop
  endfacet
  facet normal -0.92388 0.382683 0
    outer loop
      vertex -8.23223 3.23223 -1
      vertex -7.5 5 1
      vertex -7.5 5 -1
    endloop
  endfacet
  facet normal -0.92388 0.382683 0
    outer loop
      vertex -7.5 5 1
      vertex -8.23223 3.23223 -1
      vertex -8.23223 3.23223 1
    endloop
  endfacet
  facet normal 0.382683 0.92388 -0
    outer loop
      vertex -10 2.5 -1
      vertex -11.7678 3.23223 1
      vertex -10 2.5 1
    endloop
  endfacet
  facet normal 0.382683 0.92388 0
    outer loop
      vertex -11.7678 3.23223 1
      vertex -10 2.5 -1
      vertex -11.7678 3.23223 -1
    endloop
  endfacet
  facet normal 0.92388 0.382683 0
    outer loop
      vertex -11.7678 3.23223 1
      vertex -12.5 5 -1
      vertex -12.5 5 1
    endloop
  endfacet
  facet normal 0.92388 0.382683 0
    outer loop
      vertex -12.5 5 -1
      vertex -11.7678 3.23223 1
      vertex -11.7678 3.23223 -1
    endloop
  endfacet
  facet normal -0.382683 0.92388 0
    outer loop
      vertex -8.23223 3.23223 -1
      vertex -10 2.5 1
      vertex -8.23223 3.23223 1
    endloop
  endfacet
  facet normal -0.382683 0.92388 0
    outer loop
      vertex -10 2.5 1
      vertex -8.23223 3.23223 -1
      vertex -10 2.5 -1
    endloop
  endfacet
  facet normal -0.92388 -0.382683 0
    outer loop
      vertex 2.5 5 -1
      vertex 1.76777 6.76777 1
      vertex 1.76777 6.76777 -1
    endloop
  endfacet
  facet normal -0.92388 -0.382683 0
    outer loop
      vertex 1.76777 6.76777 1
      vertex 2.5 5 -1
      vertex 2.5 5 1
    endloop
  endfacet
  facet normal 0.382683 -0.92388 0
    outer loop
      vertex -1.76777 6.76777 -1
      vertex 0 7.5 1
      vertex -1.76777 6.76777 1
    endloop
  endfacet
  facet normal 0.382683 -0.92388 0
    outer loop
      vertex 0 7.5 1
      vertex -1.76777 6.76777 -1
      vertex 0 7.5 -1
    endloop
  endfacet
  facet normal -0.382683 -0.92388 0
    outer loop
      vertex 0 7.5 -1
      vertex 1.76777 6.76777 1
      vertex 0 7.5 1
    endloop
  endfacet
  facet normal -0.382683 -0.92388 -0
    outer loop
      vertex 1.76777 6.76777 1
      vertex 0 7.5 -1
      vertex 1.76777 6.76777 -1
    endloop
  endfacet
  facet normal 0.92388 -0.382683 0
    outer loop
      vertex -2.5 5 1
      vertex -1.76777 6.76777 -1
      vertex -1.76777 6.76777 1
    endloop
  endfacet
  facet normal 0.92388 -0.382683 0
    outer loop
      vertex -1.76777 6.76777 -1
      vertex -2.5 5 1
      vertex -2.5 5 -1
    endloop
  endfacet
  facet normal -0.92388 0.382683 0
    outer loop
      vertex 1.76777 3.23223 -1
      vertex 2.5 5 1
      vertex 2.5 5 -1
    endloop
  endfacet
  facet normal -0.92388 0.382683 0
    outer loop
      vertex 2.5 5 1
      vertex 1.76777 3.23223 -1
      vertex 1.76777 3.23223 1
    endloop
  endfacet
  facet normal 0.382683 0.92388 -0
    outer loop
      vertex 0 2.5 -1
      vertex -1.76777 3.23223 1
      vertex 0 2.5 1
    endloop
  endfacet
  facet normal 0.382683 0.92388 0
    outer loop
      vertex -1.76777 3.23223 1
      vertex 0 2.5 -1
      vertex -1.76777 3.23223 -1
    endloop
  endfacet
  facet normal 0.92388 0.382683 0
    outer loop
      vertex -1.76777 3.23223 1
      vertex -2.5 5 -1
      vertex -2.5 5 1
    endloop
  endfacet
  facet normal 0.92388 0.382683 0
    outer loop
      vertex -2.5 5 -1
      vertex -1.76777 3.23223 1
      vertex -1.76777 3.23223 -1
    endloop
  endfacet
  facet normal -0.382683 0.92388 0
    outer loop
      vertex 1.76777 3.23223 -1
      vertex 0 2.5 1
      vertex 1.76777 3.23223 1
    endloop
  endfacet
  facet normal -0.382683 0.92388 0
    outer loop
      vertex 0 2.5 1
      vertex 1.76777 3.23223 -1
      vertex 0 2.5 -1
    endloop
  endfacet
endsolid OpenSCAD_Model
