solid OpenSCAD_Model
  facet normal -1 0 0
    outer loop
      vertex 0 0 0
      vertex 0 20 2
      vertex 0 20 0
    endloop
  endfacet
  facet normal -1 -0 0
    outer loop
      vertex 0 20 2
      vertex 0 0 0
      vertex 0 0 2
    endloop
  endfacet
  facet normal 0 0 1
    outer loop
      vertex 19.4829 36.9067 2
      vertex 9.82362 34.3185 2
      vertex 13.6603 20 2
    endloop
  endfacet
  facet normal 0 0 1
    outer loop
      vertex 79.4829 36.9067 2
      vertex 69.8236 34.3185 2
      vertex 73.6603 20 2
    endloop
  endfacet
  facet normal -0 0 1
    outer loop
      vertex 84.013 20 2
      vertex 100 0 2
      vertex 100 20 2
    endloop
  endfacet
  facet normal 0 0 1
    outer loop
      vertex 73.6603 20 2
      vertex 84.013 20 2
      vertex 79.4829 36.9067 2
    endloop
  endfacet
  facet normal -0 0 1
    outer loop
      vertex 73.6603 20 2
      vertex 100 0 2
      vertex 84.013 20 2
    endloop
  endfacet
  facet normal 0 0 1
    outer loop
      vertex 0 0 2
      vertex 73.6603 20 2
      vertex 24.013 20 2
    endloop
  endfacet
  facet normal 0 0 1
    outer loop
      vertex 13.6603 20 2
      vertex 24.013 20 2
      vertex 19.4829 36.9067 2
    endloop
  endfacet
  facet normal 0 0 1
    outer loop
      vertex 0 0 2
      vertex 24.013 20 2
      vertex 13.6603 20 2
    endloop
  endfacet
  facet normal 0 0 1
    outer loop
      vertex 0 0 2
      vertex 13.6603 20 2
      vertex 0 20 2
    endloop
  endfacet
  facet normal 0 0 1
    outer loop
      vertex 73.6603 20 2
      vertex 0 0 2
      vertex 100 0 2
    endloop
  endfacet
  facet normal 1 -0 0
    outer loop
      vertex 100 0 2
      vertex 100 20 0
      vertex 100 20 2
    endloop
  endfacet
  facet normal 1 0 0
    outer loop
      vertex 100 20 0
      vertex 100 0 2
      vertex 100 0 0
    endloop
  endfacet
  facet normal 0 1 -0
    outer loop
      vertex 100 20 0
      vertex 84.013 20 2
      vertex 100 20 2
    endloop
  endfacet
  facet normal 0 1 0
    outer loop
      vertex 84.013 20 2
      vertex 100 20 0
      vertex 84.013 20 0
    endloop
  endfacet
  facet normal 0 1 -0
    outer loop
      vertex 13.6603 20 0
      vertex 0 20 2
      vertex 13.6603 20 2
    endloop
  endfacet
  facet normal 0 1 0
    outer loop
      vertex 0 20 2
      vertex 13.6603 20 0
      vertex 0 20 0
    endloop
  endfacet
  facet normal 0 1 -0
    outer loop
      vertex 73.6603 20 0
      vertex 24.013 20 2
      vertex 73.6603 20 2
    endloop
  endfacet
  facet normal 0 1 0
    outer loop
      vertex 24.013 20 2
      vertex 73.6603 20 0
      vertex 24.013 20 0
    endloop
  endfacet
  facet normal 0 0 -1
    outer loop
      vertex 100 0 0
      vertex 84.013 20 0
      vertex 100 20 0
    endloop
  endfacet
  facet normal 0 0 -1
    outer loop
      vertex 84.013 20 0
      vertex 73.6603 20 0
      vertex 79.4829 36.9067 0
    endloop
  endfacet
  facet normal 0 0 -1
    outer loop
      vertex 100 0 0
      vertex 73.6603 20 0
      vertex 84.013 20 0
    endloop
  endfacet
  facet normal 0 0 -1
    outer loop
      vertex 0 0 0
      vertex 73.6603 20 0
      vertex 100 0 0
    endloop
  endfacet
  facet normal 0 0 -1
    outer loop
      vertex 24.013 20 0
      vertex 13.6603 20 0
      vertex 19.4829 36.9067 0
    endloop
  endfacet
  facet normal -0 0 -1
    outer loop
      vertex 73.6603 20 0
      vertex 0 0 0
      vertex 24.013 20 0
    endloop
  endfacet
  facet normal -0 0 -1
    outer loop
      vertex 24.013 20 0
      vertex 0 0 0
      vertex 13.6603 20 0
    endloop
  endfacet
  facet normal -0 0 -1
    outer loop
      vertex 13.6603 20 0
      vertex 0 0 0
      vertex 0 20 0
    endloop
  endfacet
  facet normal 0 0 -1
    outer loop
      vertex 79.4829 36.9067 0
      vertex 73.6603 20 0
      vertex 69.8236 34.3185 0
    endloop
  endfacet
  facet normal 0 0 -1
    outer loop
      vertex 19.4829 36.9067 0
      vertex 13.6603 20 0
      vertex 9.82362 34.3185 0
    endloop
  endfacet
  facet normal 0 -1 0
    outer loop
      vertex 0 0 0
      vertex 100 0 2
      vertex 0 0 2
    endloop
  endfacet
  facet normal 0 -1 -0
    outer loop
      vertex 100 0 2
      vertex 0 0 0
      vertex 100 0 0
    endloop
  endfacet
  facet normal 0.965926 0.258819 0
    outer loop
      vertex 24.013 20 2
      vertex 19.4829 36.9067 0
      vertex 19.4829 36.9067 2
    endloop
  endfacet
  facet normal 0.965926 0.258819 0
    outer loop
      vertex 19.4829 36.9067 0
      vertex 24.013 20 2
      vertex 24.013 20 0
    endloop
  endfacet
  facet normal -0.965926 -0.258819 0
    outer loop
      vertex 13.6603 20 0
      vertex 9.82362 34.3185 2
      vertex 9.82362 34.3185 0
    endloop
  endfacet
  facet normal -0.965926 -0.258819 0
    outer loop
      vertex 9.82362 34.3185 2
      vertex 13.6603 20 0
      vertex 13.6603 20 2
    endloop
  endfacet
  facet normal -0.258819 0.965926 0
    outer loop
      vertex 19.4829 36.9067 0
      vertex 9.82362 34.3185 2
      vertex 19.4829 36.9067 2
    endloop
  endfacet
  facet normal -0.258819 0.965926 0
    outer loop
      vertex 9.82362 34.3185 2
      vertex 19.4829 36.9067 0
      vertex 9.82362 34.3185 0
    endloop
  endfacet
  facet normal 0.965926 0.258819 0
    outer loop
      vertex 84.013 20 2
      vertex 79.4829 36.9067 0
      vertex 79.4829 36.9067 2
    endloop
  endfacet
  facet normal 0.965926 0.258819 0
    outer loop
      vertex 79.4829 36.9067 0
      vertex 84.013 20 2
      vertex 84.013 20 0
    endloop
  endfacet
  facet normal -0.258819 0.965926 0
    outer loop
      vertex 79.4829 36.9067 0
      vertex 69.8236 34.3185 2
      vertex 79.4829 36.9067 2
    endloop
  endfacet
  facet normal -0.258819 0.965926 0
    outer loop
      vertex 69.8236 34.3185 2
      vertex 79.4829 36.9067 0
      vertex 69.8236 34.3185 0
    endloop
  endfacet
  facet normal -0.965926 -0.258819 0
    outer loop
      vertex 73.6603 20 0
      vertex 69.8236 34.3185 2
      vertex 69.8236 34.3185 0
    endloop
  endfacet
  facet normal -0.965926 -0.258819 0
    outer loop
      vertex 69.8236 34.3185 2
      vertex 73.6603 20 0
      vertex 73.6603 20 2
    endloop
  endfacet
endsolid OpenSCAD_Model
