solid OpenSCAD_Model
  facet normal 2.2038e-07 -0.5 0.866025
    outer loop
      vertex 2.94439 16.4772 11.2452
      vertex 4.92705 19.8297 13.1807
      vertex 1.45395 17.5956 11.8909
    endloop
  endfacet
  facet normal -3.00823e-07 -0.5 0.866025
    outer loop
      vertex 5.5 18.3026 12.299
      vertex 2.94439 16.4772 11.2452
      vertex 3.5 14.8385 10.299
    endloop
  endfacet
  facet normal -2.36965e-07 -0.5 0.866025
    outer loop
      vertex 4.92705 19.8297 13.1807
      vertex 2.94439 16.4772 11.2452
      vertex 5.5 18.3026 12.299
    endloop
  endfacet
  facet normal -6.2386e-08 -0.5 0.866025
    outer loop
      vertex 3.42705 20.7735 13.7256
      vertex -0.498101 17.8387 12.0312
      vertex 1.45395 17.5956 11.8909
    endloop
  endfacet
  facet normal 0 -0.5 0.866025
    outer loop
      vertex -3.42705 20.7735 13.7256
      vertex -0.498101 17.8387 12.0312
      vertex 3.42705 20.7735 13.7256
    endloop
  endfacet
  facet normal 1.56386e-08 -0.5 0.866025
    outer loop
      vertex -5.5 18.3026 12.299
      vertex -2.29201 17.1292 11.6216
      vertex -4.92705 19.8297 13.1807
    endloop
  endfacet
  facet normal -4.61996e-07 -0.5 0.866025
    outer loop
      vertex -4.92705 19.8297 13.1807
      vertex -2.29201 17.1292 11.6216
      vertex -3.42705 20.7735 13.7256
    endloop
  endfacet
  facet normal 1.26266e-07 -0.5 0.866025
    outer loop
      vertex -0.498101 17.8387 12.0312
      vertex -3.42705 20.7735 13.7256
      vertex -2.29201 17.1292 11.6216
    endloop
  endfacet
  facet normal 2.54727e-08 -0.5 0.866025
    outer loop
      vertex 5.5 18.3026 12.299
      vertex 8.27226 1.29193 2.47795
      vertex 8.71714 0.789767 2.18802
    endloop
  endfacet
  facet normal 1.85091e-08 -0.5 0.866025
    outer loop
      vertex 3.5 14.8385 10.299
      vertex 8.27226 1.29193 2.47795
      vertex 5.5 18.3026 12.299
    endloop
  endfacet
  facet normal 3.78319e-07 -0.5 0.866025
    outer loop
      vertex 1.45395 17.5956 11.8909
      vertex 4.92705 19.8297 13.1807
      vertex 3.42705 20.7735 13.7256
    endloop
  endfacet
  facet normal 4.23645e-07 -0.5 0.866025
    outer loop
      vertex 2.94439 13.1997 9.35292
      vertex 8.27226 1.29193 2.47795
      vertex 3.5 14.8385 10.299
    endloop
  endfacet
  facet normal 1.03935e-08 -0.5 0.866025
    outer loop
      vertex 8.27226 1.29193 2.47795
      vertex 2.94439 13.1997 9.35292
      vertex 6.48215 1.97083 2.86991
    endloop
  endfacet
  facet normal -2.57178e-07 -0.5 0.866025
    outer loop
      vertex 1.45395 12.0813 8.70718
      vertex 6.48215 1.97083 2.86991
      vertex 2.94439 13.1997 9.35292
    endloop
  endfacet
  facet normal 2.71325e-07 -0.5 0.866025
    outer loop
      vertex -0.498101 11.8382 8.56685
      vertex 6.48215 1.97083 2.86991
      vertex 1.45395 12.0813 8.70718
    endloop
  endfacet
  facet normal -3.10181e-07 -0.5 0.866025
    outer loop
      vertex -5.51785 1.97083 2.86991
      vertex -0.498101 11.8382 8.56685
      vertex -2.29201 12.5477 8.97648
    endloop
  endfacet
  facet normal -1.21988e-07 -0.5 0.866025
    outer loop
      vertex -2.29201 17.1292 11.6216
      vertex -5.5 18.3026 12.299
      vertex -3.35822 15.6924 10.7921
    endloop
  endfacet
  facet normal 5.38172e-07 -0.5 0.866026
    outer loop
      vertex -3.35822 15.6924 10.7921
      vertex -5.5 18.3026 12.299
      vertex -3.35822 13.9845 9.80601
    endloop
  endfacet
  facet normal 0 -0.5 0.866025
    outer loop
      vertex -0.498101 11.8382 8.56685
      vertex -5.51785 1.97083 2.86991
      vertex 6.48215 1.97083 2.86991
    endloop
  endfacet
  facet normal 2.41287e-07 -0.5 0.866025
    outer loop
      vertex -7.41842 1.74006 2.73668
      vertex -2.29201 12.5477 8.97648
      vertex -3.35822 13.9845 9.80601
    endloop
  endfacet
  facet normal -1.28353e-07 -0.5 0.866025
    outer loop
      vertex -7.41842 1.74006 2.73668
      vertex -3.35822 13.9845 9.80601
      vertex -5.5 18.3026 12.299
    endloop
  endfacet
  facet normal -1.71989e-08 -0.5 0.866025
    outer loop
      vertex -2.29201 12.5477 8.97648
      vertex -7.41842 1.74006 2.73668
      vertex -5.51785 1.97083 2.86991
    endloop
  endfacet
  facet normal -4.65173e-08 -0.5 0.866025
    outer loop
      vertex -7.41842 1.74006 2.73668
      vertex -5.5 18.3026 12.299
      vertex -8.70581 0.851442 2.22363
    endloop
  endfacet
  facet normal -0.951056 0.267617 0.154509
    outer loop
      vertex -5.5 19.8026 9.70096
      vertex -4.92705 19.8297 13.1807
      vertex -4.92705 21.3297 10.5826
    endloop
  endfacet
  facet normal -0.951056 0.267617 0.154509
    outer loop
      vertex -4.92705 19.8297 13.1807
      vertex -5.5 19.8026 9.70096
      vertex -5.5 18.3026 12.299
    endloop
  endfacet
  facet normal -0.951057 -0.267615 -0.154507
    outer loop
      vertex -8.99404 0.652491 -1.16682
      vertex -9 0.75 -1.29904
      vertex -8.96972 0.669282 -1.34564
    endloop
  endfacet
  facet normal -0.951057 -0.267616 -0.154508
    outer loop
      vertex -9 0.75 -1.29904
      vertex -8.99404 0.652491 -1.16682
      vertex -9 0.641139 -1.11049
    endloop
  endfacet
  facet normal 0 0.866025 0.5
    outer loop
      vertex 3.42705 22.2735 11.1275
      vertex -3.42705 20.7735 13.7256
      vertex 3.42705 20.7735 13.7256
    endloop
  endfacet
  facet normal 0 0.866025 0.5
    outer loop
      vertex -3.42705 20.7735 13.7256
      vertex 3.42705 22.2735 11.1275
      vertex -3.42705 22.2735 11.1275
    endloop
  endfacet
  facet normal 0.951056 0.267617 0.154509
    outer loop
      vertex 4.92705 19.8297 13.1807
      vertex 5.5 19.8026 9.70096
      vertex 4.92705 21.3297 10.5826
    endloop
  endfacet
  facet normal 0.951056 0.267617 0.154509
    outer loop
      vertex 5.5 19.8026 9.70096
      vertex 4.92705 19.8297 13.1807
      vertex 5.5 18.3026 12.299
    endloop
  endfacet
  facet normal 0.98758 0.136066 0.0785575
    outer loop
      vertex 8.71714 0.789767 2.18802
      vertex 5.5 19.8026 9.70096
      vertex 5.5 18.3026 12.299
    endloop
  endfacet
  facet normal 0.98758 0.136066 0.0785575
    outer loop
      vertex 8.71714 0.789767 2.18802
      vertex 9 0.75 -1.29904
      vertex 5.5 19.8026 9.70096
    endloop
  endfacet
  facet normal 0.98758 0.136066 0.0785575
    outer loop
      vertex 9 0.75 -1.29904
      vertex 8.71714 0.789767 2.18802
      vertex 9 0.470485 -0.814904
    endloop
  endfacet
  facet normal -0.587785 0.700629 0.404508
    outer loop
      vertex -3.42705 22.2735 11.1275
      vertex -4.92705 19.8297 13.1807
      vertex -3.42705 20.7735 13.7256
    endloop
  endfacet
  facet normal -0.587785 0.700629 0.404509
    outer loop
      vertex -4.92705 19.8297 13.1807
      vertex -3.42705 22.2735 11.1275
      vertex -4.92705 21.3297 10.5826
    endloop
  endfacet
  facet normal -0.98758 0.136066 0.0785575
    outer loop
      vertex -5.5 19.8026 9.70096
      vertex -8.70581 0.851442 2.22363
      vertex -5.5 18.3026 12.299
    endloop
  endfacet
  facet normal -0.98758 0.136066 0.0785575
    outer loop
      vertex -9 0.75 -1.29904
      vertex -8.70581 0.851442 2.22363
      vertex -5.5 19.8026 9.70096
    endloop
  endfacet
  facet normal -0.98758 0.136065 0.0785575
    outer loop
      vertex -9 0.75 -1.29904
      vertex -8.99404 0.652491 -1.05525
      vertex -8.70581 0.851442 2.22363
    endloop
  endfacet
  facet normal -0.98758 0.136066 0.0785577
    outer loop
      vertex -8.99404 0.652491 -1.05525
      vertex -9 0.75 -1.29904
      vertex -9 0.641139 -1.11049
    endloop
  endfacet
  facet normal 2.203e-07 0.5 -0.866025
    outer loop
      vertex 8.27226 1.29193 -0.986152
      vertex 9 0.75 -1.29904
      vertex 8.92633 0.553642 -1.41241
    endloop
  endfacet
  facet normal 8.84238e-08 0.5 -0.866025
    outer loop
      vertex 8.27226 1.29193 -0.986152
      vertex 5.5 19.8026 9.70096
      vertex 9 0.75 -1.29904
    endloop
  endfacet
  facet normal 2.00214e-08 0.5 -0.866025
    outer loop
      vertex 2.94439 14.6997 6.75484
      vertex 8.27226 1.29193 -0.986152
      vertex 6.48215 1.97083 -0.594189
    endloop
  endfacet
  facet normal -4.59993e-08 0.5 -0.866025
    outer loop
      vertex 8.27226 1.29193 -0.986152
      vertex 3.5 16.3385 7.70096
      vertex 5.5 19.8026 9.70096
    endloop
  endfacet
  facet normal 3.00823e-07 0.5 -0.866025
    outer loop
      vertex 2.94439 17.9772 8.64708
      vertex 5.5 19.8026 9.70096
      vertex 3.5 16.3385 7.70096
    endloop
  endfacet
  facet normal -9.87879e-08 0.5 -0.866025
    outer loop
      vertex 8.27226 1.29193 -0.986152
      vertex 2.94439 14.6997 6.75484
      vertex 3.5 16.3385 7.70096
    endloop
  endfacet
  facet normal 3.67545e-08 0.5 -0.866025
    outer loop
      vertex 6.48215 1.97083 -0.594189
      vertex 1.45395 13.5813 6.10911
      vertex 2.94439 14.6997 6.75484
    endloop
  endfacet
  facet normal -7.69731e-08 0.5 -0.866025
    outer loop
      vertex 6.48215 1.97083 -0.594189
      vertex -0.498101 13.3382 5.96877
      vertex 1.45395 13.5813 6.10911
    endloop
  endfacet
  facet normal 0 0.5 -0.866025
    outer loop
      vertex -5.51785 1.97083 -0.594189
      vertex -0.498101 13.3382 5.96877
      vertex 6.48215 1.97083 -0.594189
    endloop
  endfacet
  facet normal 1.19009e-07 0.5 -0.866025
    outer loop
      vertex -0.498101 13.3382 5.96877
      vertex -5.51785 1.97083 -0.594189
      vertex -2.29201 14.0477 6.3784
    endloop
  endfacet
  facet normal -2.43508e-07 0.5 -0.866025
    outer loop
      vertex -5.5 19.8026 9.70096
      vertex -3.35822 17.1924 8.19399
      vertex -3.35822 15.4845 7.20793
    endloop
  endfacet
  facet normal -2.35873e-07 0.5 -0.866025
    outer loop
      vertex -4.92705 21.3297 10.5826
      vertex -3.35822 17.1924 8.19399
      vertex -5.5 19.8026 9.70096
    endloop
  endfacet
  facet normal 7.78084e-08 0.5 -0.866025
    outer loop
      vertex -3.35822 17.1924 8.19399
      vertex -4.92705 21.3297 10.5826
      vertex -3.42705 22.2735 11.1275
    endloop
  endfacet
  facet normal -1.5453e-08 0.5 -0.866025
    outer loop
      vertex -7.41842 1.74006 -0.727424
      vertex -2.29201 14.0477 6.3784
      vertex -5.51785 1.97083 -0.594189
    endloop
  endfacet
  facet normal 2.1186e-08 0.5 -0.866025
    outer loop
      vertex -2.29201 14.0477 6.3784
      vertex -7.41842 1.74006 -0.727424
      vertex -3.35822 15.4845 7.20793
    endloop
  endfacet
  facet normal -3.91359e-08 0.5 -0.866025
    outer loop
      vertex -9 0.75 -1.29904
      vertex -3.35822 15.4845 7.20793
      vertex -7.41842 1.74006 -0.727424
    endloop
  endfacet
  facet normal -3.41245e-07 0.5 -0.866025
    outer loop
      vertex -9 0.75 -1.29904
      vertex -7.41842 1.74006 -0.727424
      vertex -8.96972 0.669282 -1.34564
    endloop
  endfacet
  facet normal 9.06146e-10 0.5 -0.866025
    outer loop
      vertex -3.35822 15.4845 7.20793
      vertex -9 0.75 -1.29904
      vertex -5.5 19.8026 9.70096
    endloop
  endfacet
  facet normal 2.36965e-07 0.5 -0.866025
    outer loop
      vertex 5.5 19.8026 9.70096
      vertex 2.94439 17.9772 8.64708
      vertex 4.92705 21.3297 10.5826
    endloop
  endfacet
  facet normal 1.63426e-07 0.5 -0.866025
    outer loop
      vertex 1.45395 19.0956 9.29282
      vertex 4.92705 21.3297 10.5826
      vertex 2.94439 17.9772 8.64708
    endloop
  endfacet
  facet normal 1.76084e-08 0.5 -0.866025
    outer loop
      vertex 4.92705 21.3297 10.5826
      vertex 1.45395 19.0956 9.29282
      vertex 3.42705 22.2735 11.1275
    endloop
  endfacet
  facet normal -3.30348e-07 0.5 -0.866025
    outer loop
      vertex -0.498101 19.3387 9.43315
      vertex 3.42705 22.2735 11.1275
      vertex 1.45395 19.0956 9.29282
    endloop
  endfacet
  facet normal 2.83635e-07 0.5 -0.866025
    outer loop
      vertex -3.42705 22.2735 11.1275
      vertex -0.498101 19.3387 9.43315
      vertex -2.29201 18.6292 9.02352
    endloop
  endfacet
  facet normal 0 0.5 -0.866025
    outer loop
      vertex -0.498101 19.3387 9.43315
      vertex -3.42705 22.2735 11.1275
      vertex 3.42705 22.2735 11.1275
    endloop
  endfacet
  facet normal -4.08337e-07 0.5 -0.866025
    outer loop
      vertex -3.42705 22.2735 11.1275
      vertex -2.29201 18.6292 9.02352
      vertex -3.35822 17.1924 8.19399
    endloop
  endfacet
  facet normal 0.587785 0.700629 0.404508
    outer loop
      vertex 4.92705 19.8297 13.1807
      vertex 3.42705 22.2735 11.1275
      vertex 3.42705 20.7735 13.7256
    endloop
  endfacet
  facet normal 0.587785 0.700629 0.404509
    outer loop
      vertex 3.42705 22.2735 11.1275
      vertex 4.92705 19.8297 13.1807
      vertex 4.92705 21.3297 10.5826
    endloop
  endfacet
  facet normal 0.951057 -0.267616 -0.154508
    outer loop
      vertex 9 0.470485 -0.814904
      vertex 8.92633 0.553642 -1.41241
      vertex 9 0.75 -1.29904
    endloop
  endfacet
  facet normal -0.959493 -0.243988 -0.140866
    outer loop
      vertex 3.5 16.3385 7.70096
      vertex 2.94439 16.4772 11.2452
      vertex 2.94439 17.9772 8.64708
    endloop
  endfacet
  facet normal -0.959493 -0.243988 -0.140866
    outer loop
      vertex 2.94439 16.4772 11.2452
      vertex 3.5 16.3385 7.70096
      vertex 3.5 14.8385 10.299
    endloop
  endfacet
  facet normal 1 0 0
    outer loop
      vertex -3.35822 15.6924 10.7921
      vertex -3.35822 15.4845 7.20793
      vertex -3.35822 17.1924 8.19399
    endloop
  endfacet
  facet normal 1 0 -0
    outer loop
      vertex -3.35822 15.4845 7.20793
      vertex -3.35822 15.6924 10.7921
      vertex -3.35822 13.9845 9.80601
    endloop
  endfacet
  facet normal 0.415414 -0.787765 -0.454816
    outer loop
      vertex -2.29201 17.1292 11.6216
      vertex -0.498101 19.3387 9.43315
      vertex -0.498101 17.8387 12.0312
    endloop
  endfacet
  facet normal 0.415415 -0.787765 -0.454816
    outer loop
      vertex -0.498101 19.3387 9.43315
      vertex -2.29201 17.1292 11.6216
      vertex -2.29201 18.6292 9.02352
    endloop
  endfacet
  facet normal 0.841254 -0.468209 -0.27032
    outer loop
      vertex -2.29201 17.1292 11.6216
      vertex -3.35822 17.1924 8.19399
      vertex -2.29201 18.6292 9.02352
    endloop
  endfacet
  facet normal 0.841254 -0.468208 -0.27032
    outer loop
      vertex -3.35822 17.1924 8.19399
      vertex -2.29201 17.1292 11.6216
      vertex -3.35822 15.6924 10.7921
    endloop
  endfacet
  facet normal -0.142315 0.85721 0.494911
    outer loop
      vertex 1.45395 13.5813 6.10911
      vertex -0.498101 11.8382 8.56685
      vertex 1.45395 12.0813 8.70718
    endloop
  endfacet
  facet normal -0.142315 0.85721 0.494911
    outer loop
      vertex -0.498101 11.8382 8.56685
      vertex 1.45395 13.5813 6.10911
      vertex -0.498101 13.3382 5.96877
    endloop
  endfacet
  facet normal -0.654861 0.654498 0.377875
    outer loop
      vertex 1.45395 13.5813 6.10911
      vertex 2.94439 13.1997 9.35292
      vertex 2.94439 14.6997 6.75484
    endloop
  endfacet
  facet normal -0.654861 0.654498 0.377875
    outer loop
      vertex 2.94439 13.1997 9.35292
      vertex 1.45395 13.5813 6.10911
      vertex 1.45395 12.0813 8.70718
    endloop
  endfacet
  facet normal -0.142315 -0.85721 -0.494911
    outer loop
      vertex -0.498101 19.3387 9.43315
      vertex 1.45395 17.5956 11.8909
      vertex -0.498101 17.8387 12.0312
    endloop
  endfacet
  facet normal -0.142315 -0.857211 -0.494911
    outer loop
      vertex 1.45395 17.5956 11.8909
      vertex -0.498101 19.3387 9.43315
      vertex 1.45395 19.0956 9.29282
    endloop
  endfacet
  facet normal -0.654861 -0.654499 -0.377875
    outer loop
      vertex 2.94439 17.9772 8.64708
      vertex 1.45395 17.5956 11.8909
      vertex 1.45395 19.0956 9.29282
    endloop
  endfacet
  facet normal -0.654861 -0.654498 -0.377875
    outer loop
      vertex 1.45395 17.5956 11.8909
      vertex 2.94439 17.9772 8.64708
      vertex 2.94439 16.4772 11.2452
    endloop
  endfacet
  facet normal 0.841254 0.468208 0.27032
    outer loop
      vertex -3.35822 13.9845 9.80601
      vertex -2.29201 14.0477 6.3784
      vertex -3.35822 15.4845 7.20793
    endloop
  endfacet
  facet normal 0.841254 0.468208 0.27032
    outer loop
      vertex -2.29201 14.0477 6.3784
      vertex -3.35822 13.9845 9.80601
      vertex -2.29201 12.5477 8.97648
    endloop
  endfacet
  facet normal -0.959493 0.243988 0.140866
    outer loop
      vertex 2.94439 14.6997 6.75484
      vertex 3.5 14.8385 10.299
      vertex 3.5 16.3385 7.70096
    endloop
  endfacet
  facet normal -0.959493 0.243988 0.140866
    outer loop
      vertex 3.5 14.8385 10.299
      vertex 2.94439 14.6997 6.75484
      vertex 2.94439 13.1997 9.35292
    endloop
  endfacet
  facet normal 0.415415 0.787764 0.454816
    outer loop
      vertex -0.498101 11.8382 8.56685
      vertex -2.29201 14.0477 6.3784
      vertex -2.29201 12.5477 8.97648
    endloop
  endfacet
  facet normal 0.415415 0.787764 0.454816
    outer loop
      vertex -2.29201 14.0477 6.3784
      vertex -0.498101 11.8382 8.56685
      vertex -0.498101 13.3382 5.96877
    endloop
  endfacet
  facet normal 0.970942 0.239316 0
    outer loop
      vertex 10 -2 3
      vertex 9.54182 -0.141107 -3
      vertex 9.54182 -0.141107 3
    endloop
  endfacet
  facet normal 0.970942 0.239316 0
    outer loop
      vertex 9.54182 -0.141107 -3
      vertex 10 -2 3
      vertex 10 -2 -3
    endloop
  endfacet
  facet normal -1 0 0
    outer loop
      vertex -9.88377 -2.95726 -3
      vertex -9.88377 -1.04274 3
      vertex -9.88377 -1.04274 -3
    endloop
  endfacet
  facet normal -1 -0 0
    outer loop
      vertex -9.88377 -1.04274 3
      vertex -9.88377 -2.95726 -3
      vertex -9.88377 -2.95726 3
    endloop
  endfacet
  facet normal -0.120536 0.992709 0
    outer loop
      vertex -5.51785 1.97083 -3
      vertex -7.41842 1.74006 -0.727424
      vertex -5.51785 1.97083 -0.594189
    endloop
  endfacet
  facet normal -0.120536 0.992709 0
    outer loop
      vertex -7.41842 1.74006 -0.727424
      vertex -5.51785 1.97083 -3
      vertex -7.41842 1.74006 -3
    endloop
  endfacet
  facet normal -0.120536 0.992709 0
    outer loop
      vertex -5.51785 1.97083 2.86991
      vertex -7.41842 1.74006 3
      vertex -5.51785 1.97083 3
    endloop
  endfacet
  facet normal -0.120536 0.992709 0
    outer loop
      vertex -7.41842 1.74006 3
      vertex -5.51785 1.97083 2.86991
      vertex -7.41842 1.74006 2.73668
    endloop
  endfacet
  facet normal 0 0 1
    outer loop
      vertex 9 -2 3
      vertex 10 -2 3
      vertex 9.54182 -0.141107 3
    endloop
  endfacet
  facet normal 0 0 1
    outer loop
      vertex 10 -2 3
      vertex 9 -2 3
      vertex 9.54182 -3.85889 3
    endloop
  endfacet
  facet normal 0 0 1
    outer loop
      vertex 9.54182 -0.141107 3
      vertex 8.42705 -0.236644 3
      vertex 9 -2 3
    endloop
  endfacet
  facet normal 0 0 1
    outer loop
      vertex 8.27226 1.29193 3
      vertex 8.42705 -0.236644 3
      vertex 9.54182 -0.141107 3
    endloop
  endfacet
  facet normal 0 0 1
    outer loop
      vertex 8.27226 1.29193 3
      vertex 6.92705 0.853169 3
      vertex 8.42705 -0.236644 3
    endloop
  endfacet
  facet normal 0 0 1
    outer loop
      vertex 6.48215 1.97083 3
      vertex 6.92705 0.853169 3
      vertex 8.27226 1.29193 3
    endloop
  endfacet
  facet normal 0 0 1
    outer loop
      vertex 6.48215 1.97083 3
      vertex 5.07295 0.853169 3
      vertex 6.92705 0.853169 3
    endloop
  endfacet
  facet normal -0 0 1
    outer loop
      vertex -5.51785 1.97083 3
      vertex 5.07295 0.853169 3
      vertex 6.48215 1.97083 3
    endloop
  endfacet
  facet normal 0 0 1
    outer loop
      vertex 3.57295 -0.236644 3
      vertex -3 -2 3
      vertex 3 -2 3
    endloop
  endfacet
  facet normal 0 0 1
    outer loop
      vertex 5.07295 0.853169 3
      vertex -5.51785 1.97083 3
      vertex 3.57295 -0.236644 3
    endloop
  endfacet
  facet normal 0 0 1
    outer loop
      vertex 3.57295 -0.236644 3
      vertex -3.57295 -0.236644 3
      vertex -3 -2 3
    endloop
  endfacet
  facet normal 0 0 1
    outer loop
      vertex 3.57295 -0.236644 3
      vertex -5.51785 1.97083 3
      vertex -3.57295 -0.236644 3
    endloop
  endfacet
  facet normal 0 0 1
    outer loop
      vertex -3.57295 -0.236644 3
      vertex -5.51785 1.97083 3
      vertex -5.07295 0.853169 3
    endloop
  endfacet
  facet normal 0 0 1
    outer loop
      vertex -5.51785 1.97083 3
      vertex -6.92705 0.853169 3
      vertex -5.07295 0.853169 3
    endloop
  endfacet
  facet normal -0 0 1
    outer loop
      vertex -7.41842 1.74006 3
      vertex -6.92705 0.853169 3
      vertex -5.51785 1.97083 3
    endloop
  endfacet
  facet normal 0 0 1
    outer loop
      vertex -8.99404 0.652491 3
      vertex -6.92705 0.853169 3
      vertex -7.41842 1.74006 3
    endloop
  endfacet
  facet normal 0 0 1
    outer loop
      vertex -6.92705 0.853169 3
      vertex -8.99404 0.652491 3
      vertex -8.42705 -0.236644 3
    endloop
  endfacet
  facet normal 0 0 1
    outer loop
      vertex -9.88377 -1.04274 3
      vertex -8.42705 -0.236644 3
      vertex -8.99404 0.652491 3
    endloop
  endfacet
  facet normal 0 0 1
    outer loop
      vertex -8.42705 -0.236644 3
      vertex -9.88377 -1.04274 3
      vertex -9 -2 3
    endloop
  endfacet
  facet normal -0 0 1
    outer loop
      vertex 8.42705 -3.76336 3
      vertex 9.54182 -3.85889 3
      vertex 9 -2 3
    endloop
  endfacet
  facet normal 0 0 1
    outer loop
      vertex 8.42705 -3.76336 3
      vertex 8.27226 -5.29193 3
      vertex 9.54182 -3.85889 3
    endloop
  endfacet
  facet normal -0 0 1
    outer loop
      vertex 6.92705 -4.85317 3
      vertex 8.27226 -5.29193 3
      vertex 8.42705 -3.76336 3
    endloop
  endfacet
  facet normal 0 0 1
    outer loop
      vertex 6.92705 -4.85317 3
      vertex 6.48215 -5.97083 3
      vertex 8.27226 -5.29193 3
    endloop
  endfacet
  facet normal -0 0 1
    outer loop
      vertex 5.07295 -4.85317 3
      vertex 6.48215 -5.97083 3
      vertex 6.92705 -4.85317 3
    endloop
  endfacet
  facet normal 0 0 1
    outer loop
      vertex -5.51785 -5.97083 3
      vertex 5.07295 -4.85317 3
      vertex 3.57295 -3.76336 3
    endloop
  endfacet
  facet normal -0 0 1
    outer loop
      vertex -3 -2 3
      vertex 3.57295 -3.76336 3
      vertex 3 -2 3
    endloop
  endfacet
  facet normal 0 0 1
    outer loop
      vertex -3.57295 -3.76336 3
      vertex 3.57295 -3.76336 3
      vertex -3 -2 3
    endloop
  endfacet
  facet normal 0 0 1
    outer loop
      vertex -5.51785 -5.97083 3
      vertex 3.57295 -3.76336 3
      vertex -3.57295 -3.76336 3
    endloop
  endfacet
  facet normal 0 0 1
    outer loop
      vertex -5.51785 -5.97083 3
      vertex -3.57295 -3.76336 3
      vertex -5.07295 -4.85317 3
    endloop
  endfacet
  facet normal 0 0 1
    outer loop
      vertex 5.07295 -4.85317 3
      vertex -5.51785 -5.97083 3
      vertex 6.48215 -5.97083 3
    endloop
  endfacet
  facet normal -0 0 1
    outer loop
      vertex -6.92705 -4.85317 3
      vertex -5.51785 -5.97083 3
      vertex -5.07295 -4.85317 3
    endloop
  endfacet
  facet normal 0 0 1
    outer loop
      vertex -6.92705 -4.85317 3
      vertex -7.41842 -5.74006 3
      vertex -5.51785 -5.97083 3
    endloop
  endfacet
  facet normal -0 0 1
    outer loop
      vertex -8.99404 -4.65249 3
      vertex -6.92705 -4.85317 3
      vertex -8.42705 -3.76336 3
    endloop
  endfacet
  facet normal 0 0 1
    outer loop
      vertex -6.92705 -4.85317 3
      vertex -8.99404 -4.65249 3
      vertex -7.41842 -5.74006 3
    endloop
  endfacet
  facet normal -0 0 1
    outer loop
      vertex -9.88377 -2.95726 3
      vertex -8.42705 -3.76336 3
      vertex -9 -2 3
    endloop
  endfacet
  facet normal 0 0 1
    outer loop
      vertex -9.88377 -2.95726 3
      vertex -9 -2 3
      vertex -9.88377 -1.04274 3
    endloop
  endfacet
  facet normal 0 0 1
    outer loop
      vertex -8.42705 -3.76336 3
      vertex -9.88377 -2.95726 3
      vertex -8.99404 -4.65249 3
    endloop
  endfacet
  facet normal 0 -1 0
    outer loop
      vertex -5.51785 -5.97083 -3
      vertex 6.48215 -5.97083 3
      vertex -5.51785 -5.97083 3
    endloop
  endfacet
  facet normal 0 -1 -0
    outer loop
      vertex 6.48215 -5.97083 3
      vertex -5.51785 -5.97083 -3
      vertex 6.48215 -5.97083 -3
    endloop
  endfacet
  facet normal 0 0 -1
    outer loop
      vertex 9 -2 -3
      vertex 10 -2 -3
      vertex 9.54182 -3.85889 -3
    endloop
  endfacet
  facet normal 0 0 -1
    outer loop
      vertex 10 -2 -3
      vertex 9 -2 -3
      vertex 9.54182 -0.141107 -3
    endloop
  endfacet
  facet normal 0 0 -1
    outer loop
      vertex 9.54182 -3.85889 -3
      vertex 8.42705 -3.76336 -3
      vertex 9 -2 -3
    endloop
  endfacet
  facet normal 0 0 -1
    outer loop
      vertex 8.27226 -5.29193 -3
      vertex 8.42705 -3.76336 -3
      vertex 9.54182 -3.85889 -3
    endloop
  endfacet
  facet normal 0 0 -1
    outer loop
      vertex 8.27226 -5.29193 -3
      vertex 6.92705 -4.85317 -3
      vertex 8.42705 -3.76336 -3
    endloop
  endfacet
  facet normal 0 0 -1
    outer loop
      vertex 6.48215 -5.97083 -3
      vertex 6.92705 -4.85317 -3
      vertex 8.27226 -5.29193 -3
    endloop
  endfacet
  facet normal 0 0 -1
    outer loop
      vertex 6.48215 -5.97083 -3
      vertex 5.07295 -4.85317 -3
      vertex 6.92705 -4.85317 -3
    endloop
  endfacet
  facet normal 0 0 -1
    outer loop
      vertex -5.51785 -5.97083 -3
      vertex 5.07295 -4.85317 -3
      vertex 6.48215 -5.97083 -3
    endloop
  endfacet
  facet normal 0 0 -1
    outer loop
      vertex 3.57295 -3.76336 -3
      vertex -3 -2 -3
      vertex 3 -2 -3
    endloop
  endfacet
  facet normal -0 0 -1
    outer loop
      vertex 5.07295 -4.85317 -3
      vertex -5.51785 -5.97083 -3
      vertex 3.57295 -3.76336 -3
    endloop
  endfacet
  facet normal 0 0 -1
    outer loop
      vertex 3.57295 -3.76336 -3
      vertex -3.57295 -3.76336 -3
      vertex -3 -2 -3
    endloop
  endfacet
  facet normal -0 0 -1
    outer loop
      vertex 3.57295 -3.76336 -3
      vertex -5.51785 -5.97083 -3
      vertex -3.57295 -3.76336 -3
    endloop
  endfacet
  facet normal 0 0 -1
    outer loop
      vertex -3.57295 -3.76336 -3
      vertex -5.51785 -5.97083 -3
      vertex -5.07295 -4.85317 -3
    endloop
  endfacet
  facet normal 0 0 -1
    outer loop
      vertex -5.51785 -5.97083 -3
      vertex -6.92705 -4.85317 -3
      vertex -5.07295 -4.85317 -3
    endloop
  endfacet
  facet normal 0 0 -1
    outer loop
      vertex -7.41842 -5.74006 -3
      vertex -6.92705 -4.85317 -3
      vertex -5.51785 -5.97083 -3
    endloop
  endfacet
  facet normal 0 0 -1
    outer loop
      vertex -8.99404 -4.65249 -3
      vertex -6.92705 -4.85317 -3
      vertex -7.41842 -5.74006 -3
    endloop
  endfacet
  facet normal 0 0 -1
    outer loop
      vertex -6.92705 -4.85317 -3
      vertex -8.99404 -4.65249 -3
      vertex -8.42705 -3.76336 -3
    endloop
  endfacet
  facet normal 0 0 -1
    outer loop
      vertex -9.88377 -2.95726 -3
      vertex -8.42705 -3.76336 -3
      vertex -8.99404 -4.65249 -3
    endloop
  endfacet
  facet normal 0 0 -1
    outer loop
      vertex -8.42705 -3.76336 -3
      vertex -9.88377 -2.95726 -3
      vertex -9 -2 -3
    endloop
  endfacet
  facet normal 0 0 -1
    outer loop
      vertex 8.42705 -0.236644 -3
      vertex 9.54182 -0.141107 -3
      vertex 9 -2 -3
    endloop
  endfacet
  facet normal 0 0 -1
    outer loop
      vertex 8.42705 -0.236644 -3
      vertex 8.27226 1.29193 -3
      vertex 9.54182 -0.141107 -3
    endloop
  endfacet
  facet normal 0 0 -1
    outer loop
      vertex 6.92705 0.853169 -3
      vertex 8.27226 1.29193 -3
      vertex 8.42705 -0.236644 -3
    endloop
  endfacet
  facet normal 0 0 -1
    outer loop
      vertex 6.92705 0.853169 -3
      vertex 6.48215 1.97083 -3
      vertex 8.27226 1.29193 -3
    endloop
  endfacet
  facet normal 0 0 -1
    outer loop
      vertex 5.07295 0.853169 -3
      vertex 6.48215 1.97083 -3
      vertex 6.92705 0.853169 -3
    endloop
  endfacet
  facet normal 0 0 -1
    outer loop
      vertex -5.51785 1.97083 -3
      vertex 5.07295 0.853169 -3
      vertex 3.57295 -0.236644 -3
    endloop
  endfacet
  facet normal 0 0 -1
    outer loop
      vertex -3 -2 -3
      vertex 3.57295 -0.236644 -3
      vertex 3 -2 -3
    endloop
  endfacet
  facet normal 0 0 -1
    outer loop
      vertex -3.57295 -0.236644 -3
      vertex 3.57295 -0.236644 -3
      vertex -3 -2 -3
    endloop
  endfacet
  facet normal 0 0 -1
    outer loop
      vertex -5.51785 1.97083 -3
      vertex 3.57295 -0.236644 -3
      vertex -3.57295 -0.236644 -3
    endloop
  endfacet
  facet normal 0 0 -1
    outer loop
      vertex -5.51785 1.97083 -3
      vertex -3.57295 -0.236644 -3
      vertex -5.07295 0.853169 -3
    endloop
  endfacet
  facet normal 0 0 -1
    outer loop
      vertex 5.07295 0.853169 -3
      vertex -5.51785 1.97083 -3
      vertex 6.48215 1.97083 -3
    endloop
  endfacet
  facet normal 0 0 -1
    outer loop
      vertex -6.92705 0.853169 -3
      vertex -5.51785 1.97083 -3
      vertex -5.07295 0.853169 -3
    endloop
  endfacet
  facet normal 0 0 -1
    outer loop
      vertex -6.92705 0.853169 -3
      vertex -7.41842 1.74006 -3
      vertex -5.51785 1.97083 -3
    endloop
  endfacet
  facet normal 0 0 -1
    outer loop
      vertex -8.99404 0.652491 -3
      vertex -6.92705 0.853169 -3
      vertex -8.42705 -0.236644 -3
    endloop
  endfacet
  facet normal -0 0 -1
    outer loop
      vertex -6.92705 0.853169 -3
      vertex -8.99404 0.652491 -3
      vertex -7.41842 1.74006 -3
    endloop
  endfacet
  facet normal 0 0 -1
    outer loop
      vertex -9.88377 -1.04274 -3
      vertex -8.42705 -0.236644 -3
      vertex -9 -2 -3
    endloop
  endfacet
  facet normal 0 0 -1
    outer loop
      vertex -9.88377 -1.04274 -3
      vertex -9 -2 -3
      vertex -9.88377 -2.95726 -3
    endloop
  endfacet
  facet normal -0 0 -1
    outer loop
      vertex -8.42705 -0.236644 -3
      vertex -9.88377 -1.04274 -3
      vertex -8.99404 0.652491 -3
    endloop
  endfacet
  facet normal 0.354605 0.935016 0
    outer loop
      vertex 6.48215 1.97083 -3
      vertex 8.27226 1.29193 -0.986152
      vertex 8.27226 1.29193 -3
    endloop
  endfacet
  facet normal 0.354605 0.935016 0
    outer loop
      vertex 8.27226 1.29193 -0.986152
      vertex 6.48215 1.97083 -3
      vertex 6.48215 1.97083 -0.594189
    endloop
  endfacet
  facet normal 0.354605 0.935016 0
    outer loop
      vertex 8.27226 1.29193 3
      vertex 6.48215 1.97083 2.86991
      vertex 6.48215 1.97083 3
    endloop
  endfacet
  facet normal 0.354605 0.935016 0
    outer loop
      vertex 6.48215 1.97083 2.86991
      vertex 8.27226 1.29193 3
      vertex 8.27226 1.29193 2.47795
    endloop
  endfacet
  facet normal 0.748511 0.663123 0
    outer loop
      vertex 8.27226 1.29193 3
      vertex 8.71714 0.789767 2.18802
      vertex 8.27226 1.29193 2.47795
    endloop
  endfacet
  facet normal 0.748511 0.663123 1.6932e-08
    outer loop
      vertex 8.71714 0.789767 2.18802
      vertex 9.54182 -0.141107 3
      vertex 9 0.470485 -0.814904
    endloop
  endfacet
  facet normal 0.748511 0.663123 -9.29813e-08
    outer loop
      vertex 9.54182 -0.141107 3
      vertex 8.71714 0.789767 2.18802
      vertex 8.27226 1.29193 3
    endloop
  endfacet
  facet normal 0.74851 0.663123 0
    outer loop
      vertex 8.92633 0.553642 -1.41241
      vertex 8.27226 1.29193 -3
      vertex 8.27226 1.29193 -0.986152
    endloop
  endfacet
  facet normal 0.748511 0.663123 -0
    outer loop
      vertex 9.54182 -0.141107 -3
      vertex 9 0.470485 -0.814904
      vertex 9.54182 -0.141107 3
    endloop
  endfacet
  facet normal 0.748511 0.663123 -9.34827e-08
    outer loop
      vertex 8.92633 0.553642 -1.41241
      vertex 9.54182 -0.141107 -3
      vertex 8.27226 1.29193 -3
    endloop
  endfacet
  facet normal 0.748511 0.663123 1.58332e-07
    outer loop
      vertex 9 0.470485 -0.814904
      vertex 9.54182 -0.141107 -3
      vertex 8.92633 0.553642 -1.41241
    endloop
  endfacet
  facet normal 0 1 -0
    outer loop
      vertex 6.48215 1.97083 -3
      vertex -5.51785 1.97083 -0.594189
      vertex 6.48215 1.97083 -0.594189
    endloop
  endfacet
  facet normal 0 1 0
    outer loop
      vertex -5.51785 1.97083 -0.594189
      vertex 6.48215 1.97083 -3
      vertex -5.51785 1.97083 -3
    endloop
  endfacet
  facet normal 0 1 -0
    outer loop
      vertex 6.48215 1.97083 2.86991
      vertex -5.51785 1.97083 3
      vertex 6.48215 1.97083 3
    endloop
  endfacet
  facet normal 0 1 0
    outer loop
      vertex -5.51785 1.97083 3
      vertex 6.48215 1.97083 2.86991
      vertex -5.51785 1.97083 2.86991
    endloop
  endfacet
  facet normal -0.885456 0.464723 0
    outer loop
      vertex -9.88377 -1.04274 -3
      vertex -8.99404 0.652491 -1.16682
      vertex -8.99404 0.652491 -3
    endloop
  endfacet
  facet normal -0.885456 0.464724 -1.96973e-07
    outer loop
      vertex -8.99404 0.652491 -1.16682
      vertex -9.88377 -1.04274 -3
      vertex -9 0.641139 -1.11049
    endloop
  endfacet
  facet normal -0.885456 0.464723 3.20136e-07
    outer loop
      vertex -9.88377 -1.04274 -3
      vertex -8.99404 0.652491 -1.05525
      vertex -9 0.641139 -1.11049
    endloop
  endfacet
  facet normal -0.885456 0.464723 0
    outer loop
      vertex -8.99404 0.652491 -1.05525
      vertex -9.88377 -1.04274 -3
      vertex -9.88377 -1.04274 3
    endloop
  endfacet
  facet normal -0.885456 0.464723 0
    outer loop
      vertex -8.99404 0.652491 -1.05525
      vertex -9.88377 -1.04274 3
      vertex -8.99404 0.652491 3
    endloop
  endfacet
  facet normal -0.568065 0.822984 0
    outer loop
      vertex -7.41842 1.74006 -0.727424
      vertex -7.41842 1.74006 -3
      vertex -8.96972 0.669282 -1.34564
    endloop
  endfacet
  facet normal -0.568068 0.822981 0
    outer loop
      vertex -8.96972 0.669282 -1.34564
      vertex -8.99404 0.652491 -3
      vertex -8.99404 0.652491 -1.16682
    endloop
  endfacet
  facet normal -0.568065 0.822984 -7.94703e-08
    outer loop
      vertex -8.99404 0.652491 -3
      vertex -8.96972 0.669282 -1.34564
      vertex -7.41842 1.74006 -3
    endloop
  endfacet
  facet normal -0.568065 0.822984 0
    outer loop
      vertex -7.41842 1.74006 2.73668
      vertex -8.99404 0.652491 3
      vertex -7.41842 1.74006 3
    endloop
  endfacet
  facet normal -0.568065 0.822984 1.46395e-07
    outer loop
      vertex -8.70581 0.851442 2.22363
      vertex -8.99404 0.652491 3
      vertex -7.41842 1.74006 2.73668
    endloop
  endfacet
  facet normal -0.568065 0.822984 0
    outer loop
      vertex -8.99404 0.652491 3
      vertex -8.70581 0.851442 2.22363
      vertex -8.99404 0.652491 -1.05525
    endloop
  endfacet
  facet normal -0.120536 -0.992709 0
    outer loop
      vertex -7.41842 -5.74006 -3
      vertex -5.51785 -5.97083 3
      vertex -7.41842 -5.74006 3
    endloop
  endfacet
  facet normal -0.120536 -0.992709 -0
    outer loop
      vertex -5.51785 -5.97083 3
      vertex -7.41842 -5.74006 -3
      vertex -5.51785 -5.97083 -3
    endloop
  endfacet
  facet normal -0.885456 -0.464723 0
    outer loop
      vertex -8.99404 -4.65249 -3
      vertex -9.88377 -2.95726 3
      vertex -9.88377 -2.95726 -3
    endloop
  endfacet
  facet normal -0.885456 -0.464723 0
    outer loop
      vertex -9.88377 -2.95726 3
      vertex -8.99404 -4.65249 -3
      vertex -8.99404 -4.65249 3
    endloop
  endfacet
  facet normal 0.748511 -0.663123 0
    outer loop
      vertex 8.27226 -5.29193 3
      vertex 9.54182 -3.85889 -3
      vertex 9.54182 -3.85889 3
    endloop
  endfacet
  facet normal 0.748511 -0.663123 0
    outer loop
      vertex 9.54182 -3.85889 -3
      vertex 8.27226 -5.29193 3
      vertex 8.27226 -5.29193 -3
    endloop
  endfacet
  facet normal 0.354605 -0.935016 0
    outer loop
      vertex 6.48215 -5.97083 -3
      vertex 8.27226 -5.29193 3
      vertex 6.48215 -5.97083 3
    endloop
  endfacet
  facet normal 0.354605 -0.935016 0
    outer loop
      vertex 8.27226 -5.29193 3
      vertex 6.48215 -5.97083 -3
      vertex 8.27226 -5.29193 -3
    endloop
  endfacet
  facet normal 0.970942 -0.239316 0
    outer loop
      vertex 9.54182 -3.85889 3
      vertex 10 -2 -3
      vertex 10 -2 3
    endloop
  endfacet
  facet normal 0.970942 -0.239316 0
    outer loop
      vertex 10 -2 -3
      vertex 9.54182 -3.85889 3
      vertex 9.54182 -3.85889 -3
    endloop
  endfacet
  facet normal -0.568065 -0.822984 0
    outer loop
      vertex -8.99404 -4.65249 -3
      vertex -7.41842 -5.74006 3
      vertex -8.99404 -4.65249 3
    endloop
  endfacet
  facet normal -0.568065 -0.822984 -0
    outer loop
      vertex -7.41842 -5.74006 3
      vertex -8.99404 -4.65249 -3
      vertex -7.41842 -5.74006 -3
    endloop
  endfacet
  facet normal -0.951056 -0.309017 0
    outer loop
      vertex 9 -2 -3
      vertex 8.42705 -0.236644 3
      vertex 8.42705 -0.236644 -3
    endloop
  endfacet
  facet normal -0.951056 -0.309017 0
    outer loop
      vertex 8.42705 -0.236644 3
      vertex 9 -2 -3
      vertex 9 -2 3
    endloop
  endfacet
  facet normal 0.587785 -0.809017 0
    outer loop
      vertex 3.57295 -0.236644 -3
      vertex 5.07295 0.853169 3
      vertex 3.57295 -0.236644 3
    endloop
  endfacet
  facet normal 0.587785 -0.809017 0
    outer loop
      vertex 5.07295 0.853169 3
      vertex 3.57295 -0.236644 -3
      vertex 5.07295 0.853169 -3
    endloop
  endfacet
  facet normal -0.587785 -0.809017 0
    outer loop
      vertex 6.92705 0.853169 -3
      vertex 8.42705 -0.236644 3
      vertex 6.92705 0.853169 3
    endloop
  endfacet
  facet normal -0.587785 -0.809017 -0
    outer loop
      vertex 8.42705 -0.236644 3
      vertex 6.92705 0.853169 -3
      vertex 8.42705 -0.236644 -3
    endloop
  endfacet
  facet normal 0.951057 -0.309017 0
    outer loop
      vertex 3 -2 3
      vertex 3.57295 -0.236644 -3
      vertex 3.57295 -0.236644 3
    endloop
  endfacet
  facet normal 0.951057 -0.309017 0
    outer loop
      vertex 3.57295 -0.236644 -3
      vertex 3 -2 3
      vertex 3 -2 -3
    endloop
  endfacet
  facet normal -0.587785 0.809017 0
    outer loop
      vertex 8.42705 -3.76336 -3
      vertex 6.92705 -4.85317 3
      vertex 8.42705 -3.76336 3
    endloop
  endfacet
  facet normal -0.587785 0.809017 0
    outer loop
      vertex 6.92705 -4.85317 3
      vertex 8.42705 -3.76336 -3
      vertex 6.92705 -4.85317 -3
    endloop
  endfacet
  facet normal 0.587785 0.809017 -0
    outer loop
      vertex 5.07295 -4.85317 -3
      vertex 3.57295 -3.76336 3
      vertex 5.07295 -4.85317 3
    endloop
  endfacet
  facet normal 0.587785 0.809017 0
    outer loop
      vertex 3.57295 -3.76336 3
      vertex 5.07295 -4.85317 -3
      vertex 3.57295 -3.76336 -3
    endloop
  endfacet
  facet normal 0 -1 0
    outer loop
      vertex 5.07295 0.853169 -3
      vertex 6.92705 0.853169 3
      vertex 5.07295 0.853169 3
    endloop
  endfacet
  facet normal 0 -1 -0
    outer loop
      vertex 6.92705 0.853169 3
      vertex 5.07295 0.853169 -3
      vertex 6.92705 0.853169 -3
    endloop
  endfacet
  facet normal 0.951057 0.309017 0
    outer loop
      vertex 3.57295 -3.76336 3
      vertex 3 -2 -3
      vertex 3 -2 3
    endloop
  endfacet
  facet normal 0.951057 0.309017 0
    outer loop
      vertex 3 -2 -3
      vertex 3.57295 -3.76336 3
      vertex 3.57295 -3.76336 -3
    endloop
  endfacet
  facet normal -0.951056 0.309017 0
    outer loop
      vertex 8.42705 -3.76336 -3
      vertex 9 -2 3
      vertex 9 -2 -3
    endloop
  endfacet
  facet normal -0.951056 0.309017 0
    outer loop
      vertex 9 -2 3
      vertex 8.42705 -3.76336 -3
      vertex 8.42705 -3.76336 3
    endloop
  endfacet
  facet normal 0 1 -0
    outer loop
      vertex 6.92705 -4.85317 -3
      vertex 5.07295 -4.85317 3
      vertex 6.92705 -4.85317 3
    endloop
  endfacet
  facet normal 0 1 0
    outer loop
      vertex 5.07295 -4.85317 3
      vertex 6.92705 -4.85317 -3
      vertex 5.07295 -4.85317 -3
    endloop
  endfacet
  facet normal -0.951057 -0.309017 0
    outer loop
      vertex -3 -2 -3
      vertex -3.57295 -0.236644 3
      vertex -3.57295 -0.236644 -3
    endloop
  endfacet
  facet normal -0.951057 -0.309017 0
    outer loop
      vertex -3.57295 -0.236644 3
      vertex -3 -2 -3
      vertex -3 -2 3
    endloop
  endfacet
  facet normal 0.951056 -0.309017 0
    outer loop
      vertex -9 -2 3
      vertex -8.42705 -0.236644 -3
      vertex -8.42705 -0.236644 3
    endloop
  endfacet
  facet normal 0.951056 -0.309017 0
    outer loop
      vertex -8.42705 -0.236644 -3
      vertex -9 -2 3
      vertex -9 -2 -3
    endloop
  endfacet
  facet normal 0 1 -0
    outer loop
      vertex -5.07295 -4.85317 -3
      vertex -6.92705 -4.85317 3
      vertex -5.07295 -4.85317 3
    endloop
  endfacet
  facet normal 0 1 0
    outer loop
      vertex -6.92705 -4.85317 3
      vertex -5.07295 -4.85317 -3
      vertex -6.92705 -4.85317 -3
    endloop
  endfacet
  facet normal 0 -1 0
    outer loop
      vertex -6.92705 0.853169 -3
      vertex -5.07295 0.853169 3
      vertex -6.92705 0.853169 3
    endloop
  endfacet
  facet normal 0 -1 -0
    outer loop
      vertex -5.07295 0.853169 3
      vertex -6.92705 0.853169 -3
      vertex -5.07295 0.853169 -3
    endloop
  endfacet
  facet normal -0.587785 -0.809017 0
    outer loop
      vertex -5.07295 0.853169 -3
      vertex -3.57295 -0.236644 3
      vertex -5.07295 0.853169 3
    endloop
  endfacet
  facet normal -0.587785 -0.809017 -0
    outer loop
      vertex -3.57295 -0.236644 3
      vertex -5.07295 0.853169 -3
      vertex -3.57295 -0.236644 -3
    endloop
  endfacet
  facet normal 0.587785 -0.809017 0
    outer loop
      vertex -8.42705 -0.236644 -3
      vertex -6.92705 0.853169 3
      vertex -8.42705 -0.236644 3
    endloop
  endfacet
  facet normal 0.587785 -0.809017 0
    outer loop
      vertex -6.92705 0.853169 3
      vertex -8.42705 -0.236644 -3
      vertex -6.92705 0.853169 -3
    endloop
  endfacet
  facet normal -0.587785 0.809017 0
    outer loop
      vertex -3.57295 -3.76336 -3
      vertex -5.07295 -4.85317 3
      vertex -3.57295 -3.76336 3
    endloop
  endfacet
  facet normal -0.587785 0.809017 0
    outer loop
      vertex -5.07295 -4.85317 3
      vertex -3.57295 -3.76336 -3
      vertex -5.07295 -4.85317 -3
    endloop
  endfacet
  facet normal -0.951057 0.309017 0
    outer loop
      vertex -3.57295 -3.76336 -3
      vertex -3 -2 3
      vertex -3 -2 -3
    endloop
  endfacet
  facet normal -0.951057 0.309017 0
    outer loop
      vertex -3 -2 3
      vertex -3.57295 -3.76336 -3
      vertex -3.57295 -3.76336 3
    endloop
  endfacet
  facet normal 0.587785 0.809017 -0
    outer loop
      vertex -6.92705 -4.85317 -3
      vertex -8.42705 -3.76336 3
      vertex -6.92705 -4.85317 3
    endloop
  endfacet
  facet normal 0.587785 0.809017 0
    outer loop
      vertex -8.42705 -3.76336 3
      vertex -6.92705 -4.85317 -3
      vertex -8.42705 -3.76336 -3
    endloop
  endfacet
  facet normal 0.951056 0.309017 0
    outer loop
      vertex -8.42705 -3.76336 3
      vertex -9 -2 -3
      vertex -9 -2 3
    endloop
  endfacet
  facet normal 0.951056 0.309017 0
    outer loop
      vertex -9 -2 -3
      vertex -8.42705 -3.76336 3
      vertex -8.42705 -3.76336 -3
    endloop
  endfacet
endsolid OpenSCAD_Model
