solid OpenSCAD_Model
  facet normal -0.951054 -0.309026 0
    outer loop
      vertex 8.43722 -0.267949 -3
      vertex 8.42705 -0.236644 3
      vertex 8.42705 -0.236644 -3.11683
    endloop
  endfacet
  facet normal -0.951057 -0.309017 -4.9806e-08
    outer loop
      vertex 9 -2 -3
      vertex 8.42705 -0.236644 3
      vertex 8.43722 -0.267949 -3
    endloop
  endfacet
  facet normal -0.951056 -0.309017 0
    outer loop
      vertex 8.42705 -0.236644 3
      vertex 9 -2 -3
      vertex 9 -2 3
    endloop
  endfacet
  facet normal 0.587785 -0.809017 0
    outer loop
      vertex 3.57295 -0.236644 3
      vertex 5.07295 0.853169 -3.54887
      vertex 5.07295 0.853169 3
    endloop
  endfacet
  facet normal 0.587785 -0.809017 0
    outer loop
      vertex 5.07295 0.853169 -3.54887
      vertex 3.57295 -0.236644 3
      vertex 3.57295 -0.236644 -4.17808
    endloop
  endfacet
  facet normal -0.587785 -0.809017 0
    outer loop
      vertex 6.92705 0.853169 3
      vertex 8.42705 -0.236644 -3.11683
      vertex 8.42705 -0.236644 3
    endloop
  endfacet
  facet normal -0.587785 -0.809017 0
    outer loop
      vertex 6.92705 0.853169 -3.54887
      vertex 8.42705 -0.236644 -3.11683
      vertex 6.92705 0.853169 3
    endloop
  endfacet
  facet normal -0.587785 -0.809017 -1.12381e-07
    outer loop
      vertex 8.42705 -0.236644 -3.11683
      vertex 6.92705 0.853169 -3.54887
      vertex 8.0881 0.00961929 -4.0359
    endloop
  endfacet
  facet normal 0.951057 -0.309017 0
    outer loop
      vertex 3.14215 -1.56251 -3
      vertex 3.57295 -0.236644 -4.17808
      vertex 3.57295 -0.236644 3
    endloop
  endfacet
  facet normal 0.951057 -0.309017 6.36765e-08
    outer loop
      vertex 3.57295 -0.236644 -4.17808
      vertex 3.14215 -1.56251 -3
      vertex 3.4156 -0.720917 -4.45767
    endloop
  endfacet
  facet normal 0.951057 -0.309017 -2.07511e-09
    outer loop
      vertex 3 -2 3
      vertex 3.14215 -1.56251 -3
      vertex 3.57295 -0.236644 3
    endloop
  endfacet
  facet normal 0.951057 -0.309017 0
    outer loop
      vertex 3.14215 -1.56251 -3
      vertex 3 -2 3
      vertex 3 -2 -3
    endloop
  endfacet
  facet normal -0.587785 0.809017 0
    outer loop
      vertex 8.42705 -3.76336 -3
      vertex 6.92705 -4.85317 3
      vertex 8.42705 -3.76336 3
    endloop
  endfacet
  facet normal -0.587785 0.809017 0
    outer loop
      vertex 6.92705 -4.85317 3
      vertex 8.42705 -3.76336 -3
      vertex 6.92705 -4.85317 -3
    endloop
  endfacet
  facet normal 0.587785 0.809017 -0
    outer loop
      vertex 5.07295 -4.85317 -3
      vertex 3.57295 -3.76336 3
      vertex 5.07295 -4.85317 3
    endloop
  endfacet
  facet normal 0.587785 0.809017 0
    outer loop
      vertex 3.57295 -3.76336 3
      vertex 5.07295 -4.85317 -3
      vertex 3.57295 -3.76336 -3
    endloop
  endfacet
  facet normal 0 -1 0
    outer loop
      vertex 5.07295 0.853169 -3.54887
      vertex 6.92705 0.853169 3
      vertex 5.07295 0.853169 3
    endloop
  endfacet
  facet normal 0 -1 -0
    outer loop
      vertex 6.92705 0.853169 3
      vertex 5.07295 0.853169 -3.54887
      vertex 6.92705 0.853169 -3.54887
    endloop
  endfacet
  facet normal 0.951057 0.309017 0
    outer loop
      vertex 3.57295 -3.76336 3
      vertex 3 -2 -3
      vertex 3 -2 3
    endloop
  endfacet
  facet normal 0.951057 0.309017 0
    outer loop
      vertex 3 -2 -3
      vertex 3.57295 -3.76336 3
      vertex 3.57295 -3.76336 -3
    endloop
  endfacet
  facet normal -0.951056 0.309017 0
    outer loop
      vertex 8.42705 -3.76336 -3
      vertex 9 -2 3
      vertex 9 -2 -3
    endloop
  endfacet
  facet normal -0.951056 0.309017 0
    outer loop
      vertex 9 -2 3
      vertex 8.42705 -3.76336 -3
      vertex 8.42705 -3.76336 3
    endloop
  endfacet
  facet normal 0 1 -0
    outer loop
      vertex 6.92705 -4.85317 -3
      vertex 5.07295 -4.85317 3
      vertex 6.92705 -4.85317 3
    endloop
  endfacet
  facet normal 0 1 0
    outer loop
      vertex 5.07295 -4.85317 3
      vertex 6.92705 -4.85317 -3
      vertex 5.07295 -4.85317 -3
    endloop
  endfacet
  facet normal -0.951057 -0.309017 -5.29903e-08
    outer loop
      vertex -3.14215 -1.56251 -3
      vertex -3.57295 -0.236644 -4.17808
      vertex -3.4156 -0.720917 -4.45767
    endloop
  endfacet
  facet normal -0.951057 -0.309017 0
    outer loop
      vertex -3.57295 -0.236644 -4.17808
      vertex -3.14215 -1.56251 -3
      vertex -3.57295 -0.236644 3
    endloop
  endfacet
  facet normal -0.951057 -0.309017 -0
    outer loop
      vertex -3 -2 3
      vertex -3.14215 -1.56251 -3
      vertex -3 -2 -3
    endloop
  endfacet
  facet normal -0.951057 -0.309017 -1.21435e-09
    outer loop
      vertex -3.14215 -1.56251 -3
      vertex -3 -2 3
      vertex -3.57295 -0.236644 3
    endloop
  endfacet
  facet normal 0.951054 -0.309026 0
    outer loop
      vertex -8.42705 -0.236644 3
      vertex -8.43722 -0.267949 -3
      vertex -8.42705 -0.236644 -3.11683
    endloop
  endfacet
  facet normal 0.951056 -0.309017 -4.80498e-08
    outer loop
      vertex -9 -2 3
      vertex -8.43722 -0.267949 -3
      vertex -8.42705 -0.236644 3
    endloop
  endfacet
  facet normal 0.951056 -0.309017 0
    outer loop
      vertex -8.43722 -0.267949 -3
      vertex -9 -2 3
      vertex -9 -2 -3
    endloop
  endfacet
  facet normal 0 1 -0
    outer loop
      vertex -5.07295 -4.85317 -3
      vertex -6.92705 -4.85317 3
      vertex -5.07295 -4.85317 3
    endloop
  endfacet
  facet normal 0 1 0
    outer loop
      vertex -6.92705 -4.85317 3
      vertex -5.07295 -4.85317 -3
      vertex -6.92705 -4.85317 -3
    endloop
  endfacet
  facet normal 0 -1 0
    outer loop
      vertex -6.92705 0.853169 -3.54887
      vertex -5.07295 0.853169 3
      vertex -6.92705 0.853169 3
    endloop
  endfacet
  facet normal 0 -1 -0
    outer loop
      vertex -5.07295 0.853169 3
      vertex -6.92705 0.853169 -3.54887
      vertex -5.07295 0.853169 -3.54887
    endloop
  endfacet
  facet normal -0.587785 -0.809017 0
    outer loop
      vertex -5.07295 0.853169 -3.54887
      vertex -3.57295 -0.236644 3
      vertex -5.07295 0.853169 3
    endloop
  endfacet
  facet normal -0.587785 -0.809017 -0
    outer loop
      vertex -3.57295 -0.236644 3
      vertex -5.07295 0.853169 -3.54887
      vertex -3.57295 -0.236644 -4.17808
    endloop
  endfacet
  facet normal 0.587785 -0.809017 0
    outer loop
      vertex -8.42705 -0.236644 -3.11683
      vertex -6.92705 0.853169 3
      vertex -8.42705 -0.236644 3
    endloop
  endfacet
  facet normal 0.587785 -0.809017 0
    outer loop
      vertex -8.42705 -0.236644 -3.11683
      vertex -6.92705 0.853169 -3.54887
      vertex -6.92705 0.853169 3
    endloop
  endfacet
  facet normal 0.587785 -0.809017 -1.12381e-07
    outer loop
      vertex -6.92705 0.853169 -3.54887
      vertex -8.42705 -0.236644 -3.11683
      vertex -8.0881 0.00961929 -4.0359
    endloop
  endfacet
  facet normal -0.587785 0.809017 0
    outer loop
      vertex -3.57295 -3.76336 -3
      vertex -5.07295 -4.85317 3
      vertex -3.57295 -3.76336 3
    endloop
  endfacet
  facet normal -0.587785 0.809017 0
    outer loop
      vertex -5.07295 -4.85317 3
      vertex -3.57295 -3.76336 -3
      vertex -5.07295 -4.85317 -3
    endloop
  endfacet
  facet normal -0.951057 0.309017 0
    outer loop
      vertex -3.57295 -3.76336 -3
      vertex -3 -2 3
      vertex -3 -2 -3
    endloop
  endfacet
  facet normal -0.951057 0.309017 0
    outer loop
      vertex -3 -2 3
      vertex -3.57295 -3.76336 -3
      vertex -3.57295 -3.76336 3
    endloop
  endfacet
  facet normal 0.587785 0.809017 -0
    outer loop
      vertex -6.92705 -4.85317 -3
      vertex -8.42705 -3.76336 3
      vertex -6.92705 -4.85317 3
    endloop
  endfacet
  facet normal 0.587785 0.809017 0
    outer loop
      vertex -8.42705 -3.76336 3
      vertex -6.92705 -4.85317 -3
      vertex -8.42705 -3.76336 -3
    endloop
  endfacet
  facet normal 0.951056 0.309017 0
    outer loop
      vertex -8.42705 -3.76336 3
      vertex -9 -2 -3
      vertex -9 -2 3
    endloop
  endfacet
  facet normal 0.951056 0.309017 0
    outer loop
      vertex -9 -2 -3
      vertex -8.42705 -3.76336 3
      vertex -8.42705 -3.76336 -3
    endloop
  endfacet
  facet normal 2.2038e-07 -0.5 0.866025
    outer loop
      vertex 2.94439 17.4772 9.51311
      vertex 4.92705 20.8297 11.4487
      vertex 1.45395 18.5956 10.1588
    endloop
  endfacet
  facet normal -3.00823e-07 -0.5 0.866025
    outer loop
      vertex 5.5 19.3026 10.567
      vertex 2.94439 17.4772 9.51311
      vertex 3.5 15.8385 8.56699
    endloop
  endfacet
  facet normal -2.36965e-07 -0.5 0.866025
    outer loop
      vertex 4.92705 20.8297 11.4487
      vertex 2.94439 17.4772 9.51311
      vertex 5.5 19.3026 10.567
    endloop
  endfacet
  facet normal -6.2386e-08 -0.5 0.866025
    outer loop
      vertex 3.42705 21.7735 11.9936
      vertex -0.498101 18.8387 10.2992
      vertex 1.45395 18.5956 10.1588
    endloop
  endfacet
  facet normal 0 -0.5 0.866025
    outer loop
      vertex -3.42705 21.7735 11.9936
      vertex -0.498101 18.8387 10.2992
      vertex 3.42705 21.7735 11.9936
    endloop
  endfacet
  facet normal 1.56386e-08 -0.5 0.866025
    outer loop
      vertex -5.5 19.3026 10.567
      vertex -2.29201 18.1292 9.88955
      vertex -4.92705 20.8297 11.4487
    endloop
  endfacet
  facet normal -4.61996e-07 -0.5 0.866025
    outer loop
      vertex -4.92705 20.8297 11.4487
      vertex -2.29201 18.1292 9.88955
      vertex -3.42705 21.7735 11.9936
    endloop
  endfacet
  facet normal 1.26266e-07 -0.5 0.866025
    outer loop
      vertex -0.498101 18.8387 10.2992
      vertex -3.42705 21.7735 11.9936
      vertex -2.29201 18.1292 9.88955
    endloop
  endfacet
  facet normal 5.68311e-09 -0.5 0.866025
    outer loop
      vertex 5.5 19.3026 10.567
      vertex 8.27226 1.29193 0.168549
      vertex 8.9489 0.528165 -0.272414
    endloop
  endfacet
  facet normal 1.69882e-08 -0.5 0.866025
    outer loop
      vertex 3.5 15.8385 8.56699
      vertex 8.27226 1.29193 0.168549
      vertex 5.5 19.3026 10.567
    endloop
  endfacet
  facet normal 3.78319e-07 -0.5 0.866025
    outer loop
      vertex 1.45395 18.5956 10.1588
      vertex 4.92705 20.8297 11.4487
      vertex 3.42705 21.7735 11.9936
    endloop
  endfacet
  facet normal 4.36288e-07 -0.5 0.866025
    outer loop
      vertex 2.94439 14.1997 7.62087
      vertex 8.27226 1.29193 0.168549
      vertex 3.5 15.8385 8.56699
    endloop
  endfacet
  facet normal -4.53325e-09 -0.5 0.866025
    outer loop
      vertex 8.27226 1.29193 0.168549
      vertex 2.94439 14.1997 7.62087
      vertex 6.48215 1.97083 0.560512
    endloop
  endfacet
  facet normal -3.56147e-08 -0.5 0.866025
    outer loop
      vertex 1.45395 13.0813 6.97513
      vertex 6.48215 1.97083 0.560512
      vertex 2.94439 14.1997 7.62087
    endloop
  endfacet
  facet normal 7.69516e-08 -0.5 0.866025
    outer loop
      vertex -0.498101 12.8382 6.8348
      vertex 6.48215 1.97083 0.560512
      vertex 1.45395 13.0813 6.97513
    endloop
  endfacet
  facet normal -1.18865e-07 -0.5 0.866025
    outer loop
      vertex -5.51785 1.97083 0.560512
      vertex -0.498101 12.8382 6.8348
      vertex -2.29201 13.5477 7.24443
    endloop
  endfacet
  facet normal -1.21988e-07 -0.5 0.866025
    outer loop
      vertex -2.29201 18.1292 9.88955
      vertex -5.5 19.3026 10.567
      vertex -3.35822 16.6924 9.06002
    endloop
  endfacet
  facet normal 5.38172e-07 -0.5 0.866026
    outer loop
      vertex -3.35822 16.6924 9.06002
      vertex -5.5 19.3026 10.567
      vertex -3.35822 14.9845 8.07396
    endloop
  endfacet
  facet normal 0 -0.5 0.866025
    outer loop
      vertex -0.498101 12.8382 6.8348
      vertex -5.51785 1.97083 0.560512
      vertex 6.48215 1.97083 0.560512
    endloop
  endfacet
  facet normal -2.34522e-08 -0.5 0.866025
    outer loop
      vertex -7.41842 1.74006 0.427277
      vertex -2.29201 13.5477 7.24443
      vertex -3.35822 14.9845 8.07396
    endloop
  endfacet
  facet normal -1.14952e-07 -0.5 0.866025
    outer loop
      vertex -8.91619 0.706228 -0.169609
      vertex -3.35822 14.9845 8.07396
      vertex -5.5 19.3026 10.567
    endloop
  endfacet
  facet normal 1.54181e-09 -0.5 0.866025
    outer loop
      vertex -2.29201 13.5477 7.24443
      vertex -7.41842 1.74006 0.427277
      vertex -5.51785 1.97083 0.560512
    endloop
  endfacet
  facet normal 8.51423e-09 -0.5 0.866025
    outer loop
      vertex -3.35822 14.9845 8.07396
      vertex -8.91619 0.706228 -0.169609
      vertex -7.41842 1.74006 0.427277
    endloop
  endfacet
  facet normal -0.951056 0.267617 0.154509
    outer loop
      vertex -5.5 20.8026 7.96891
      vertex -4.92705 20.8297 11.4487
      vertex -4.92705 22.3297 8.85059
    endloop
  endfacet
  facet normal -0.951056 0.267617 0.154509
    outer loop
      vertex -4.92705 20.8297 11.4487
      vertex -5.5 20.8026 7.96891
      vertex -5.5 19.3026 10.567
    endloop
  endfacet
  facet normal -0.587786 -0.700629 -0.404508
    outer loop
      vertex -8.0881 0.00961929 -4.0359
      vertex -8.42705 -0.236644 -3.11683
      vertex -8.42705 0.22289 -3.91277
    endloop
  endfacet
  facet normal -0.951056 -0.267617 -0.154508
    outer loop
      vertex -8.42705 0.22289 -3.91277
      vertex -8.74466 0.824626 -3
      vertex -9 1.75 -3.03109
    endloop
  endfacet
  facet normal -0.951057 -0.267617 -0.154509
    outer loop
      vertex -8.42705 -0.236644 -3.11683
      vertex -8.74466 0.824626 -3
      vertex -8.42705 0.22289 -3.91277
    endloop
  endfacet
  facet normal -0.951056 -0.267616 -0.154511
    outer loop
      vertex -8.74466 0.824626 -3
      vertex -8.42705 -0.236644 -3.11683
      vertex -8.43722 -0.267949 -3
    endloop
  endfacet
  facet normal -0.951056 -0.267617 -0.154509
    outer loop
      vertex -8.99404 0.652491 -1.16682
      vertex -9 1.75 -3.03109
      vertex -8.74466 0.824626 -3
    endloop
  endfacet
  facet normal -0.951057 -0.267616 -0.154508
    outer loop
      vertex -9 1.75 -3.03109
      vertex -8.99404 0.652491 -1.16682
      vertex -9 0.641139 -1.11049
    endloop
  endfacet
  facet normal 0 -0.866025 -0.5
    outer loop
      vertex -3.4156 -0.720917 -4.45767
      vertex 3.14215 -1.56251 -3
      vertex -3.14215 -1.56251 -3
    endloop
  endfacet
  facet normal 0 -0.866025 -0.5
    outer loop
      vertex 3.14215 -1.56251 -3
      vertex -3.4156 -0.720917 -4.45767
      vertex 3.4156 -0.720917 -4.45767
    endloop
  endfacet
  facet normal 0 0.866025 0.5
    outer loop
      vertex 3.42705 23.2735 9.3955
      vertex -3.42705 21.7735 11.9936
      vertex 3.42705 21.7735 11.9936
    endloop
  endfacet
  facet normal 0 0.866025 0.5
    outer loop
      vertex -3.42705 21.7735 11.9936
      vertex 3.42705 23.2735 9.3955
      vertex -3.42705 23.2735 9.3955
    endloop
  endfacet
  facet normal 0.951056 0.267617 0.154509
    outer loop
      vertex 4.92705 20.8297 11.4487
      vertex 5.5 20.8026 7.96891
      vertex 4.92705 22.3297 8.85059
    endloop
  endfacet
  facet normal 0.951056 0.267617 0.154509
    outer loop
      vertex 5.5 20.8026 7.96891
      vertex 4.92705 20.8297 11.4487
      vertex 5.5 19.3026 10.567
    endloop
  endfacet
  facet normal 0.587786 -0.700629 -0.404508
    outer loop
      vertex 8.42705 -0.236644 -3.11683
      vertex 8.0881 0.00961929 -4.0359
      vertex 8.42705 0.22289 -3.91277
    endloop
  endfacet
  facet normal 0.98758 0.136066 0.0785575
    outer loop
      vertex 8.9489 0.528165 -0.272414
      vertex 5.5 20.8026 7.96891
      vertex 5.5 19.3026 10.567
    endloop
  endfacet
  facet normal 0.98758 0.136066 0.0785576
    outer loop
      vertex 5.5 20.8026 7.96891
      vertex 8.9489 0.528165 -0.272414
      vertex 9 1.75 -3.03109
    endloop
  endfacet
  facet normal 0.98758 0.136066 0.0785579
    outer loop
      vertex 9 1.75 -3.03109
      vertex 8.9489 0.528165 -0.272414
      vertex 9 0.470485 -0.814904
    endloop
  endfacet
  facet normal -0.587785 0.700629 0.404508
    outer loop
      vertex -3.42705 23.2735 9.3955
      vertex -4.92705 20.8297 11.4487
      vertex -3.42705 21.7735 11.9936
    endloop
  endfacet
  facet normal -0.587785 0.700629 0.404509
    outer loop
      vertex -4.92705 20.8297 11.4487
      vertex -3.42705 23.2735 9.3955
      vertex -4.92705 22.3297 8.85059
    endloop
  endfacet
  facet normal -0.98758 0.136066 0.0785574
    outer loop
      vertex -8.91619 0.706228 -0.169609
      vertex -5.5 20.8026 7.96891
      vertex -9 1.75 -3.03109
    endloop
  endfacet
  facet normal -0.98758 0.136066 0.0785575
    outer loop
      vertex -5.5 20.8026 7.96891
      vertex -8.91619 0.706228 -0.169609
      vertex -5.5 19.3026 10.567
    endloop
  endfacet
  facet normal -0.98758 0.136065 0.0785572
    outer loop
      vertex -9 1.75 -3.03109
      vertex -8.99404 0.652491 -1.05525
      vertex -8.91619 0.706228 -0.169609
    endloop
  endfacet
  facet normal -0.98758 0.136066 0.0785577
    outer loop
      vertex -8.99404 0.652491 -1.05525
      vertex -9 1.75 -3.03109
      vertex -9 0.641139 -1.11049
    endloop
  endfacet
  facet normal 0 0.5 -0.866025
    outer loop
      vertex 5.07295 0.853169 -3.54887
      vertex 6.92246 1.80385 -3
      vertex 6.92705 0.853169 -3.54887
    endloop
  endfacet
  facet normal 0 0.5 -0.866025
    outer loop
      vertex -3.4156 -0.720917 -4.45767
      vertex 3.57295 -0.236644 -4.17808
      vertex 3.4156 -0.720917 -4.45767
    endloop
  endfacet
  facet normal 0 0.5 -0.866025
    outer loop
      vertex -3.57295 -0.236644 -4.17808
      vertex 3.57295 -0.236644 -4.17808
      vertex -3.4156 -0.720917 -4.45767
    endloop
  endfacet
  facet normal 0 0.5 -0.866025
    outer loop
      vertex 3.57295 -0.236644 -4.17808
      vertex -3.57295 -0.236644 -4.17808
      vertex 5.07295 0.853169 -3.54887
    endloop
  endfacet
  facet normal 0 0.5 -0.866025
    outer loop
      vertex -5.07295 0.853169 -3.54887
      vertex 5.07295 0.853169 -3.54887
      vertex -3.57295 -0.236644 -4.17808
    endloop
  endfacet
  facet normal 0 0.5 -0.866025
    outer loop
      vertex 5.07295 0.853169 -3.54887
      vertex -5.07295 0.853169 -3.54887
      vertex 6.92246 1.80385 -3
    endloop
  endfacet
  facet normal 0 0.5 -0.866025
    outer loop
      vertex -5.07295 0.853169 -3.54887
      vertex -6.89312 1.80385 -3
      vertex 6.92246 1.80385 -3
    endloop
  endfacet
  facet normal 0 0.5 -0.866025
    outer loop
      vertex -6.89312 1.80385 -3
      vertex -5.07295 0.853169 -3.54887
      vertex -6.92705 0.853169 -3.54887
    endloop
  endfacet
  facet normal 1.68968e-07 0.5 -0.866025
    outer loop
      vertex 6.92705 0.853169 -3.54887
      vertex 8.42705 0.22289 -3.91277
      vertex 8.0881 0.00961929 -4.0359
    endloop
  endfacet
  facet normal 9.13531e-08 0.5 -0.866025
    outer loop
      vertex 8.42705 0.22289 -3.91277
      vertex 6.92705 0.853169 -3.54887
      vertex 9 1.75 -3.03109
    endloop
  endfacet
  facet normal 3.15851e-08 0.5 -0.866025
    outer loop
      vertex 6.92246 1.80385 -3
      vertex 9 1.75 -3.03109
      vertex 6.92705 0.853169 -3.54887
    endloop
  endfacet
  facet normal 2.26556e-08 0.5 -0.866026
    outer loop
      vertex 6.48215 1.97083 -2.90359
      vertex 9 1.75 -3.03109
      vertex 6.92246 1.80385 -3
    endloop
  endfacet
  facet normal 4.6416e-08 0.5 -0.866025
    outer loop
      vertex 2.94439 15.6997 5.02279
      vertex 9 1.75 -3.03109
      vertex 6.48215 1.97083 -2.90359
    endloop
  endfacet
  facet normal -3.28853e-08 0.5 -0.866025
    outer loop
      vertex 9 1.75 -3.03109
      vertex 3.5 17.3385 5.96891
      vertex 5.5 20.8026 7.96891
    endloop
  endfacet
  facet normal 3.00823e-07 0.5 -0.866025
    outer loop
      vertex 2.94439 18.9772 6.91503
      vertex 5.5 20.8026 7.96891
      vertex 3.5 17.3385 5.96891
    endloop
  endfacet
  facet normal -7.84364e-08 0.5 -0.866025
    outer loop
      vertex 9 1.75 -3.03109
      vertex 2.94439 15.6997 5.02279
      vertex 3.5 17.3385 5.96891
    endloop
  endfacet
  facet normal 4.11896e-08 0.5 -0.866025
    outer loop
      vertex 6.48215 1.97083 -2.90359
      vertex 1.45395 14.5813 4.37706
      vertex 2.94439 15.6997 5.02279
    endloop
  endfacet
  facet normal -7.65255e-08 0.5 -0.866025
    outer loop
      vertex 6.48215 1.97083 -2.90359
      vertex -0.498101 14.3382 4.23672
      vertex 1.45395 14.5813 4.37706
    endloop
  endfacet
  facet normal 0 0.5 -0.866025
    outer loop
      vertex -5.51785 1.97083 -2.90359
      vertex -0.498101 14.3382 4.23672
      vertex 6.48215 1.97083 -2.90359
    endloop
  endfacet
  facet normal 1.17844e-07 0.5 -0.866025
    outer loop
      vertex -0.498101 14.3382 4.23672
      vertex -5.51785 1.97083 -2.90359
      vertex -2.29201 15.0477 4.64635
    endloop
  endfacet
  facet normal -2.43508e-07 0.5 -0.866025
    outer loop
      vertex -5.5 20.8026 7.96891
      vertex -3.35822 18.1924 6.46194
      vertex -3.35822 16.4845 5.47588
    endloop
  endfacet
  facet normal -2.35873e-07 0.5 -0.866025
    outer loop
      vertex -4.92705 22.3297 8.85059
      vertex -3.35822 18.1924 6.46194
      vertex -5.5 20.8026 7.96891
    endloop
  endfacet
  facet normal 7.78084e-08 0.5 -0.866025
    outer loop
      vertex -3.35822 18.1924 6.46194
      vertex -4.92705 22.3297 8.85059
      vertex -3.42705 23.2735 9.3955
    endloop
  endfacet
  facet normal -3.84011e-08 0.5 -0.866025
    outer loop
      vertex -6.89312 1.80385 -3
      vertex -2.29201 15.0477 4.64635
      vertex -5.51785 1.97083 -2.90359
    endloop
  endfacet
  facet normal -2.88112e-08 0.5 -0.866025
    outer loop
      vertex -9 1.75 -3.03109
      vertex -2.29201 15.0477 4.64635
      vertex -6.89312 1.80385 -3
    endloop
  endfacet
  facet normal 1.02666e-08 0.5 -0.866025
    outer loop
      vertex -2.29201 15.0477 4.64635
      vertex -9 1.75 -3.03109
      vertex -3.35822 16.4845 5.47588
    endloop
  endfacet
  facet normal -1.68968e-07 0.5 -0.866025
    outer loop
      vertex -8.42705 0.22289 -3.91277
      vertex -6.92705 0.853169 -3.54887
      vertex -8.0881 0.00961929 -4.0359
    endloop
  endfacet
  facet normal -9.13531e-08 0.5 -0.866025
    outer loop
      vertex -9 1.75 -3.03109
      vertex -6.92705 0.853169 -3.54887
      vertex -8.42705 0.22289 -3.91277
    endloop
  endfacet
  facet normal -3.11698e-08 0.5 -0.866025
    outer loop
      vertex -6.92705 0.853169 -3.54887
      vertex -9 1.75 -3.03109
      vertex -6.89312 1.80385 -3
    endloop
  endfacet
  facet normal -7.06583e-09 0.5 -0.866025
    outer loop
      vertex -3.35822 16.4845 5.47588
      vertex -9 1.75 -3.03109
      vertex -5.5 20.8026 7.96891
    endloop
  endfacet
  facet normal 2.36965e-07 0.5 -0.866025
    outer loop
      vertex 5.5 20.8026 7.96891
      vertex 2.94439 18.9772 6.91503
      vertex 4.92705 22.3297 8.85059
    endloop
  endfacet
  facet normal -2.84771e-08 0.5 -0.866025
    outer loop
      vertex 1.45395 20.0956 7.56077
      vertex 4.92705 22.3297 8.85059
      vertex 2.94439 18.9772 6.91503
    endloop
  endfacet
  facet normal -4.1186e-08 0.5 -0.866025
    outer loop
      vertex 4.92705 22.3297 8.85059
      vertex 1.45395 20.0956 7.56077
      vertex 3.42705 23.2735 9.3955
    endloop
  endfacet
  facet normal -1.49e-07 0.5 -0.866025
    outer loop
      vertex -0.498101 20.3387 7.7011
      vertex 3.42705 23.2735 9.3955
      vertex 1.45395 20.0956 7.56077
    endloop
  endfacet
  facet normal 1.18586e-07 0.5 -0.866025
    outer loop
      vertex -3.42705 23.2735 9.3955
      vertex -0.498101 20.3387 7.7011
      vertex -2.29201 19.6292 7.29147
    endloop
  endfacet
  facet normal 0 0.5 -0.866025
    outer loop
      vertex -0.498101 20.3387 7.7011
      vertex -3.42705 23.2735 9.3955
      vertex 3.42705 23.2735 9.3955
    endloop
  endfacet
  facet normal -2.7972e-08 0.5 -0.866025
    outer loop
      vertex -3.42705 23.2735 9.3955
      vertex -2.29201 19.6292 7.29147
      vertex -3.35822 18.1924 6.46194
    endloop
  endfacet
  facet normal 0.587785 0.700629 0.404508
    outer loop
      vertex 4.92705 20.8297 11.4487
      vertex 3.42705 23.2735 9.3955
      vertex 3.42705 21.7735 11.9936
    endloop
  endfacet
  facet normal 0.587785 0.700629 0.404509
    outer loop
      vertex 3.42705 23.2735 9.3955
      vertex 4.92705 20.8297 11.4487
      vertex 4.92705 22.3297 8.85059
    endloop
  endfacet
  facet normal 0.951056 -0.267617 -0.154509
    outer loop
      vertex 9 1.75 -3.03109
      vertex 9 0.470485 -0.814904
      vertex 8.73058 0.774595 -3
    endloop
  endfacet
  facet normal 0.951056 -0.267617 -0.154508
    outer loop
      vertex 8.73058 0.774595 -3
      vertex 8.42705 0.22289 -3.91277
      vertex 9 1.75 -3.03109
    endloop
  endfacet
  facet normal 0.951056 -0.267617 -0.154509
    outer loop
      vertex 8.73058 0.774595 -3
      vertex 8.42705 -0.236644 -3.11683
      vertex 8.42705 0.22289 -3.91277
    endloop
  endfacet
  facet normal 0.951056 -0.267616 -0.154511
    outer loop
      vertex 8.42705 -0.236644 -3.11683
      vertex 8.73058 0.774595 -3
      vertex 8.43722 -0.267949 -3
    endloop
  endfacet
  facet normal -0.959493 -0.243988 -0.140866
    outer loop
      vertex 3.5 17.3385 5.96891
      vertex 2.94439 17.4772 9.51311
      vertex 2.94439 18.9772 6.91503
    endloop
  endfacet
  facet normal -0.959493 -0.243988 -0.140866
    outer loop
      vertex 2.94439 17.4772 9.51311
      vertex 3.5 17.3385 5.96891
      vertex 3.5 15.8385 8.56699
    endloop
  endfacet
  facet normal 1 0 0
    outer loop
      vertex -3.35822 16.6924 9.06002
      vertex -3.35822 16.4845 5.47588
      vertex -3.35822 18.1924 6.46194
    endloop
  endfacet
  facet normal 1 0 -0
    outer loop
      vertex -3.35822 16.4845 5.47588
      vertex -3.35822 16.6924 9.06002
      vertex -3.35822 14.9845 8.07396
    endloop
  endfacet
  facet normal 0.415414 -0.787765 -0.454816
    outer loop
      vertex -2.29201 18.1292 9.88955
      vertex -0.498101 20.3387 7.7011
      vertex -0.498101 18.8387 10.2992
    endloop
  endfacet
  facet normal 0.415415 -0.787765 -0.454816
    outer loop
      vertex -0.498101 20.3387 7.7011
      vertex -2.29201 18.1292 9.88955
      vertex -2.29201 19.6292 7.29147
    endloop
  endfacet
  facet normal 0.841254 -0.468208 -0.27032
    outer loop
      vertex -2.29201 18.1292 9.88955
      vertex -3.35822 18.1924 6.46194
      vertex -2.29201 19.6292 7.29147
    endloop
  endfacet
  facet normal 0.841254 -0.468208 -0.27032
    outer loop
      vertex -3.35822 18.1924 6.46194
      vertex -2.29201 18.1292 9.88955
      vertex -3.35822 16.6924 9.06002
    endloop
  endfacet
  facet normal -0.142315 0.85721 0.494911
    outer loop
      vertex 1.45395 14.5813 4.37706
      vertex -0.498101 12.8382 6.8348
      vertex 1.45395 13.0813 6.97513
    endloop
  endfacet
  facet normal -0.142315 0.85721 0.494911
    outer loop
      vertex -0.498101 12.8382 6.8348
      vertex 1.45395 14.5813 4.37706
      vertex -0.498101 14.3382 4.23672
    endloop
  endfacet
  facet normal -0.654861 0.654498 0.377875
    outer loop
      vertex 1.45395 14.5813 4.37706
      vertex 2.94439 14.1997 7.62087
      vertex 2.94439 15.6997 5.02279
    endloop
  endfacet
  facet normal -0.654861 0.654498 0.377875
    outer loop
      vertex 2.94439 14.1997 7.62087
      vertex 1.45395 14.5813 4.37706
      vertex 1.45395 13.0813 6.97513
    endloop
  endfacet
  facet normal -0.142315 -0.85721 -0.494911
    outer loop
      vertex -0.498101 20.3387 7.7011
      vertex 1.45395 18.5956 10.1588
      vertex -0.498101 18.8387 10.2992
    endloop
  endfacet
  facet normal -0.142315 -0.857211 -0.494911
    outer loop
      vertex 1.45395 18.5956 10.1588
      vertex -0.498101 20.3387 7.7011
      vertex 1.45395 20.0956 7.56077
    endloop
  endfacet
  facet normal -0.654861 -0.654498 -0.377875
    outer loop
      vertex 2.94439 18.9772 6.91503
      vertex 1.45395 18.5956 10.1588
      vertex 1.45395 20.0956 7.56077
    endloop
  endfacet
  facet normal -0.654861 -0.654498 -0.377875
    outer loop
      vertex 1.45395 18.5956 10.1588
      vertex 2.94439 18.9772 6.91503
      vertex 2.94439 17.4772 9.51311
    endloop
  endfacet
  facet normal 0.841254 0.468208 0.27032
    outer loop
      vertex -3.35822 14.9845 8.07396
      vertex -2.29201 15.0477 4.64635
      vertex -3.35822 16.4845 5.47588
    endloop
  endfacet
  facet normal 0.841254 0.468208 0.27032
    outer loop
      vertex -2.29201 15.0477 4.64635
      vertex -3.35822 14.9845 8.07396
      vertex -2.29201 13.5477 7.24443
    endloop
  endfacet
  facet normal -0.959493 0.243988 0.140866
    outer loop
      vertex 2.94439 15.6997 5.02279
      vertex 3.5 15.8385 8.56699
      vertex 3.5 17.3385 5.96891
    endloop
  endfacet
  facet normal -0.959493 0.243988 0.140866
    outer loop
      vertex 3.5 15.8385 8.56699
      vertex 2.94439 15.6997 5.02279
      vertex 2.94439 14.1997 7.62087
    endloop
  endfacet
  facet normal 0.415415 0.787764 0.454816
    outer loop
      vertex -0.498101 12.8382 6.8348
      vertex -2.29201 15.0477 4.64635
      vertex -2.29201 13.5477 7.24443
    endloop
  endfacet
  facet normal 0.415415 0.787764 0.454816
    outer loop
      vertex -2.29201 15.0477 4.64635
      vertex -0.498101 12.8382 6.8348
      vertex -0.498101 14.3382 4.23672
    endloop
  endfacet
  facet normal 0.970942 0.239316 0
    outer loop
      vertex 10 -2 3
      vertex 9.54182 -0.141107 -3
      vertex 9.54182 -0.141107 3
    endloop
  endfacet
  facet normal 0.970942 0.239316 0
    outer loop
      vertex 9.54182 -0.141107 -3
      vertex 10 -2 3
      vertex 10 -2 -3
    endloop
  endfacet
  facet normal -1 0 0
    outer loop
      vertex -9.88377 -2.95726 -3
      vertex -9.88377 -1.04274 3
      vertex -9.88377 -1.04274 -3
    endloop
  endfacet
  facet normal -1 -0 0
    outer loop
      vertex -9.88377 -1.04274 3
      vertex -9.88377 -2.95726 -3
      vertex -9.88377 -2.95726 3
    endloop
  endfacet
  facet normal -0.120536 0.992709 0
    outer loop
      vertex -5.51785 1.97083 0.560512
      vertex -7.41842 1.74006 3
      vertex -5.51785 1.97083 3
    endloop
  endfacet
  facet normal -0.120536 0.992709 0
    outer loop
      vertex -7.41842 1.74006 3
      vertex -5.51785 1.97083 0.560512
      vertex -7.41842 1.74006 0.427277
    endloop
  endfacet
  facet normal -0.120537 0.992709 0
    outer loop
      vertex -5.51785 1.97083 -3
      vertex -6.89312 1.80385 -3
      vertex -5.51785 1.97083 -2.90359
    endloop
  endfacet
  facet normal 0 0 1
    outer loop
      vertex 9 -2 3
      vertex 10 -2 3
      vertex 9.54182 -0.141107 3
    endloop
  endfacet
  facet normal 0 0 1
    outer loop
      vertex 10 -2 3
      vertex 9 -2 3
      vertex 9.54182 -3.85889 3
    endloop
  endfacet
  facet normal 0 0 1
    outer loop
      vertex 9.54182 -0.141107 3
      vertex 8.42705 -0.236644 3
      vertex 9 -2 3
    endloop
  endfacet
  facet normal 0 0 1
    outer loop
      vertex 8.27226 1.29193 3
      vertex 8.42705 -0.236644 3
      vertex 9.54182 -0.141107 3
    endloop
  endfacet
  facet normal 0 0 1
    outer loop
      vertex 8.27226 1.29193 3
      vertex 6.92705 0.853169 3
      vertex 8.42705 -0.236644 3
    endloop
  endfacet
  facet normal 0 0 1
    outer loop
      vertex 6.48215 1.97083 3
      vertex 6.92705 0.853169 3
      vertex 8.27226 1.29193 3
    endloop
  endfacet
  facet normal 0 0 1
    outer loop
      vertex 6.48215 1.97083 3
      vertex 5.07295 0.853169 3
      vertex 6.92705 0.853169 3
    endloop
  endfacet
  facet normal -0 0 1
    outer loop
      vertex -5.51785 1.97083 3
      vertex 5.07295 0.853169 3
      vertex 6.48215 1.97083 3
    endloop
  endfacet
  facet normal 0 0 1
    outer loop
      vertex 3.57295 -0.236644 3
      vertex -3 -2 3
      vertex 3 -2 3
    endloop
  endfacet
  facet normal 0 0 1
    outer loop
      vertex 5.07295 0.853169 3
      vertex -5.51785 1.97083 3
      vertex 3.57295 -0.236644 3
    endloop
  endfacet
  facet normal 0 0 1
    outer loop
      vertex 3.57295 -0.236644 3
      vertex -3.57295 -0.236644 3
      vertex -3 -2 3
    endloop
  endfacet
  facet normal 0 0 1
    outer loop
      vertex 3.57295 -0.236644 3
      vertex -5.51785 1.97083 3
      vertex -3.57295 -0.236644 3
    endloop
  endfacet
  facet normal 0 0 1
    outer loop
      vertex -3.57295 -0.236644 3
      vertex -5.51785 1.97083 3
      vertex -5.07295 0.853169 3
    endloop
  endfacet
  facet normal 0 0 1
    outer loop
      vertex -5.51785 1.97083 3
      vertex -6.92705 0.853169 3
      vertex -5.07295 0.853169 3
    endloop
  endfacet
  facet normal -0 0 1
    outer loop
      vertex -7.41842 1.74006 3
      vertex -6.92705 0.853169 3
      vertex -5.51785 1.97083 3
    endloop
  endfacet
  facet normal 0 0 1
    outer loop
      vertex -8.99404 0.652491 3
      vertex -6.92705 0.853169 3
      vertex -7.41842 1.74006 3
    endloop
  endfacet
  facet normal 0 0 1
    outer loop
      vertex -6.92705 0.853169 3
      vertex -8.99404 0.652491 3
      vertex -8.42705 -0.236644 3
    endloop
  endfacet
  facet normal 0 0 1
    outer loop
      vertex -9.88377 -1.04274 3
      vertex -8.42705 -0.236644 3
      vertex -8.99404 0.652491 3
    endloop
  endfacet
  facet normal 0 0 1
    outer loop
      vertex -8.42705 -0.236644 3
      vertex -9.88377 -1.04274 3
      vertex -9 -2 3
    endloop
  endfacet
  facet normal -0 0 1
    outer loop
      vertex 8.42705 -3.76336 3
      vertex 9.54182 -3.85889 3
      vertex 9 -2 3
    endloop
  endfacet
  facet normal 0 0 1
    outer loop
      vertex 8.42705 -3.76336 3
      vertex 8.27226 -5.29193 3
      vertex 9.54182 -3.85889 3
    endloop
  endfacet
  facet normal -0 0 1
    outer loop
      vertex 6.92705 -4.85317 3
      vertex 8.27226 -5.29193 3
      vertex 8.42705 -3.76336 3
    endloop
  endfacet
  facet normal 0 0 1
    outer loop
      vertex 6.92705 -4.85317 3
      vertex 6.48215 -5.97083 3
      vertex 8.27226 -5.29193 3
    endloop
  endfacet
  facet normal -0 0 1
    outer loop
      vertex 5.07295 -4.85317 3
      vertex 6.48215 -5.97083 3
      vertex 6.92705 -4.85317 3
    endloop
  endfacet
  facet normal 0 0 1
    outer loop
      vertex -5.51785 -5.97083 3
      vertex 5.07295 -4.85317 3
      vertex 3.57295 -3.76336 3
    endloop
  endfacet
  facet normal -0 0 1
    outer loop
      vertex -3 -2 3
      vertex 3.57295 -3.76336 3
      vertex 3 -2 3
    endloop
  endfacet
  facet normal 0 0 1
    outer loop
      vertex -3.57295 -3.76336 3
      vertex 3.57295 -3.76336 3
      vertex -3 -2 3
    endloop
  endfacet
  facet normal 0 0 1
    outer loop
      vertex -5.51785 -5.97083 3
      vertex 3.57295 -3.76336 3
      vertex -3.57295 -3.76336 3
    endloop
  endfacet
  facet normal 0 0 1
    outer loop
      vertex -5.51785 -5.97083 3
      vertex -3.57295 -3.76336 3
      vertex -5.07295 -4.85317 3
    endloop
  endfacet
  facet normal 0 0 1
    outer loop
      vertex 5.07295 -4.85317 3
      vertex -5.51785 -5.97083 3
      vertex 6.48215 -5.97083 3
    endloop
  endfacet
  facet normal -0 0 1
    outer loop
      vertex -6.92705 -4.85317 3
      vertex -5.51785 -5.97083 3
      vertex -5.07295 -4.85317 3
    endloop
  endfacet
  facet normal 0 0 1
    outer loop
      vertex -6.92705 -4.85317 3
      vertex -7.41842 -5.74006 3
      vertex -5.51785 -5.97083 3
    endloop
  endfacet
  facet normal -0 0 1
    outer loop
      vertex -8.99404 -4.65249 3
      vertex -6.92705 -4.85317 3
      vertex -8.42705 -3.76336 3
    endloop
  endfacet
  facet normal 0 0 1
    outer loop
      vertex -6.92705 -4.85317 3
      vertex -8.99404 -4.65249 3
      vertex -7.41842 -5.74006 3
    endloop
  endfacet
  facet normal -0 0 1
    outer loop
      vertex -9.88377 -2.95726 3
      vertex -8.42705 -3.76336 3
      vertex -9 -2 3
    endloop
  endfacet
  facet normal 0 0 1
    outer loop
      vertex -9.88377 -2.95726 3
      vertex -9 -2 3
      vertex -9.88377 -1.04274 3
    endloop
  endfacet
  facet normal 0 0 1
    outer loop
      vertex -8.42705 -3.76336 3
      vertex -9.88377 -2.95726 3
      vertex -8.99404 -4.65249 3
    endloop
  endfacet
  facet normal 0 0 -1
    outer loop
      vertex 9 -2 -3
      vertex 10 -2 -3
      vertex 9.54182 -3.85889 -3
    endloop
  endfacet
  facet normal 0 0 -1
    outer loop
      vertex 10 -2 -3
      vertex 9 -2 -3
      vertex 9.54182 -0.141107 -3
    endloop
  endfacet
  facet normal 0 0 -1
    outer loop
      vertex 9.54182 -3.85889 -3
      vertex 8.42705 -3.76336 -3
      vertex 9 -2 -3
    endloop
  endfacet
  facet normal 0 0 -1
    outer loop
      vertex 8.27226 -5.29193 -3
      vertex 8.42705 -3.76336 -3
      vertex 9.54182 -3.85889 -3
    endloop
  endfacet
  facet normal 0 0 -1
    outer loop
      vertex 8.27226 -5.29193 -3
      vertex 6.92705 -4.85317 -3
      vertex 8.42705 -3.76336 -3
    endloop
  endfacet
  facet normal 0 0 -1
    outer loop
      vertex 6.48215 -5.97083 -3
      vertex 6.92705 -4.85317 -3
      vertex 8.27226 -5.29193 -3
    endloop
  endfacet
  facet normal 0 0 -1
    outer loop
      vertex 6.48215 -5.97083 -3
      vertex 5.07295 -4.85317 -3
      vertex 6.92705 -4.85317 -3
    endloop
  endfacet
  facet normal 0 0 -1
    outer loop
      vertex -5.51785 -5.97083 -3
      vertex 5.07295 -4.85317 -3
      vertex 6.48215 -5.97083 -3
    endloop
  endfacet
  facet normal 0 0 -1
    outer loop
      vertex 3.57295 -3.76336 -3
      vertex -3 -2 -3
      vertex 3 -2 -3
    endloop
  endfacet
  facet normal -0 0 -1
    outer loop
      vertex 5.07295 -4.85317 -3
      vertex -5.51785 -5.97083 -3
      vertex 3.57295 -3.76336 -3
    endloop
  endfacet
  facet normal 0 0 -1
    outer loop
      vertex 3.57295 -3.76336 -3
      vertex -3.57295 -3.76336 -3
      vertex -3 -2 -3
    endloop
  endfacet
  facet normal -0 0 -1
    outer loop
      vertex 3.57295 -3.76336 -3
      vertex -5.51785 -5.97083 -3
      vertex -3.57295 -3.76336 -3
    endloop
  endfacet
  facet normal 0 0 -1
    outer loop
      vertex -3.57295 -3.76336 -3
      vertex -5.51785 -5.97083 -3
      vertex -5.07295 -4.85317 -3
    endloop
  endfacet
  facet normal 0 0 -1
    outer loop
      vertex -5.51785 -5.97083 -3
      vertex -6.92705 -4.85317 -3
      vertex -5.07295 -4.85317 -3
    endloop
  endfacet
  facet normal 0 0 -1
    outer loop
      vertex -7.41842 -5.74006 -3
      vertex -6.92705 -4.85317 -3
      vertex -5.51785 -5.97083 -3
    endloop
  endfacet
  facet normal 0 0 -1
    outer loop
      vertex -8.99404 -4.65249 -3
      vertex -6.92705 -4.85317 -3
      vertex -7.41842 -5.74006 -3
    endloop
  endfacet
  facet normal 0 0 -1
    outer loop
      vertex -6.92705 -4.85317 -3
      vertex -8.99404 -4.65249 -3
      vertex -8.42705 -3.76336 -3
    endloop
  endfacet
  facet normal 0 0 -1
    outer loop
      vertex -9.88377 -2.95726 -3
      vertex -8.42705 -3.76336 -3
      vertex -8.99404 -4.65249 -3
    endloop
  endfacet
  facet normal 0 0 -1
    outer loop
      vertex -8.42705 -3.76336 -3
      vertex -9.88377 -2.95726 -3
      vertex -9 -2 -3
    endloop
  endfacet
  facet normal 0 0 -1
    outer loop
      vertex 8.43722 -0.267949 -3
      vertex 9.54182 -0.141107 -3
      vertex 9 -2 -3
    endloop
  endfacet
  facet normal -0 0 -1
    outer loop
      vertex 9.54182 -0.141107 -3
      vertex 8.43722 -0.267949 -3
      vertex 8.73058 0.774595 -3
    endloop
  endfacet
  facet normal 0 0 -1
    outer loop
      vertex -3 -2 -3
      vertex 3.14215 -1.56251 -3
      vertex 3 -2 -3
    endloop
  endfacet
  facet normal -0 0 -1
    outer loop
      vertex 3.14215 -1.56251 -3
      vertex -3 -2 -3
      vertex -3.14215 -1.56251 -3
    endloop
  endfacet
  facet normal 0 0 -1
    outer loop
      vertex -8.43722 -0.267949 -3
      vertex -8.99404 0.652491 -3
      vertex -8.74466 0.824626 -3
    endloop
  endfacet
  facet normal 0 0 -1
    outer loop
      vertex -9.88377 -1.04274 -3
      vertex -8.43722 -0.267949 -3
      vertex -9 -2 -3
    endloop
  endfacet
  facet normal 0 0 -1
    outer loop
      vertex -9.88377 -1.04274 -3
      vertex -9 -2 -3
      vertex -9.88377 -2.95726 -3
    endloop
  endfacet
  facet normal -0 0 -1
    outer loop
      vertex -8.43722 -0.267949 -3
      vertex -9.88377 -1.04274 -3
      vertex -8.99404 0.652491 -3
    endloop
  endfacet
  facet normal 0 0 -1
    outer loop
      vertex 6.92246 1.80385 -3
      vertex -5.51785 1.97083 -3
      vertex 6.48215 1.97083 -3
    endloop
  endfacet
  facet normal 0 -0 -1
    outer loop
      vertex -5.51785 1.97083 -3
      vertex 6.92246 1.80385 -3
      vertex -6.89312 1.80385 -3
    endloop
  endfacet
  facet normal 0.354605 0.935016 0
    outer loop
      vertex 8.27226 1.29193 3
      vertex 6.48215 1.97083 0.560512
      vertex 6.48215 1.97083 3
    endloop
  endfacet
  facet normal 0.354605 0.935016 0
    outer loop
      vertex 6.48215 1.97083 0.560512
      vertex 8.27226 1.29193 3
      vertex 8.27226 1.29193 0.168549
    endloop
  endfacet
  facet normal 0.354605 0.935016 0
    outer loop
      vertex 6.92246 1.80385 -3
      vertex 6.48215 1.97083 -3
      vertex 6.48215 1.97083 -2.90359
    endloop
  endfacet
  facet normal 0.748511 0.663123 0
    outer loop
      vertex 9.54182 -0.141107 3
      vertex 8.27226 1.29193 0.168549
      vertex 8.27226 1.29193 3
    endloop
  endfacet
  facet normal 0.74851 0.663124 2.31127e-07
    outer loop
      vertex 8.9489 0.528165 -0.272414
      vertex 9.54182 -0.141107 3
      vertex 9 0.470485 -0.814904
    endloop
  endfacet
  facet normal 0.748511 0.663123 -1.03598e-07
    outer loop
      vertex 8.27226 1.29193 0.168549
      vertex 9.54182 -0.141107 3
      vertex 8.9489 0.528165 -0.272414
    endloop
  endfacet
  facet normal 0.748511 0.663123 -0
    outer loop
      vertex 9.54182 -0.141107 -3
      vertex 9 0.470485 -0.814904
      vertex 9.54182 -0.141107 3
    endloop
  endfacet
  facet normal 0.748511 0.663123 -4.65721e-08
    outer loop
      vertex 9 0.470485 -0.814904
      vertex 9.54182 -0.141107 -3
      vertex 8.73058 0.774595 -3
    endloop
  endfacet
  facet normal 0 1 -0
    outer loop
      vertex 6.48215 1.97083 -3
      vertex -5.51785 1.97083 -2.90359
      vertex 6.48215 1.97083 -2.90359
    endloop
  endfacet
  facet normal 0 1 0
    outer loop
      vertex -5.51785 1.97083 -2.90359
      vertex 6.48215 1.97083 -3
      vertex -5.51785 1.97083 -3
    endloop
  endfacet
  facet normal 0 1 -0
    outer loop
      vertex 6.48215 1.97083 0.560512
      vertex -5.51785 1.97083 3
      vertex 6.48215 1.97083 3
    endloop
  endfacet
  facet normal 0 1 0
    outer loop
      vertex -5.51785 1.97083 3
      vertex 6.48215 1.97083 0.560512
      vertex -5.51785 1.97083 0.560512
    endloop
  endfacet
  facet normal -0.885456 0.464723 0
    outer loop
      vertex -9.88377 -1.04274 -3
      vertex -8.99404 0.652491 -1.16682
      vertex -8.99404 0.652491 -3
    endloop
  endfacet
  facet normal -0.885456 0.464724 -1.96973e-07
    outer loop
      vertex -8.99404 0.652491 -1.16682
      vertex -9.88377 -1.04274 -3
      vertex -9 0.641139 -1.11049
    endloop
  endfacet
  facet normal -0.885456 0.464723 3.20136e-07
    outer loop
      vertex -9.88377 -1.04274 -3
      vertex -8.99404 0.652491 -1.05525
      vertex -9 0.641139 -1.11049
    endloop
  endfacet
  facet normal -0.885456 0.464723 0
    outer loop
      vertex -8.99404 0.652491 -1.05525
      vertex -9.88377 -1.04274 -3
      vertex -9.88377 -1.04274 3
    endloop
  endfacet
  facet normal -0.885456 0.464723 0
    outer loop
      vertex -8.99404 0.652491 -1.05525
      vertex -9.88377 -1.04274 3
      vertex -8.99404 0.652491 3
    endloop
  endfacet
  facet normal -0.568065 0.822984 0
    outer loop
      vertex -7.41842 1.74006 0.427277
      vertex -8.99404 0.652491 3
      vertex -7.41842 1.74006 3
    endloop
  endfacet
  facet normal -0.568065 0.822984 6.78285e-08
    outer loop
      vertex -8.91619 0.706228 -0.169609
      vertex -8.99404 0.652491 3
      vertex -7.41842 1.74006 0.427277
    endloop
  endfacet
  facet normal -0.568066 0.822983 0
    outer loop
      vertex -8.99404 0.652491 3
      vertex -8.91619 0.706228 -0.169609
      vertex -8.99404 0.652491 -1.05525
    endloop
  endfacet
  facet normal -0.568064 0.822984 0
    outer loop
      vertex -8.74466 0.824626 -3
      vertex -8.99404 0.652491 -3
      vertex -8.99404 0.652491 -1.16682
    endloop
  endfacet
  facet normal -0.120536 -0.992709 0
    outer loop
      vertex -7.41842 -5.74006 -3
      vertex -5.51785 -5.97083 3
      vertex -7.41842 -5.74006 3
    endloop
  endfacet
  facet normal -0.120536 -0.992709 -0
    outer loop
      vertex -5.51785 -5.97083 3
      vertex -7.41842 -5.74006 -3
      vertex -5.51785 -5.97083 -3
    endloop
  endfacet
  facet normal -0.885456 -0.464723 0
    outer loop
      vertex -8.99404 -4.65249 -3
      vertex -9.88377 -2.95726 3
      vertex -9.88377 -2.95726 -3
    endloop
  endfacet
  facet normal -0.885456 -0.464723 0
    outer loop
      vertex -9.88377 -2.95726 3
      vertex -8.99404 -4.65249 -3
      vertex -8.99404 -4.65249 3
    endloop
  endfacet
  facet normal 0.748511 -0.663123 0
    outer loop
      vertex 8.27226 -5.29193 3
      vertex 9.54182 -3.85889 -3
      vertex 9.54182 -3.85889 3
    endloop
  endfacet
  facet normal 0.748511 -0.663123 0
    outer loop
      vertex 9.54182 -3.85889 -3
      vertex 8.27226 -5.29193 3
      vertex 8.27226 -5.29193 -3
    endloop
  endfacet
  facet normal 0.354605 -0.935016 0
    outer loop
      vertex 6.48215 -5.97083 -3
      vertex 8.27226 -5.29193 3
      vertex 6.48215 -5.97083 3
    endloop
  endfacet
  facet normal 0.354605 -0.935016 0
    outer loop
      vertex 8.27226 -5.29193 3
      vertex 6.48215 -5.97083 -3
      vertex 8.27226 -5.29193 -3
    endloop
  endfacet
  facet normal 0.970942 -0.239316 0
    outer loop
      vertex 9.54182 -3.85889 3
      vertex 10 -2 -3
      vertex 10 -2 3
    endloop
  endfacet
  facet normal 0.970942 -0.239316 0
    outer loop
      vertex 10 -2 -3
      vertex 9.54182 -3.85889 3
      vertex 9.54182 -3.85889 -3
    endloop
  endfacet
  facet normal 0 -1 0
    outer loop
      vertex -5.51785 -5.97083 -3
      vertex 6.48215 -5.97083 3
      vertex -5.51785 -5.97083 3
    endloop
  endfacet
  facet normal 0 -1 -0
    outer loop
      vertex 6.48215 -5.97083 3
      vertex -5.51785 -5.97083 -3
      vertex 6.48215 -5.97083 -3
    endloop
  endfacet
  facet normal -0.568065 -0.822984 0
    outer loop
      vertex -8.99404 -4.65249 -3
      vertex -7.41842 -5.74006 3
      vertex -8.99404 -4.65249 3
    endloop
  endfacet
  facet normal -0.568065 -0.822984 -0
    outer loop
      vertex -7.41842 -5.74006 3
      vertex -8.99404 -4.65249 -3
      vertex -7.41842 -5.74006 -3
    endloop
  endfacet
endsolid OpenSCAD_Model
